**ABCDEFGHIJKLMNOPQRSTUVWXYZabcdefghijklmnopqrstuvwxyz**************************
**PARASOLID !"#$%&'()*+,-./:;<=>?@[\]^_`{|}~0123456789**************************
**PART1;
MC=AMD64;
MC_MODEL=Intel64 Family 6 Model 60 Stepping 3, GenuineIntel;
MC_ID=unknown;
OS=Windows_NT;
OS_RELEASE=unknown;
FRU=Parasolid Version 28.0, build 191,  8-24-2015;
APPL=SOLIDWORKS 2016-2015334;
SITE=;
USER=unknown;
FORMAT=text;
GUISE=transmit;
KEY=BLTouchAdapter_2nd_Hotend_Adapter;
FILE=BLTouchAdapter_2nd_Hotend_Adapter.x_t;
DATE=Fri Sep 16 20:26:30 2016;
**PART2;
SCH=SCH_2800191_28002;
USFLD_SIZE=0;
**PART3;
**END_OF_HEADER*****************************************************************
T51 : TRANSMIT FILE created by modeller version 280019123 SCH_2800191_28002_1300
6200 0 12 30 CCCCCCCCCCCCCDI5 owner1040 0 CCCCCCCCCA13 boundary_mesh1006 0 A16 i
ndex_map_offset0 0 1 dA9 index_map82 0 A17 node_id_index_map82 0 A20 schema_embe
dding_map82 0 A5 child12 0 A14 lowest_node_id0 0 1 dZ1 2789 0 2 0 0 0 0 1e3 1e-8
 0 3 0 1 0 1 1 4 5 6 7 8 9 10 0 0 0 0 0 0 0 70 11 CI9 list_type0 0 1 uI10 notran
smit0 0 1 lCCCDCCDI12 finger_index0 0 1 dI12 finger_block1012 0 CZ2 0 4 T1 0 0 2
 20 1 11 11 13 255 4 64 0 1 0 12 0 0 13 0 51 255 5 2129 0 14 15 0 16 +-.00151834
207421154 -.00476388888888889 .0181994949366117 0 192747052886312e-30 -1 .001 0
 1 192747052886312e-30 38 255 6 2132 0 17 18 0 0 -19 5 20 21 22 29 255 7 1685 0
 10 23 0 -.001822010489053845 .00571666666666666 .00796706074680905 19 8 CCCCCCC
A5 owner12 0 Z8 68 0 1 13 0 24 V0 16 255 9 1694 0 ?25 0 26 27 0 0 1 18 255 10 16
83 0 28 0 29 7 ?1 17 255 28 0 30 31 32 10 33 34 0 35 +18 29 1680 0 36 10 37 23 ?
1 17 36 0 38 39 40 29 41 42 0 25 -18 37 1669 0 43 29 44 45 ?1 29 23 1682 0 29 45
 7 .001822010489053845 .00571666666666666 .00796706074680905 29 45 1671 0 37 46
 23 -.001822010489053845 -.00571666666666667 .00796706074680905 29 46 1656 0 44
 47 45 .001822010489053845 -.00571666666666667 .00796706074680905 18 44 1654 0 4
8 37 49 46 ?1 29 47 1595 0 49 50 46 .001822010489053845 -.00571666666666667 .009
3 18 49 1593 0 51 44 52 47 ?1 29 50 1586 0 52 53 47 -.001822010489053845 -.00571
666666666667 .0093 18 52 1584 0 54 49 55 50 ?1 29 53 1577 0 55 56 50 .0018220104
89053845 .00571666666666666 .0093 18 55 1575 0 57 52 58 53 ?1 29 56 1568 0 58 59
 53 -.001822010489053845 .00571666666666666 .0093 18 58 1566 0 32 55 60 56 ?1 29
 59 1562 0 60 61 56 -.002666341125962695 -.005375 .0083 18 60 1560 0 62 58 63 59
 ?1 29 61 1559 0 63 64 59 -.002666341125962695 .005375 .0083 18 63 1557 0 31 60
 65 61 ?1 29 64 1550 0 65 66 61 .002666341125962695 .005375 .0083 18 65 1548 0 6
7 63 68 64 ?1 29 66 1547 0 68 69 64 .002666341125962695 -.005375 .0083 18 68 154
5 0 70 65 71 66 ?1 29 69 1533 0 71 72 66 .001180932724386752 -.00570524691358025
 .0073 18 71 1531 0 73 68 74 69 ?1 29 72 1530 0 74 75 69 .00267445662525301 -.00
674228395061728 .0073 18 74 1528 0 76 71 77 72 ?1 29 75 1519 0 77 78 72 -.002674
45662525301 -.00674228395061729 .0073 18 77 1517 0 79 74 80 75 ?1 29 78 1516 0 8
0 81 75 -.001180932724386752 -.00570524691358025 .0073 18 80 1514 0 82 77 83 78
 ?1 29 81 1513 0 83 84 78 -.00267445662525301 -.00674228395061728 .002 18 83 151
1 0 85 80 86 81 ?1 29 84 1510 0 86 87 81 .00267445662525301 -.00674228395061728
 .002 18 86 1508 0 88 83 89 84 ?1 29 87 1507 0 89 90 84 -.001180932724387374 -.0
0570524691358047 .00873660268721788 18 89 1505 0 91 86 92 87 ?1 29 90 1504 0 92
 93 87 .001180932724386564 -.00570524691358018 .00873660268721723 18 92 1502 0 9
4 89 95 90 ?1 29 93 1495 0 95 96 90 -.003929813816698305 -.00696825396825397 .00
829710482395185 18 95 1493 0 97 92 98 93 ?1 29 96 1486 0 98 99 93 -.003929813816
6983 .00696825396825397 .00829710482395185 18 98 1484 0 100 95 101 96 ?1 29 99 1
483 0 101 102 96 -.0039298138166983 -.00696825396825397 .002 18 101 1481 0 103 9
8 104 99 ?1 29 102 1480 0 104 105 99 -.0039298138166983 .00696825396825397 .002
 18 104 1478 0 106 101 107 102 ?1 29 105 1477 0 107 108 102 -.00399592288355995
 -.00693055555555555 .0083 18 107 1475 0 109 104 110 105 ?1 29 108 1474 0 110 11
1 105 -.00399592288355995 .00693055555555555 .0083 18 110 1472 0 112 107 113 108
 ?1 29 111 1463 0 113 114 108 -.001180932724386752 .00570524691358024 .0073 18 1
13 1461 0 115 110 116 111 ?1 29 114 1460 0 116 117 111 -.00267445662525301 .0067
4228395061728 .0073 18 116 1458 0 118 113 119 114 ?1 29 117 1449 0 119 120 114 .
00267445662525301 .00674228395061728 .0073 18 119 1447 0 121 116 122 117 ?1 29 1
20 1446 0 122 123 117 .001180932724386752 .00570524691358024 .0073 18 122 1444 0
 124 119 125 120 ?1 29 123 1443 0 125 126 120 .00267445662525301 .00674228395061
728 .002 18 125 1441 0 127 122 128 123 ?1 29 126 1440 0 128 129 123 -.0026744566
2525301 .00674228395061728 .002 18 128 1438 0 130 125 131 126 ?1 29 129 1437 0 1
31 132 126 .001180932724387374 .00570524691358046 .00873660268721788 18 131 1435
 0 133 128 134 129 ?1 29 132 1434 0 134 135 129 -.001180932724386564 .0057052469
1358017 .00873660268721722 18 134 1432 0 136 131 137 132 ?1 29 135 1425 0 137 13
8 132 .003929813816698305 -.00696825396825397 .00829710482395185 18 137 1423 0 1
39 134 140 135 ?1 29 138 1416 0 140 141 135 .0039298138166983 .00696825396825397
 .00829710482395185 18 140 1414 0 142 137 143 138 ?1 29 141 1413 0 143 144 138 .
0039298138166983 -.00696825396825396 .002 18 143 1411 0 145 140 146 141 ?1 29 14
4 1410 0 146 147 141 .00399592288355995 .00693055555555555 .0083 18 146 1408 0 1
48 143 149 144 ?1 29 147 1407 0 149 150 144 .00399592288355995 -.006930555555555
55 .0083 18 149 1405 0 151 146 152 147 ?1 29 150 1404 0 152 153 147 .00392981381
66983 .00696825396825397 .002 18 152 1402 0 154 149 155 150 ?1 29 153 245 0 155
 156 150 .00496178160103081 -.00627540622937449 .002 18 155 243 0 157 152 158 15
3 ?1 29 156 232 0 158 159 153 -.00496178160103081 -.00627540622937449 .002 18 15
8 230 0 160 155 161 156 ?1 29 159 226 0 161 162 156 -.00496178160103081 .0062754
0622937449 .002 18 161 224 0 163 158 164 159 ?1 29 162 215 0 164 165 159 .004961
78160103081 .00627540622937449 .002 18 164 213 0 166 161 167 162 ?1 29 165 206 0
 167 168 162 -.00496178160103081 -.00627540622937449 -1209566056376336e-33 18 16
7 204 0 169 164 170 165 ?1 29 168 194 0 170 171 165 .00496178160103081 .00627540
622937449 1209566056376336e-33 18 170 192 0 172 167 173 168 ?1 29 171 566 0 173
 174 168 .00496178160103081 -.00627540622937449 0 18 173 402 0 175 170 176 171 ?
1 29 174 572 0 177 178 171 .004 -.009 0 18 177 408 0 179 180 181 174 ?1 29 178 5
73 0 181 182 174 -.004 -.009 0 18 181 414 0 183 177 184 178 ?1 29 182 575 0 184
 185 178 -.00496178160103081 .00627540622937449 0 18 184 423 0 186 181 187 182 ?
1 29 185 576 0 187 188 182 -.004 .009 0 18 187 412 0 189 184 190 185 ?1 29 188 5
77 0 190 191 185 .004 .009 0 18 190 411 0 192 187 0 188 ?1 29 191 580 0 176 193
 188 .004 -.009 .002 18 176 420 0 194 173 195 191 ?1 29 193 581 0 195 196 191 -.
004 -.009 .002 18 195 413 0 197 176 198 193 ?1 29 196 584 0 198 199 193 -.004 .0
09 .002 18 198 422 0 200 195 180 196 ?1 29 199 585 0 180 0 196 .004 .009 .002 18
 180 421 0 201 198 177 199 ?1 17 201 0 202 200 166 180 203 204 0 205 +15 255 202
 509 0 206 207 208 17 200 0 202 209 201 198 210 211 0 212 +17 166 0 202 201 154
 164 213 214 0 215 +17 203 0 216 217 205 164 201 204 0 0 -16 204 387 0 ?201 211
 218 219 0 0 1 17 205 0 216 203 192 180 220 221 0 210 -15 216 471 0 217 222 0 17
 192 0 216 205 217 190 223 224 0 220 +17 220 0 225 189 210 190 205 221 0 226 +16
 221 352 0 ?220 227 228 229 0 0 1 17 210 0 225 220 212 180 200 211 0 0 -15 225 4
75 0 189 230 0 17 212 0 225 210 189 198 231 228 0 232 -16 211 390 0 ?200 233 204
 234 0 0 1 16 233 382 0 ?209 235 211 236 0 0 1 31 255 234 554 0 211 219 236 0 +0
 .009 .002 0 0 1 1 0 0 .004 30 255 219 555 0 204 237 234 0 +.00638177357641634 .
00225276607247498 .002 -.3328694420173825 .942972923561985 0 30 236 553 0 233 23
4 238 0 +-.00638177357641634 .00225276607247497 .002 -.332869442017381 -.9429729
23561985 0 30 238 551 0 235 236 239 0 +-.00638177357641634 -.00225276607247497 .
002 -.332869442017381 .942972923561985 0 16 235 361 0 ?240 241 233 238 0 0 1 31
 239 550 0 241 238 242 0 -0 -.009 .002 0 0 1 1 0 0 .004 16 241 365 0 ?243 244 23
5 239 0 0 1 30 242 549 0 244 239 245 0 +.00638177357641634 -.00225276607247498 .
002 -.3328694420173825 -.942972923561985 0 16 244 378 0 ?194 246 241 242 0 0 1 3
1 245 548 0 247 242 248 0 -0 -.009 0 0 0 1 1 0 0 .001325 16 247 374 0 ?249 250 2
51 245 0 0 1 31 248 547 0 250 245 252 0 +0 .009 0 0 0 1 1 0 0 .001325 16 250 393
 0 ?253 224 247 248 0 0 1 30 252 545 0 224 248 254 0 +.00638177357641634 .002252
76607247498 0 -.3328694420173825 .942972923561985 0 16 224 346 0 ?192 255 250 25
2 0 0 1 31 254 544 0 255 252 256 0 +0 .009 0 0 0 1 1 0 0 .004 16 255 349 0 ?189
 257 224 254 0 0 1 30 256 543 0 257 254 258 0 +-.00638177357641634 .002252766072
47497 0 -.332869442017381 -.942972923561985 0 16 257 353 0 ?259 260 255 256 0 0
 1 30 258 541 0 260 256 261 0 +-.00638177357641634 -.00225276607247497 0 -.33286
9442017381 .942972923561985 0 16 260 339 0 ?262 263 257 258 0 0 1 31 261 540 0 2
63 258 264 0 -0 -.009 0 0 0 1 1 0 0 .004 16 263 336 0 ?265 266 260 261 0 0 1 30
 264 539 0 266 261 267 0 +.00638177357641634 -.00225276607247498 0 -.33286944201
73825 -.942972923561985 0 16 266 333 0 ?179 268 263 264 0 0 1 30 267 537 0 246 2
64 269 0 +.004 -.009 .002 0 0 -1 16 246 381 0 ?270 271 244 267 0 0 1 30 269 536
 0 271 267 272 0 +-.004 -.009 .002 0 0 -1 16 271 368 0 ?183 273 246 269 0 0 1 30
 272 535 0 273 269 274 0 +-.00496178160103081 -.00627540622937449 .002 0 0 -1 16
 273 364 0 ?275 276 271 272 0 0 1 30 274 534 0 276 272 277 0 +-.0049617816010308
1 .00627540622937449 .002 0 0 -1 16 276 360 0 ?278 228 273 274 0 0 1 30 277 533
 0 228 274 229 0 +-.004 .009 .002 0 0 -1 16 228 356 0 ?231 221 276 277 0 0 1 30
 229 532 0 221 277 279 0 +.004 .009 .002 0 0 -1 31 279 127 0 227 229 280 0 +0 -3
469446951953615e-33 .018 0 -192747052886312e-30 1 0 -1 -192747052886312e-30 .008
 16 227 71 0 ?281 282 221 279 0 0 1 31 280 128 0 282 279 283 0 +0 -2756282856274
26e-32 .0143 0 -192747052886312e-30 1 0 -1 -192747052886312e-30 .008 16 282 73 0
 ?284 285 227 280 0 0 1 31 283 129 0 285 280 286 0 +0 -248635697747686e-32 .0128
9958492358058 0 -192747052886312e-30 1 0 -1 -192747052886312e-30 .006 16 285 79
 0 ?287 288 282 283 0 0 1 31 286 130 0 288 283 289 0 +0 -159980053895639e-32 .00
83 0 -192747052886312e-30 1 0 -1 -192747052886312e-30 .006 16 288 1558 0 ?290 29
1 285 286 291 291 1 31 289 131 0 292 286 293 0 +0 -159980053895639e-32 .0083 0 -
192747052886312e-30 1 0 -1 -192747052886312e-30 .008 16 292 1473 0 ?294 295 291
 289 295 295 1 31 293 132 0 296 289 297 0 +0 0 0 0 -192747052886312e-30 1 0 -1 -
192747052886312e-30 .008 16 296 202 0 ?169 298 295 293 298 298 1 31 297 216 0 29
9 293 300 0 -0 -3854941057726245e-34 .002 0 0 1 1 0 0 .008 16 299 1482 0 ?160 30
1 302 297 214 302 1 30 300 221 0 303 297 304 0 +.00496178160103081 .006275406229
37449 .018 0 -192747052886312e-30 1 16 303 219 0 ?215 302 214 300 0 0 1 30 304 2
50 0 305 300 306 0 +.00496178160103081 -.00627540622937449 .018 0 -1927470528863
12e-30 1 16 305 249 0 ?307 308 301 304 0 0 1 31 306 1123 0 308 304 309 0 +0 -179
25475918427e-31 .0093 0 -192747052886312e-30 1 0 -1 -192747052886312e-30 .006 16
 308 1121 0 ?32 310 305 306 0 0 1 31 309 1136 0 310 306 311 0 +0 -17925475918427
e-31 .0093 0 -192747052886312e-30 1 0 -1 -192747052886312e-30 .006 16 310 1134 0
 ?51 312 308 309 0 0 1 38 311 1342 0 312 309 313 0 +314 315 316 317 318 16 312 1
503 0 ?319 320 310 311 0 0 1 38 313 1343 0 320 311 321 0 +322 323 324 325 326 54
 255 314 1361 0 327 328 322 329 +0 -17925475918427e-31 .0093 0 -192747052886312e
-30 1 .005 .001 0 -1 -192747052886312e-30 51 315 763 0 330 323 331 332 -0 -.009
 .0181994949366117 0 0 -1 .0035 -1 0 0 40 255 12 316 -.001545391176325225 .99276
7397323548 12 .0001445520984121606 .395704509839365 ??.00146084439897776 -.00581
944444444444 .0093 .001422026334587192 -.00580190039183572 .00907184983170054 .0
01313885297261556 -.00575597388641215 .00887252376950681 .001104019422997194 -.0
0567868382811197 .00868051342688997 .00072573764011661 -.00557606879775338 .0085
1785673952197 .0003610896805921545 -.00551867636629829 .0084523005999949 -.00047
2789520846266 -.00553207986410039 .0084663189065481 -.000919701429238247 -.00562
299699717973 .00858362367666599 -.001205155965588142 -.00571402996078672 .008757
00812186821 -.001366748655751372 -.00577788918378001 .00895158375877314 -.001453
055048565654 -.0058158782960072 .0091966821463798 -.00146084439897776 -.00581944
444444444 .0093 41 3 CI8 term_use0 0 1 cCZ1 317 L?.00146084439897776 -.005819444
44444444 .0093 41 1 318 L?-.00146084439897776 -.00581944444444444 .0093 14 255 3
30 748 333 ?334 335 336 4 315 +0 0 334 335 24 51 323 893 0 334 337 315 338 -0 .0
09 .0181994949366117 0 0 -1 .0035 -1 0 0 50 255 331 529 0 207 315 339 0 +0 0 .00
2 0 0 1 1 0 0 141 255 332 311 332 332 315 14 207 1026 340 ?341 12 202 4 331 +342
 342 341 12 24 50 339 527 0 335 331 343 0 +.00638177357641634 -.0022527660724749
8 .002 .942972923561985 -.3328694420173825 0 .3328694420173825 .942972923561985
 0 14 335 500 344 ?330 345 346 4 339 +0 0 330 345 24 51 343 526 0 347 339 348 0
 +0 -.009 .002 0 0 -1 .004 -1 0 0 14 347 488 349 ?345 350 351 4 343 +0 0 345 350
 24 50 348 525 0 350 343 352 0 +-.00638177357641634 -.00225276607247497 .002 -.9
42972923561985 -.332869442017381 0 .332869442017381 -.942972923561985 0 14 350 4
84 353 ?347 342 354 4 348 +0 0 347 342 24 50 352 523 0 355 348 356 0 +-.00638177
357641634 .00225276607247497 .002 .942972923561985 -.332869442017381 0 .33286944
2017381 .942972923561985 0 14 355 476 357 ?222 358 359 4 352 -0 0 222 358 24 51
 356 522 0 230 352 360 0 -0 .009 .002 0 0 -1 .004 -1 0 0 14 230 472 361 ?358 362
 225 4 356 -0 0 358 362 24 50 360 521 0 222 356 363 0 +.00638177357641634 .00225
276607247498 .002 -.942972923561985 -.3328694420173825 0 .3328694420173825 -.942
972923561985 0 14 222 468 364 ?342 355 216 4 360 -0 0 342 355 24 51 363 519 0 35
8 360 365 0 -0 .009 .002 0 0 -1 .001325 -1 0 0 14 358 492 366 ?355 230 367 4 363
 +0 0 355 230 24 51 365 518 0 345 363 368 0 +0 -.009 .002 0 0 -1 .001325 -1 0 0
 14 345 496 369 ?335 347 370 4 365 -0 0 335 347 24 51 368 120 0 362 365 371 0 +0
 -3469446951953615e-33 .018 0 -192747052886312e-30 1 .008 0 -1 -192747052886312e
-30 14 362 76 372 ?230 373 374 4 368 +0 0 230 373 24 52 255 371 121 0 373 368 37
5 0 +0 -275628285627426e-32 .0143 0 -192747052886312e-30 1 .008 .819152044288993
 .573576436351044 0 -1 -192747052886312e-30 14 373 82 376 ?362 377 378 4 371 +0
 0 362 377 24 51 375 122 0 377 371 379 380 +0 -3469446951953615e-33 .018 0 -1927
47052886312e-30 1 .006 0 -1 -192747052886312e-30 14 377 88 381 ?373 382 30 4 375
 +0 0 373 382 24 50 379 123 0 382 375 383 0 +0 260059984774511e-48 .0083 0 -1927
47052886312e-30 1 0 -1 -192747052886312e-30 141 380 384 385 386 375 38 384 1888
 0 387 388 389 0 +390 375 391 392 393 141 385 27 394 380 375 141 386 395 380 394
 375 38 395 1891 0 396 389 397 0 +19 375 398 399 400 141 394 401 386 385 375 38
 401 1896 0 26 402 27 0 +403 375 404 405 406 16 26 1690 0 ?31 9 407 401 0 0 1 38
 402 1895 0 407 397 401 0 +408 322 409 410 411 38 27 1897 0 9 401 412 0 +413 375
 414 415 416 54 403 2026 0 417 418 408 419 +0 .009 .0073 0 -192747052886312e-30
 1 .0045 .001 0 -1 -192747052886312e-30 40 3 404 0 1 3 874195956254752e-19 .3533
21822218474 ??-.001822010489053845 .00571666666666666 .00796706074680905 -.00223
8334798444225 .00556685344966738 .00821580208861269 -.002666341125962695 .005375
 .0083 41 1 405 L?-.001822010489053845 .00571666666666666 .00796706074680905 41
 1 406 L?-.002666341125962695 .005375 .0083 14 417 1995 420 ?421 422 423 4 403 +
0 0 421 422 24 51 418 2027 0 421 424 403 425 +-.00343858708961101 .0060972222222
2222 .0181994949366117 0 -192747052886312e-30 1 .001 0 -1 -192747052886312e-30 5
1 408 2025 0 422 403 426 427 +-.00151834207421154 .00476388888888888 .0181994949
366117 0 -192747052886312e-30 1 .001 0 -1 -192747052886312e-30 141 419 428 429 4
30 403 38 428 2029 0 431 432 433 0 +418 403 434 435 436 141 429 401 437 419 403
 141 430 433 419 437 403 38 433 2028 0 438 428 439 0 +408 403 440 441 442 141 43
7 443 430 429 403 38 443 1487 0 444 445 446 0 +383 403 447 448 449 16 444 1485 0
 ?100 450 451 443 0 0 1 30 445 1469 0 451 452 443 0 --.00267445662525301 .006742
28395061728 .0181994949366117 0 0 -1 30 446 1490 0 450 443 453 0 --.003929813816
6983 .00696825396825396 .018 0 -192747052886312e-30 1 51 383 124 0 341 379 454 4
55 +0 -3469446951953615e-33 .018 0 -192747052886312e-30 1 .008 0 -1 -19274705288
6312e-30 40 2 447 0 1 2 2918637656934565e-21 .0766541066314658 ??-.0039959228835
5995 .00693055555555555 .0083 -.0039298138166983 .00696825396825397 .00829710482
395185 41 1 448 L?-.00399592288355995 .00693055555555555 .0083 41 1 449 L?-.0039
298138166983 .00696825396825397 .00829710482395185 14 341 829 456 ?457 207 458 4
 383 +457 457 457 207 24 50 454 125 0 12 383 328 0 +0 650150499794772e-49 -33730
7621599927e-33 0 192747052886312e-30 -1 0 1 192747052886312e-30 141 455 321 459
 460 383 38 321 1417 0 461 313 462 0 +383 413 463 464 465 141 459 453 466 455 38
3 141 460 467 455 466 383 38 467 1426 0 468 462 469 0 +383 390 470 471 472 141 4
66 443 460 459 383 16 468 1424 0 ?139 473 474 467 0 0 1 30 462 1420 0 474 321 46
7 0 +.0039298138166983 .00696825396825396 .018 0 -192747052886312e-30 1 30 469 1
429 0 473 467 475 0 -.003929813816698305 -.00696825396825397 .018 0 -19274705288
6312e-30 1 54 390 2078 0 476 426 477 478 +0 -.009 .0073 0 -192747052886312e-30 1
 .0045 .001 0 -1 -192747052886312e-30 40 2 470 0 1 2 291863765693432e-20 .076654
1066314648 ??.00399592288355995 -.00693055555555555 .0083 .0039298138166983 -.00
696825396825397 .00829710482395185 41 1 471 L?.00399592288355995 -.0069305555555
5555 .0083 41 1 472 L?.0039298138166983 -.00696825396825397 .00829710482395185 1
4 476 2047 479 ?480 481 482 4 390 +0 0 480 481 24 51 426 2079 0 480 408 390 483
 +.003438587089611015 -.00609722222222222 .0181994949366117 0 -192747052886312e-
30 1 .001 0 -1 -192747052886312e-30 51 477 2077 0 481 390 19 484 +.0015183420742
1154 -.00476388888888889 .0181994949366117 0 -192747052886312e-30 1 .001 0 -1 -1
92747052886312e-30 141 478 439 485 486 390 38 439 2081 0 487 433 488 0 +426 390
 489 490 491 141 485 384 492 478 390 141 486 488 478 492 390 38 488 2080 0 493 4
39 18 0 +477 390 494 495 496 141 492 467 486 485 390 16 493 2058 0 ?497 431 487
 488 0 0 1 38 18 2133 0 498 488 6 0 -19 15 499 500 501 40 3 494 0 1 3 8066173477
51353e-19 .2998219215160835 ??.001822010489053845 -.00571666666666667 .007967060
74680905 .001459154307444792 -.00576213575628451 .0076166691532821 .001184873663
050098 -.00570665016236031 .00730474341352576 41 1 495 L?.001822010489053845 -.0
0571666666666667 .00796706074680905 41 2 496 TF.001180932724386752 -.00570524691
358025 .0073 .001184873663050098 -.00570665016236031 .00730474341352576 16 498 2
117 0 ?97 17 502 18 0 0 1 54 19 2131 0 503 477 15 504 +0 -.009 .0073 0 -19274705
2886312e-30 1 .0045 .001 0 -1 -192747052886312e-30 51 15 2130 0 505 19 5 506 +-.
003438587089611015 -.00609722222222222 .0181994949366117 0 192747052886312e-30 -
1 .001 0 1 192747052886312e-30 40 6 499 0 1 6 .0001038481010603882 .369081094991
376 ??-.003929813816698305 -.00696825396825397 .00829710482395185 -.003683263610
20879 -.00706682698720029 .00824033799949595 -.00344171042141716 -.0070972173446
0954 .00812349572016106 -.00312318662392404 -.0070461808863612 .0078780227427368
1 -.00275716144376797 -.00682910956955609 .00743556338519531 -.00267716180041683
5 -.00674547489593484 .0073047434135258 41 1 500 L?-.003929813816698305 -.006968
25396825397 .00829710482395185 41 2 501 TF-.00267445662525301 -.0067422839506172
8 .0073 -.002677161800416835 -.00674547489593484 .0073047434135258 14 505 2101 5
07 ?508 503 509 4 15 +0 0 508 503 24 141 506 18 506 506 15 81 255 1 507 2770 510
 505 511 0 479 512 513 14 508 2234 512 ?0 505 514 4 337 -0 0 0 505 24 14 503 209
9 515 ?505 14 516 4 19 +0 0 505 14 24 15 509 2102 0 517 505 0 13 24 67 0 0 0 0 0
 0 8 12 14 12 1035 518 ?207 0 519 4 454 +0 0 207 0 24 81 1 518 2773 510 12 520 0
 515 521 522 15 519 2213 0 523 12 524 17 523 0 519 523 523 0 525 526 0 0 -15 524
 954 0 527 12 528 17 527 0 524 527 527 0 249 247 0 0 -15 528 618 0 223 12 529 17
 223 0 528 175 226 170 192 224 0 0 -15 529 285 0 253 12 0 17 253 0 529 253 253 0
 530 250 0 0 +17 530 0 367 530 530 0 253 250 0 0 -15 367 1099 0 530 358 531 15 5
31 495 0 532 358 0 17 532 0 531 532 532 0 533 218 0 0 +17 533 0 208 533 533 0 53
2 218 0 0 -16 218 369 0 ?532 204 268 237 0 0 1 16 268 319 0 ?534 218 266 535 0 0
 1 31 237 557 0 218 535 219 0 +0 .009 .002 0 0 1 1 0 0 .001325 31 535 558 0 268
 536 237 0 -0 -.009 .002 0 0 1 1 0 0 .001325 31 536 772 0 251 537 535 0 +0 -.009
 .002 0 0 1 1 0 0 .0035 16 251 1509 0 ?538 247 539 536 0 0 1 31 537 902 0 539 54
0 536 0 +0 .009 .002 0 0 1 1 0 0 .0035 16 539 1439 0 ?541 251 542 537 0 0 1 31 5
40 2244 0 502 543 537 0 -0 0 .018 0 -192747052886312e-30 1 0 -1 -192747052886312
e-30 .0025 16 502 2225 0 ?544 498 526 540 0 0 1 31 543 2245 0 526 0 540 0 +0 0 0
 0 0 -1 -1 0 0 .0025 16 526 2222 0 ?525 502 0 543 0 0 1 17 525 0 514 525 525 0 5
23 526 0 0 +15 514 2237 0 525 508 545 15 545 2238 0 546 508 0 17 546 0 545 546 5
46 0 544 502 0 0 -17 544 0 547 544 544 0 546 502 0 0 +15 547 2207 0 544 548 549
 14 548 116 521 ?382 550 547 4 328 +0 0 382 550 24 15 549 167 0 281 548 0 17 281
 0 549 281 281 0 551 227 0 0 +17 551 0 552 551 551 0 281 227 0 0 -15 552 75 0 55
1 362 0 81 1 521 2774 510 548 553 0 518 554 555 14 382 94 554 ?377 548 556 4 379
 +550 550 377 548 24 14 550 813 557 ?548 457 558 4 379 +382 382 548 457 24 50 32
8 126 0 548 454 314 0 +0 1486057055854348e-49 .018 0 -192747052886312e-30 1 0 -1
 -192747052886312e-30 81 1 557 2776 510 550 559 0 554 560 561 14 457 825 560 ?55
0 341 562 4 383 +341 341 550 341 24 15 558 811 0 294 550 0 17 294 0 558 62 112 1
07 563 292 0 564 +17 62 0 558 565 294 60 564 566 0 290 +17 112 0 558 294 565 110
 567 568 0 563 +17 563 0 458 100 109 110 294 292 0 569 -17 564 0 516 570 571 107
 62 566 0 0 -15 516 2100 0 564 503 0 17 570 0 516 572 564 95 109 573 0 574 -17 5
71 0 516 564 575 60 576 396 0 0 -16 566 1617 0 ?62 577 568 578 0 0 1 16 577 1622
 0 ?154 579 566 580 0 0 1 16 568 1612 0 ?112 566 581 582 0 0 1 31 578 1619 0 566
 582 580 0 -0 -.009 .0083 0 -192747052886312e-30 1 0 -1 -192747052886312e-30 .00
45 31 582 1614 0 568 583 578 0 -0 .009 .0083 0 -192747052886312e-30 1 0 -1 -1927
47052886312e-30 .0045 31 580 1882 0 577 578 584 0 -.00343858708961101 .006097222
22222222 .002 0 0 1 1 0 0 .001 31 584 1883 0 579 580 585 0 --.00343858708961101
 .00609722222222222 .002 0 0 1 1 0 0 .001 16 579 1630 0 ?130 586 577 584 0 0 1 3
1 585 1884 0 586 584 587 0 -.003438587089611015 -.00609722222222222 .002 0 0 1 1
 0 0 .001 16 586 1638 0 ?88 588 579 585 0 0 1 31 587 1885 0 588 585 388 0 --.003
438587089611015 -.00609722222222222 .002 0 0 1 1 0 0 .001 16 588 1646 0 ?103 589
 586 587 0 0 1 38 388 1887 0 589 587 384 0 +477 314 590 591 592 16 589 1657 0 ?5
93 387 588 388 0 0 1 40 3 590 0 1 3 801553358853773e-19 .3089752224755 ??.001180
932724386752 -.00570524691358025 .00873660268721723 .00156428036870259 -.0057628
3316816539 .00906241441928231 .00181713132626353 -.00571820800892137 .0092953290
0375793 41 1 591 L?.001180932724386752 -.00570524691358025 .00873660268721723 41
 2 592 TF.001822010489053845 -.00571666666666667 .0093 .00181713132626353 -.0057
1820800892137 .00929532900375793 17 593 0 594 54 595 49 596 589 0 597 +16 387 16
61 0 ?70 598 589 384 0 0 1 17 70 0 30 599 48 68 600 387 0 601 +16 598 1665 0 ?91
 396 387 389 0 0 1 17 91 0 594 595 54 89 602 598 0 319 +16 396 1672 0 ?576 603 5
98 395 0 0 1 38 389 1889 0 598 384 395 0 -314 5 604 605 606 40 3 604 0 1 3 80155
3358852205e-19 .3089752224755445 ??-.001180932724386752 -.00570524691358025 .008
73660268721788 -.00156428036870289 -.00576283316816538 .00906241441928257 -.0018
17131326263475 -.00571820800892139 .009295329003758 41 1 605 L?-.001180932724386
752 -.00570524691358025 .00873660268721788 41 2 606 TF-.001822010489053845 -.005
71666666666667 .0093 -.001817131326263475 -.00571820800892139 .009295329003758 1
7 576 0 30 607 290 37 571 396 0 575 +16 603 1676 0 ?133 407 396 397 0 0 1 17 133
 0 608 609 57 131 40 603 0 610 +16 407 1686 0 ?611 26 603 402 0 0 1 38 397 1892
 0 603 395 402 0 -322 424 612 613 614 54 322 1376 0 615 314 413 616 +0 -17925475
918427e-31 .0093 0 -192747052886312e-30 1 .005 .001 0 -1 -192747052886312e-30 51
 424 1973 0 617 618 418 619 +.00151834207421154 .00476388888888888 .018199494936
6117 0 192747052886312e-30 -1 .001 0 1 192747052886312e-30 40 3 612 0 1 3 801553
358852182e-19 .3089752224755455 ??.001180932724386752 .00570524691358024 .008736
60268721788 .00156428036870289 .00576283316816537 .00906241441928257 .0018171313
2626346 .00571820800892139 .00929532900375801 41 1 613 L?.001180932724386752 .00
570524691358024 .00873660268721788 41 2 614 TF.001822010489053845 .0057166666666
6666 .0093 .00181713132626346 .00571820800892139 .00929532900375801 14 617 1941
 620 ?621 615 38 4 424 +0 0 621 615 24 51 618 1974 0 622 413 424 623 +.003438587
08961101 .00609722222222222 .0181994949366117 0 192747052886312e-30 -1 .001 0 1
 192747052886312e-30 141 619 432 624 624 424 38 432 1976 0 542 412 428 0 -413 42
4 625 626 627 141 624 397 619 619 424 16 542 1956 0 ?628 539 629 432 0 0 1 38 41
2 1977 0 629 27 432 0 -413 618 630 631 632 54 413 1975 0 621 322 618 633 +0 .009
 .0073 0 -192747052886312e-30 1 .0045 .001 0 -1 -192747052886312e-30 40 3 625 0
 1 3 806617347751346e-19 .299821921516085 ??.001822010489053845 .005716666666666
66 .00796706074680905 .001459154307444796 .0057621357562845 .0076166691532821 .0
01184873663050596 .00570665016236049 .0073047434135253 41 1 626 L?.0018220104890
53845 .00571666666666666 .00796706074680905 41 2 627 TF.001180932724386752 .0057
0524691358024 .0073 .001184873663050596 .00570665016236049 .0073047434135253 14
 621 1943 634 ?622 617 635 4 413 +0 0 622 617 24 141 633 412 636 637 413 141 636
 27 638 633 413 141 637 432 633 638 413 141 638 321 637 636 413 81 1 634 2779 51
0 621 639 0 620 640 641 14 622 1945 640 ?422 621 642 4 618 +0 0 422 621 24 15 63
5 1944 0 643 621 0 17 643 0 635 644 645 146 67 646 0 0 -17 644 0 635 647 643 140
 148 461 0 648 -17 645 0 635 643 628 65 25 9 0 0 -17 67 0 556 601 649 65 643 646
 0 599 +16 646 1602 0 ?67 581 650 651 0 0 1 16 581 1607 0 ?151 568 646 583 0 0 1
 16 650 1597 0 ?48 646 652 653 0 0 1 31 651 1604 0 646 653 583 0 -0 .009 .0083 0
 -192747052886312e-30 1 0 -1 -192747052886312e-30 .0045 30 653 1599 0 650 654 65
1 0 -.001822010489053845 -.00571666666666667 .018 0 -192747052886312e-30 1 31 58
3 1609 0 581 651 582 0 -0 -.009 .0083 0 -192747052886312e-30 1 0 -1 -19274705288
6312e-30 .0045 30 654 1590 0 652 655 653 0 +-.001822010489053845 -.0057166666666
6667 .018 0 -192747052886312e-30 1 16 652 1588 0 ?607 650 42 654 0 0 1 30 655 15
81 0 42 656 654 0 +.001822010489053845 .00571666666666666 .018 0 -19274705288631
2e-30 1 16 42 1579 0 ?41 652 34 655 0 0 1 30 656 1572 0 34 657 655 0 --.00182201
0489053845 .00571666666666666 .018 0 -192747052886312e-30 1 16 34 1570 0 ?28 42
 658 656 0 0 1 30 657 1539 0 658 659 656 0 -.002674456625253015 -.00674228395061
728 .0181994949366117 0 0 -1 16 658 1537 0 ?76 34 660 657 0 0 1 30 659 1536 0 66
0 661 657 0 -.001180932724386754 -.00570524691358025 .0181994949366117 0 0 -1 16
 660 1535 0 ?94 658 662 659 0 0 1 31 661 1534 0 662 663 659 0 +0 -.009 .0073 0 -
192747052886312e-30 1 0 -1 -192747052886312e-30 .0035 16 662 1532 0 ?73 660 664
 661 0 0 1 30 663 1525 0 664 665 661 0 +-.002674456625253015 -.00674228395061729
 .0181994949366117 0 0 -1 16 664 1523 0 ?85 662 666 663 0 0 1 30 665 1522 0 666
 667 663 0 +-.001180932724386754 -.00570524691358025 .0181994949366117 0 0 -1 16
 666 1521 0 ?82 664 668 665 0 0 1 31 667 1520 0 668 669 665 0 +0 -.009 .0073 0 -
192747052886312e-30 1 0 -1 -192747052886312e-30 .0035 16 668 1518 0 ?79 666 670
 667 0 0 1 30 669 1499 0 670 453 667 0 +-.003929813816698305 -.00696825396825397
 .018 0 -192747052886312e-30 1 16 670 1497 0 ?574 668 573 669 0 0 1 38 453 1496
 0 573 446 669 0 +383 19 671 672 673 16 573 1494 0 ?109 670 450 453 0 0 1 40 2 6
71 0 1 2 2918637656932725e-21 .0766541066314638 ??-.003929813816698305 -.0069682
5396825397 .00829710482395185 -.00399592288355995 -.00693055555555555 .0083 41 1
 672 L?-.003929813816698305 -.00696825396825397 .00829710482395185 41 1 673 L?-.
00399592288355995 -.00693055555555555 .0083 17 109 0 458 563 574 107 570 573 0 2
94 +16 450 1488 0 ?674 573 444 446 0 0 1 17 674 0 458 163 100 104 675 450 0 206
 +15 458 824 0 676 341 0 17 163 0 458 278 674 161 206 302 0 209 -17 100 0 458 67
4 563 98 569 444 0 677 +17 675 0 678 679 106 98 674 450 0 0 -17 206 0 202 130 20
9 104 163 302 0 0 +17 130 0 202 541 206 128 106 579 0 680 +17 209 0 202 206 200
 161 232 233 0 681 +16 302 228 0 ?206 299 303 297 299 301 1 16 301 247 0 ?682 30
5 299 297 302 214 1 17 682 0 683 88 684 143 157 301 0 0 +16 214 1403 0 ?166 303
 298 297 301 299 1 16 298 190 0 ?172 214 296 293 296 296 1 17 172 0 562 215 685
 170 175 298 0 217 +15 562 820 0 139 457 0 17 215 0 562 213 172 164 217 303 0 20
3 +17 685 0 562 172 157 173 307 305 0 686 -17 175 0 528 179 223 173 172 298 0 68
5 -17 217 0 216 192 203 170 215 303 0 223 -17 179 0 528 265 175 177 686 266 0 27
0 +17 265 0 528 262 179 181 687 263 0 0 +17 686 0 346 307 270 173 179 266 0 0 -1
7 270 0 346 686 194 177 688 246 0 687 +15 346 503 0 686 335 0 17 194 0 346 270 3
07 176 684 244 0 688 +17 688 0 351 243 687 176 270 246 0 689 -17 687 0 351 688 1
83 177 265 263 0 0 -15 351 491 0 687 347 0 17 183 0 351 687 243 181 197 271 0 69
0 +17 243 0 351 183 688 195 689 241 0 0 +17 197 0 354 240 690 195 183 271 0 691
 -17 690 0 354 197 275 181 262 260 0 265 -15 354 487 0 690 350 0 17 275 0 354 69
0 240 167 692 273 0 262 +17 262 0 528 186 265 167 690 260 0 0 +17 186 0 528 693
 262 184 169 296 0 278 -17 693 0 528 226 186 187 259 257 0 0 -17 169 0 458 692 2
78 167 186 296 0 275 +17 278 0 458 169 163 184 681 276 0 259 +17 681 0 359 232 2
59 161 278 276 0 0 -17 259 0 359 681 231 184 693 257 0 0 +15 359 479 0 259 355 0
 17 231 0 359 259 232 187 212 228 0 693 +17 232 0 359 231 681 198 209 233 0 0 -1
7 692 0 458 676 169 158 275 273 0 240 -17 676 0 458 574 692 101 160 299 0 694 -1
7 240 0 354 275 197 158 691 235 0 0 +17 691 0 683 689 160 195 240 235 0 243 -15
 683 451 0 682 342 0 17 689 0 683 684 691 176 243 241 0 0 -17 160 0 683 691 103
 158 676 299 0 692 +17 103 0 683 160 538 101 517 588 0 676 +17 538 0 683 103 88
 83 695 251 0 517 +17 517 0 509 696 694 83 103 588 0 0 -17 696 0 509 97 517 77 8
5 664 0 572 -17 694 0 509 517 97 101 574 670 0 0 -17 97 0 509 694 696 95 572 498
 0 570 +17 574 0 458 109 676 95 694 670 0 0 +17 572 0 516 697 570 77 97 498 0 0
 -17 697 0 516 575 572 80 79 668 0 0 -17 575 0 516 571 697 37 698 17 0 0 +17 79
 0 336 85 82 77 697 668 0 696 +15 336 1529 0 695 330 0 17 85 0 336 695 79 83 696
 664 0 538 +17 82 0 336 79 319 80 699 666 0 698 +17 319 0 336 82 94 89 595 312 0
 699 +17 699 0 700 602 698 89 82 666 0 0 -17 698 0 700 699 43 80 575 17 0 697 -1
5 700 2098 0 43 14 0 17 43 0 700 698 602 37 607 652 0 576 -16 17 2112 0 ?575 487
 498 6 0 0 1 16 487 2063 0 ?701 493 17 439 0 0 1 17 701 0 702 703 704 74 705 487
 0 0 +15 702 2050 0 701 480 0 17 703 0 702 145 701 86 76 658 0 0 -17 704 0 702 7
01 145 137 706 473 0 0 -17 705 0 482 707 708 137 701 487 0 704 -15 482 2048 0 49
7 476 0 17 707 0 482 709 705 149 139 468 0 0 -17 708 0 482 705 497 74 73 662 0 7
01 -17 497 0 482 708 600 71 710 493 0 0 +17 73 0 336 94 76 71 708 662 0 711 +17
 94 0 336 319 73 92 711 660 0 595 +17 76 0 336 73 695 74 703 658 0 708 +17 711 0
 712 710 596 71 94 660 0 497 -15 712 2046 0 596 481 0 17 710 0 712 597 711 44 49
7 493 0 600 -17 596 0 712 711 597 92 593 589 0 0 -17 597 0 712 596 710 49 48 650
 0 0 -17 48 0 30 70 51 44 597 650 0 710 +15 30 163 0 51 377 713 17 51 0 30 48 60
7 49 54 310 0 593 +17 607 0 30 51 576 52 43 652 0 602 +17 54 0 594 91 593 52 51
 310 0 607 -15 594 1354 0 54 327 0 14 327 1353 714 ?615 334 594 4 314 +0 0 615 3
34 24 81 1 714 2781 510 327 715 0 640 716 717 14 615 1368 716 ?617 327 608 4 322
 +0 0 617 327 24 14 334 878 718 ?327 330 719 4 323 +0 0 327 330 24 81 1 718 2783
 510 334 720 0 716 721 722 15 719 1459 0 680 334 0 17 680 0 719 118 127 128 541
 539 0 723 -17 118 0 719 115 680 116 723 451 0 724 +17 127 0 719 680 121 125 725
 726 0 541 +17 541 0 202 154 130 125 680 539 0 727 +17 723 0 678 106 679 128 118
 451 0 0 -15 678 1998 0 679 421 0 17 106 0 678 675 723 104 130 579 0 674 -17 679
 0 678 723 675 116 677 431 0 0 +16 451 1467 0 ?118 444 728 445 0 0 1 16 728 1465
 0 ?136 451 729 452 0 0 1 17 136 0 719 610 115 134 730 728 0 609 +16 729 1462 0
 ?115 728 726 731 0 0 1 30 452 1466 0 728 731 445 0 --.001180932724386752 .00570
524691358024 .0181994949366117 0 0 -1 31 731 1464 0 729 732 452 0 +0 .009 .0073
 0 -192747052886312e-30 1 0 -1 -192747052886312e-30 .0035 30 732 1455 0 726 733
 731 0 +.00267445662525301 .00674228395061728 .0181994949366117 0 0 -1 16 726 14
53 0 ?127 729 734 732 0 0 1 30 733 1452 0 734 475 732 0 +.001180932724386752 .00
570524691358024 .0181994949366117 0 0 -1 16 734 1451 0 ?124 726 735 733 0 0 1 31
 475 1450 0 735 469 733 0 +0 .009 .0073 0 -192747052886312e-30 1 0 -1 -192747052
886312e-30 .0035 16 735 1448 0 ?121 734 473 475 0 0 1 17 121 0 719 127 124 119 7
36 735 0 725 +16 473 1427 0 ?706 735 468 469 0 0 1 17 706 0 562 157 139 143 704
 473 0 682 +17 157 0 562 685 706 155 682 301 0 307 -17 139 0 562 706 737 137 707
 468 0 705 +17 737 0 562 139 148 149 649 295 0 707 -17 148 0 562 737 648 146 644
 461 0 649 +17 649 0 556 67 151 146 737 295 0 643 +16 295 1406 0 ?649 296 292 28
9 292 292 1 15 556 93 0 601 382 0 17 151 0 556 649 601 149 709 581 0 737 +17 601
 0 556 151 67 68 599 291 0 709 -17 709 0 482 600 707 68 151 581 0 0 -17 600 0 48
2 497 709 44 70 387 0 0 -17 599 0 30 25 70 65 601 291 0 645 +16 291 1546 0 ?599
 292 288 286 288 288 1 17 25 0 30 41 599 29 645 9 0 628 +17 41 0 30 32 25 55 36
 42 0 40 +17 628 0 635 645 736 29 39 542 0 0 +17 736 0 635 628 647 122 121 735 0
 0 -17 39 0 38 738 36 122 628 542 0 736 -15 38 1942 0 36 617 0 17 738 0 38 40 39
 131 124 734 0 0 -17 40 0 38 36 738 55 133 603 0 0 -17 124 0 719 121 610 122 738
 734 0 39 +17 610 0 719 124 136 131 609 320 0 738 +17 609 0 608 611 133 134 610
 320 0 739 -16 320 1433 0 ?610 461 312 313 0 0 1 16 461 1415 0 ?148 474 320 321
 0 0 1 16 474 1418 0 ?648 468 461 462 0 0 1 17 648 0 562 148 213 140 740 474 0 0
 +17 213 0 562 648 215 152 166 214 0 740 -17 740 0 642 727 142 152 648 474 0 0 -
15 642 1946 0 727 622 0 17 727 0 642 725 740 125 154 577 0 0 -17 142 0 642 740 7
25 140 647 629 0 644 +17 725 0 642 142 727 119 127 726 0 647 -17 647 0 635 736 6
44 119 142 629 0 0 -16 629 1961 0 ?142 542 438 412 0 0 1 16 438 2006 0 ?741 629
 431 433 0 0 1 17 741 0 423 724 742 113 35 438 0 0 +16 431 2011 0 ?679 438 493 4
28 0 0 1 15 423 1996 0 741 417 0 17 724 0 423 677 741 116 115 729 0 679 -17 742
 0 423 741 567 10 31 26 0 0 -17 35 0 743 33 730 10 741 438 0 742 -15 743 1994 0
 739 422 0 17 33 0 743 739 35 58 28 34 0 0 -17 730 0 743 35 739 113 136 728 0 74
1 -17 739 0 743 730 33 134 611 407 0 0 -17 611 0 608 57 609 58 739 407 0 33 +15
 608 1369 0 57 615 0 17 57 0 608 133 611 55 32 308 0 41 -17 32 0 30 28 41 58 57
 308 0 611 +14 422 1993 721 ?417 622 743 4 408 +0 0 417 622 24 81 1 721 2784 510
 422 744 0 718 745 746 80 255 1 510 747 748 9000 1 1 1 1 1 1 1 1 0 FFFFTFTFFFFFF
F1 81 1 744 2656 749 422 0 721 750 751 752 81 1 745 2785 510 421 753 0 721 754 7
55 82 255 1 746 -1848901285 14 421 1997 745 ?481 417 678 4 418 +0 0 481 417 24 8
1 1 753 2658 749 421 0 745 751 756 757 81 1 754 2786 510 481 756 0 745 758 759 8
2 1 755 -1852374693 14 481 2045 754 ?476 421 712 4 477 +0 0 476 421 24 81 1 756
 2659 749 481 0 754 753 760 761 81 1 758 2787 510 480 762 0 754 763 764 82 1 759
 -1843723941 14 480 2049 758 ?14 476 702 4 426 +0 0 14 476 24 81 1 762 2661 749
 480 0 758 760 765 766 81 1 763 2788 510 14 765 0 758 767 768 82 1 764 -18471973
49 14 14 2097 763 ?503 480 700 4 5 +0 0 503 480 24 81 1 765 2662 749 14 0 763 76
2 769 770 81 1 767 2789 510 342 771 0 763 0 772 82 1 768 -1838546597 14 342 446
 767 ?350 222 773 4 331 +207 207 350 222 24 81 1 771 2644 749 342 0 767 774 775
 776 82 1 772 -2036792997 80 1 749 0 777 8001 0 0 0 0 3 5 0 0 0 FFFFTFTFFFFFFF2
 81 1 774 2643 749 222 0 364 778 771 779 81 1 775 2645 749 350 0 353 771 780 781
 83 255 3 776 .792156862745098 .819607843137255 .933333333333333 81 1 353 2758 5
10 350 775 0 349 357 782 81 1 780 2646 749 347 0 349 775 783 784 83 3 781 .79215
6862745098 .819607843137255 .933333333333333 81 1 349 2757 510 347 780 0 344 353
 785 81 1 783 2647 749 345 0 369 780 786 787 83 3 784 .792156862745098 .81960784
3137255 .933333333333333 81 1 369 2763 510 345 783 0 366 372 788 81 1 786 2648 7
49 335 0 344 783 789 790 83 3 787 .792156862745098 .819607843137255 .93333333333
3333 81 1 344 2756 510 335 786 0 340 349 791 81 1 789 2649 749 330 0 333 786 720
 792 83 3 790 .792156862745098 .819607843137255 .933333333333333 81 1 333 2754 5
10 330 789 0 0 340 793 81 1 720 2650 749 334 0 718 789 715 794 83 3 792 .7921568
62745098 .819607843137255 .933333333333333 81 1 715 2651 749 327 0 714 720 795 7
96 83 3 794 .792156862745098 .819607843137255 .933333333333333 81 1 795 2652 749
 615 0 716 715 797 798 83 3 796 .792156862745098 .819607843137255 .9333333333333
33 81 1 716 2782 510 615 795 0 714 718 799 81 1 797 2653 749 617 0 620 795 639 8
00 83 3 798 .792156862745098 .819607843137255 .933333333333333 81 1 620 2778 510
 617 797 0 560 634 801 81 1 639 2654 749 621 0 634 797 750 802 83 3 800 .7921568
62745098 .819607843137255 .933333333333333 81 1 750 2655 749 622 0 640 639 744 8
03 83 3 802 .792156862745098 .819607843137255 .933333333333333 81 1 640 2780 510
 622 750 0 634 714 804 83 3 803 .792156862745098 .819607843137255 .9333333333333
33 82 1 804 -1857552037 81 1 560 2777 510 457 805 0 557 620 806 82 1 801 -185407
8629 81 1 805 2633 749 457 0 560 807 559 808 82 1 806 -1965948581 81 1 807 2632
 749 341 0 456 809 805 810 81 1 559 2634 749 550 0 557 805 553 811 83 3 808 .792
156862745098 .819607843137255 .933333333333333 81 1 553 2635 749 548 0 521 559 8
12 813 83 3 811 .792156862745098 .819607843137255 .933333333333333 81 1 812 2636
 749 382 0 554 553 814 815 83 3 813 .792156862745098 .819607843137255 .933333333
333333 81 1 554 2775 510 382 812 0 521 557 816 81 1 814 2637 749 377 0 381 812 8
17 818 83 3 815 .792156862745098 .819607843137255 .933333333333333 81 1 381 2766
 510 377 814 0 376 420 819 81 1 817 2638 749 373 0 376 814 820 821 83 3 818 .792
156862745098 .819607843137255 .933333333333333 81 1 376 2765 510 373 817 0 372 3
81 822 81 1 820 2639 749 362 0 372 817 823 824 83 3 821 .792156862745098 .819607
843137255 .933333333333333 81 1 372 2764 510 362 820 0 369 376 825 81 1 823 2640
 749 230 0 361 820 826 827 83 3 824 .792156862745098 .819607843137255 .933333333
333333 81 1 361 2760 510 230 823 0 357 364 828 81 1 826 2641 749 358 0 366 823 7
78 829 83 3 827 .792156862745098 .819607843137255 .933333333333333 81 1 366 2762
 510 358 826 0 364 369 830 81 1 778 2642 749 355 0 357 826 774 831 83 3 829 .792
156862745098 .819607843137255 .933333333333333 81 1 357 2759 510 355 778 0 353 3
61 832 83 3 831 .792156862745098 .819607843137255 .933333333333333 82 1 832 -206
1631146 81 1 364 2761 510 222 774 0 361 366 833 82 1 830 -2060517031 82 1 833 -2
061106858 82 1 828 -2061369002 82 1 825 1926168917 82 1 822 1926824277 81 1 420
 2767 510 417 751 0 381 456 834 82 1 819 1927479643 81 1 751 2657 749 417 0 420
 744 753 835 81 1 456 2768 510 341 807 0 420 479 836 82 1 834 -1850736293 81 1 4
79 2769 510 476 760 0 456 507 837 82 1 836 -1965555365 81 1 760 2660 749 476 0 4
79 756 762 838 82 1 837 -1845558949 83 3 838 .792156862745098 .819607843137255 .
933333333333333 83 3 835 .792156862745098 .819607843137255 .933333333333333 82 1
 816 1928135003 81 1 809 2631 749 207 0 340 520 807 839 83 3 810 .79215686274509
8 .819607843137255 .933333333333333 81 1 340 2755 510 207 809 0 333 344 840 81 1
 520 2630 749 12 0 518 0 809 841 83 3 839 .792156862745098 .819607843137255 .933
333333333333 83 3 841 .792156862745098 .819607843137255 .933333333333333 82 1 84
0 -1896152741 82 1 799 -1888878245 82 1 793 -1999896229 82 1 791 -2062352042 82
 1 788 -2060254887 82 1 785 -2062220970 82 1 782 -2062089898 83 3 779 .792156862
745098 .819607843137255 .933333333333333 79 255 15 777 SDL/TYSA_COLOUR15 773 945
 0 534 342 683 17 534 0 773 534 534 0 842 268 0 0 +17 842 0 370 842 842 0 534 26
8 0 0 -15 370 1020 0 842 345 843 15 843 499 0 249 345 0 17 249 0 843 249 249 0 5
27 247 0 0 +81 1 769 2663 749 503 0 515 765 511 844 83 3 770 .792156862745098 .8
19607843137255 .933333333333333 81 1 515 2772 510 503 769 0 512 518 845 81 1 511
 2664 749 505 0 507 769 846 847 83 3 844 .792156862745098 .819607843137255 .9333
33333333333 81 1 846 2665 749 508 0 512 511 0 848 83 3 847 .792156862745098 .819
607843137255 .933333333333333 81 1 512 2771 510 508 846 0 507 515 849 83 3 848 .
792156862745098 .819607843137255 .933333333333333 82 1 849 -1758396067 82 1 845
 -1840381605 83 3 766 .792156862745098 .819607843137255 .933333333333333 83 3 76
1 .792156862745098 .819607843137255 .933333333333333 83 3 757 .792156862745098 .
819607843137255 .933333333333333 83 3 752 .792156862745098 .819607843137255 .933
333333333333 79 14 748 SWEntUnchanged17 567 0 423 742 569 63 112 568 0 0 -17 31
 0 30 290 28 63 742 26 0 565 +17 290 0 30 576 31 60 565 288 0 571 +17 565 0 558
 112 62 63 290 288 0 567 -17 569 0 423 567 677 110 100 444 0 0 -17 677 0 423 569
 724 98 679 431 0 675 -17 115 0 719 136 118 113 724 729 0 730 +17 154 0 202 166
 541 152 727 577 0 213 +17 307 0 346 194 686 155 685 305 0 684 +17 684 0 683 682
 689 155 194 244 0 0 -82 1 722 -1989344933 82 1 717 -1890188965 17 602 0 700 43
 699 52 91 598 0 0 -15 713 87 0 850 377 0 17 850 0 713 850 850 0 287 285 0 0 -17
 287 0 378 287 287 0 850 285 0 0 +15 378 162 0 287 373 851 15 851 81 0 852 373 0
 17 852 0 851 852 852 0 284 282 0 0 -17 284 0 374 284 284 0 852 282 0 0 +15 374
 161 0 284 362 552 17 695 0 336 76 85 86 538 251 0 703 -17 595 0 594 593 91 92 3
19 312 0 596 -17 145 0 702 704 703 143 88 586 0 706 -17 88 0 683 538 682 86 145
 586 0 695 +17 226 0 528 223 693 190 189 255 0 0 -17 189 0 225 212 220 187 226 2
55 0 231 +82 1 641 -1855913637 40 6 630 0 1 6 .000103848101060389 .3690810949913
76 ??.0039298138166983 .00696825396825396 .00829710482395185 .003683263610208785
 .00706682698720028 .00824033799949595 .003441710421417155 .00709721734460954 .0
0812349572016106 .00312318662392404 .0070461808863612 .00787802274273681 .002757
16144376798 .0068291095695561 .0074355633851953 .002677161800417115 .00674547489
593517 .00730474341352542 41 1 631 L?.0039298138166983 .00696825396825396 .00829
710482395185 41 2 632 TF.00267445662525301 .00674228395061728 .0073 .00267716180
0417115 .00674547489593517 .00730474341352542 141 623 412 623 623 618 141 616 31
3 853 854 322 141 853 402 854 616 322 141 854 397 616 853 322 82 1 561 -19671282
29 82 1 555 1930494301 15 208 913 0 533 207 0 82 1 522 -1894645411 51 337 2242 0
 508 0 323 0 +0 0 .0250710678118655 0 0 -1 .0025 -1 0 0 82 1 513 -1842020005 141
 504 18 855 856 19 141 855 395 857 504 19 141 856 6 504 857 19 141 857 453 856 8
55 19 40 6 489 0 1 6 .0001038481010603882 .369081094991376 ??.003929813816698305
 -.00696825396825397 .00829710482395185 .00368326361020879 -.00706682698720029 .
00824033799949595 .00344171042141716 -.00709721734460954 .00812349572016106 .003
12318662392404 -.0070461808863612 .00787802274273681 .00275716144376797 -.006829
10956955609 .00743556338519531 .002677161800416835 -.00674547489593484 .00730474
341352581 41 1 490 L?.003929813816698305 -.00696825396825397 .00829710482395185
 41 2 491 TF.002674456625253015 -.00674228395061728 .0073 .002677161800416835 -.
00674547489593484 .00730474341352581 141 484 488 858 858 477 141 858 388 484 484
 477 141 483 439 483 483 426 40 2 463 0 1 2 2918637656934445e-21 .07665410663146
59 ??.0039298138166983 .00696825396825397 .00829710482395185 .00399592288355995
 .00693055555555555 .0083 41 1 464 L?.0039298138166983 .00696825396825397 .00829
710482395185 41 1 465 L?.00399592288355995 .00693055555555555 .0083 40 3 440 0 1
 3 806617347751346e-19 .299821921516085 ??-.001822010489053845 .0057166666666666
6 .00796706074680905 -.001459154307444796 .0057621357562845 .0076166691532821 -.
001184873663050596 .00570665016236049 .00730474341352529 41 1 441 L?-.0018220104
89053845 .00571666666666666 .00796706074680905 41 2 442 TF-.001180932724386752 .
00570524691358024 .0073 -.001184873663050596 .00570665016236049 .007304743413525
29 40 6 434 0 1 6 .0001038481010603884 .369081094991376 ??-.0039298138166983 .00
696825396825397 .00829710482395185 -.003683263610208785 .00706682698720028 .0082
4033799949595 -.003441710421417155 .00709721734460954 .00812349572016106 -.00312
318662392404 .0070461808863612 .00787802274273681 -.00275716144376798 .006829109
5695561 .0074355633851953 -.00267716180041713 .00674547489593519 .00730474341352
54 41 1 435 L?-.0039298138166983 .00696825396825397 .00829710482395185 41 2 436
 TF-.00267445662525301 .00674228395061728 .0073 -.00267716180041713 .00674547489
593519 .0073047434135254 141 427 433 859 859 408 141 859 402 427 427 408 141 425
 428 425 425 418 40 3 414 0 1 3 981277395022367e-19 .3760372794127675 ??.0026663
41125962695 .005375 .0083 .00220915020119304 .00557849938501105 .008204117197223
86 .001822010489053845 .00571666666666666 .00796706074680905 41 1 415 L?.0026663
41125962695 .005375 .0083 41 1 416 L?.001822010489053845 .00571666666666666 .007
96706074680905 40 3 409 0 1 3 801553358853762e-19 .3089752224755 ??-.00118093272
4386752 .00570524691358024 .00873660268721722 -.00156428036870259 .0057628331681
6539 .00906241441928231 -.00181713132626341 .0057182080089214 .00929532900375807
 41 1 410 L?-.001180932724386752 .00570524691358024 .00873660268721722 41 2 411
 TF-.001822010489053845 .00571666666666666 .0093 -.00181713132626341 .0057182080
089214 .00929532900375807 40 3 398 0 1 3 981277395022367e-19 .3760372794127675 ?
?-.002666341125962695 -.005375 .0083 -.00220915020119304 -.00557849938501106 .00
820411719722386 -.001822010489053845 -.00571666666666667 .00796706074680905 41 1
 399 L?-.002666341125962695 -.005375 .0083 41 1 400 L?-.001822010489053845 -.005
71666666666667 .00796706074680905 40 3 391 0 1 3 87419595625475e-18 .35332182221
84705 ??.001822010489053845 -.00571666666666667 .00796706074680905 .002238334798
444225 -.00556685344966738 .00821580208861269 .002666341125962695 -.005375 .0083
 41 1 392 L?.001822010489053845 -.00571666666666667 .00796706074680905 41 1 393
 L?.002666341125962695 -.005375 .0083 141 338 313 338 338 323 141 329 311 860 86
1 314 141 860 389 861 329 314 141 861 388 329 860 314 40 12 324 -.00154539117632
5195 .992767397323549 12 .0001445520984121576 .395704509839366 ??-.0014608443989
77764 .00581944444444444 .0093 -.001422026334587198 .00580190039183572 .00907184
983170055 -.001313885297261564 .00575597388641214 .00887252376950681 -.001104019
422997206 .00567868382811197 .00868051342688998 -.000725737640116625 .0055760687
9775337 .00851785673952197 -.000361089680592193 .00551867636629829 .008452300599
9949 .000472789520846226 .00553207986410038 .00846631890654809 .0009197014292382
29 .00562299699717972 .00858362367666599 .001205155965588134 .00571402996078671
 .0087570081218682 .001366748655751372 .00577788918378001 .00895158375877313 .00
145305504856566 .0058158782960072 .00919668214637979 .001460844398977766 .005819
44444444444 .0093 41 1 325 L?-.001460844398977764 .00581944444444444 .0093 41 1
 326 L?.001460844398977766 .00581944444444444 .0093 19 13 63 0 1 0 8 4 S0 40 3 2
0 0 1 3 806617347751353e-19 .2998219215160835 ??-.001822010489053845 -.005716666
66666667 .00796706074680905 -.001459154307444792 -.00576213575628451 .0076166691
532821 -.001184873663050098 -.00570665016236031 .00730474341352576 41 1 21 L?-.0
01822010489053845 -.00571666666666667 .00796706074680905 41 2 22 TF-.00118093272
4386752 -.00570524691358025 .0073 -.001184873663050098 -.00570665016236031 .0073
0474341352576 141 16 6 862 862 5 141 862 389 16 16 5 74 4 CI16 index_map_offset0
 0 1 dCCZ20 11 2 0 0 767 846 0 0 0 0 0 0 0 0 0 0 0 0 0 0 0 0 0 0 1 0 
