  0
SECTION
  2
HEADER
  9
$ACADVER
  1
AC1021
  9
$ACADMAINTVER
 70
    25
  9
$DWGCODEPAGE
  3
ANSI_1252
  9
$LASTSAVEDBY
  1
eclsnowman
  9
$INSBASE
 10
0.0
 20
0.0
 30
0.0
  9
$EXTMIN
 10
-14.29586617926006
 20
-8.937007874000004
 30
0.0
  9
$EXTMAX
 10
13.0235362466882
 20
13.06604387025222
 30
0.0
  9
$LIMMIN
 10
0.0
 20
0.0
  9
$LIMMAX
 10
12.0
 20
9.0
  9
$ORTHOMODE
 70
     0
  9
$REGENMODE
 70
     1
  9
$FILLMODE
 70
     1
  9
$QTEXTMODE
 70
     0
  9
$MIRRTEXT
 70
     1
  9
$LTSCALE
 40
1.0
  9
$ATTMODE
 70
     1
  9
$TEXTSIZE
 40
0.1377952756
  9
$TRACEWID
 40
0.05
  9
$TEXTSTYLE
  7
Standard
  9
$CLAYER
  8
0
  9
$CELTYPE
  6
ByBlock
  9
$CECOLOR
 62
     1
  9
$CELTSCALE
 40
1.0
  9
$DISPSILH
 70
     0
  9
$DIMSCALE
 40
1.0
  9
$DIMASZ
 40
0.3
  9
$DIMEXO
 40
0.0393700787
  9
$DIMDLI
 40
0.38
  9
$DIMRND
 40
0.0
  9
$DIMDLE
 40
0.0
  9
$DIMEXE
 40
0.0393700787
  9
$DIMTP
 40
0.0
  9
$DIMTM
 40
0.0
  9
$DIMTXT
 40
0.4
  9
$DIMCEN
 40
0.09
  9
$DIMTSZ
 40
0.0
  9
$DIMTOL
 70
     0
  9
$DIMLIM
 70
     0
  9
$DIMTIH
 70
     1
  9
$DIMTOH
 70
     1
  9
$DIMSE1
 70
     0
  9
$DIMSE2
 70
     0
  9
$DIMTAD
 70
     1
  9
$DIMZIN
 70
     0
  9
$DIMBLK
  1

  9
$DIMASO
 70
     1
  9
$DIMSHO
 70
     1
  9
$DIMPOST
  1
in
  9
$DIMAPOST
  1
<>mm
  9
$DIMALT
 70
     1
  9
$DIMALTD
 70
     2
  9
$DIMALTF
 40
25.4
  9
$DIMLFAC
 40
1.0
  9
$DIMTOFL
 70
     0
  9
$DIMTVP
 40
0.0
  9
$DIMTIX
 70
     0
  9
$DIMSOXD
 70
     0
  9
$DIMSAH
 70
     0
  9
$DIMBLK1
  1

  9
$DIMBLK2
  1

  9
$DIMSTYLE
  2
Standard
  9
$DIMCLRD
 70
     0
  9
$DIMCLRE
 70
     0
  9
$DIMCLRT
 70
     0
  9
$DIMTFAC
 40
1.0
  9
$DIMGAP
 40
0.06
  9
$DIMJUST
 70
     0
  9
$DIMSD1
 70
     0
  9
$DIMSD2
 70
     0
  9
$DIMTOLJ
 70
     1
  9
$DIMTZIN
 70
     0
  9
$DIMALTZ
 70
     0
  9
$DIMALTTZ
 70
     0
  9
$DIMUPT
 70
     0
  9
$DIMDEC
 70
     2
  9
$DIMTDEC
 70
     2
  9
$DIMALTU
 70
     2
  9
$DIMALTTD
 70
     2
  9
$DIMTXSTY
  7
Standard
  9
$DIMAUNIT
 70
     0
  9
$DIMADEC
 70
     2
  9
$DIMALTRND
 40
0.0
  9
$DIMAZIN
 70
     0
  9
$DIMDSEP
 70
    46
  9
$DIMATFIT
 70
     3
  9
$DIMFRAC
 70
     0
  9
$DIMLDRBLK
  1

  9
$DIMLUNIT
 70
     2
  9
$DIMLWD
 70
    -2
  9
$DIMLWE
 70
    -2
  9
$DIMTMOVE
 70
     0
  9
$DIMFXL
 40
1.0
  9
$DIMFXLON
 70
     0
  9
$DIMJOGANG
 40
0.7853981633974483
  9
$DIMTFILL
 70
     0
  9
$DIMTFILLCLR
 70
     0
  9
$DIMARCSYM
 70
     0
  9
$DIMLTYPE
  6

  9
$DIMLTEX1
  6

  9
$DIMLTEX2
  6

  9
$LUNITS
 70
     2
  9
$LUPREC
 70
     2
  9
$SKETCHINC
 40
0.1
  9
$FILLETRAD
 40
0.5
  9
$AUNITS
 70
     0
  9
$AUPREC
 70
     2
  9
$MENU
  1
.
  9
$ELEVATION
 40
0.0
  9
$PELEVATION
 40
0.0
  9
$THICKNESS
 40
0.0
  9
$LIMCHECK
 70
     0
  9
$CHAMFERA
 40
0.0
  9
$CHAMFERB
 40
0.0
  9
$CHAMFERC
 40
0.0
  9
$CHAMFERD
 40
0.0
  9
$SKPOLY
 70
     0
  9
$TDCREATE
 40
2457069.829583449
  9
$TDUCREATE
 40
2457070.079583449
  9
$TDUPDATE
 40
2457069.840420116
  9
$TDUUPDATE
 40
2457070.090420116
  9
$TDINDWG
 40
0.0099479051
  9
$TDUSRTIMER
 40
2457070.080472303
  9
$USRTIMER
 70
     1
  9
$ANGBASE
 50
0.0
  9
$ANGDIR
 70
     0
  9
$PDMODE
 70
     0
  9
$PDSIZE
 40
-1.0
  9
$PLINEWID
 40
0.0
  9
$SPLFRAME
 70
     0
  9
$SPLINETYPE
 70
     6
  9
$SPLINESEGS
 70
     8
  9
$HANDSEED
  5
1ED
  9
$SURFTAB1
 70
     6
  9
$SURFTAB2
 70
     6
  9
$SURFTYPE
 70
     6
  9
$SURFU
 70
     6
  9
$SURFV
 70
     6
  9
$UCSBASE
  2

  9
$UCSNAME
  2

  9
$UCSORG
 10
0.0
 20
0.0
 30
0.0
  9
$UCSXDIR
 10
1.0
 20
0.0
 30
0.0
  9
$UCSYDIR
 10
0.0
 20
1.0
 30
0.0
  9
$UCSORTHOREF
  2

  9
$UCSORTHOVIEW
 70
     0
  9
$UCSORGTOP
 10
0.0
 20
0.0
 30
0.0
  9
$UCSORGBOTTOM
 10
0.0
 20
0.0
 30
0.0
  9
$UCSORGLEFT
 10
0.0
 20
0.0
 30
0.0
  9
$UCSORGRIGHT
 10
0.0
 20
0.0
 30
0.0
  9
$UCSORGFRONT
 10
0.0
 20
0.0
 30
0.0
  9
$UCSORGBACK
 10
0.0
 20
0.0
 30
0.0
  9
$PUCSBASE
  2

  9
$PUCSNAME
  2

  9
$PUCSORG
 10
0.0
 20
0.0
 30
0.0
  9
$PUCSXDIR
 10
1.0
 20
0.0
 30
0.0
  9
$PUCSYDIR
 10
0.0
 20
1.0
 30
0.0
  9
$PUCSORTHOREF
  2

  9
$PUCSORTHOVIEW
 70
     0
  9
$PUCSORGTOP
 10
0.0
 20
0.0
 30
0.0
  9
$PUCSORGBOTTOM
 10
0.0
 20
0.0
 30
0.0
  9
$PUCSORGLEFT
 10
0.0
 20
0.0
 30
0.0
  9
$PUCSORGRIGHT
 10
0.0
 20
0.0
 30
0.0
  9
$PUCSORGFRONT
 10
0.0
 20
0.0
 30
0.0
  9
$PUCSORGBACK
 10
0.0
 20
0.0
 30
0.0
  9
$USERI1
 70
     0
  9
$USERI2
 70
     0
  9
$USERI3
 70
     0
  9
$USERI4
 70
     0
  9
$USERI5
 70
     0
  9
$USERR1
 40
0.0
  9
$USERR2
 40
0.0
  9
$USERR3
 40
0.0
  9
$USERR4
 40
0.0
  9
$USERR5
 40
0.0
  9
$WORLDVIEW
 70
     1
  9
$SHADEDGE
 70
     3
  9
$SHADEDIF
 70
    70
  9
$TILEMODE
 70
     1
  9
$MAXACTVP
 70
    64
  9
$PINSBASE
 10
0.0
 20
0.0
 30
0.0
  9
$PLIMCHECK
 70
     0
  9
$PEXTMIN
 10
1.000000000000000E+20
 20
1.000000000000000E+20
 30
1.000000000000000E+20
  9
$PEXTMAX
 10
-1.000000000000000E+20
 20
-1.000000000000000E+20
 30
-1.000000000000000E+20
  9
$PLIMMIN
 10
0.0
 20
0.0
  9
$PLIMMAX
 10
0.0
 20
0.0
  9
$UNITMODE
 70
     0
  9
$VISRETAIN
 70
     1
  9
$PLINEGEN
 70
     0
  9
$PSLTSCALE
 70
     1
  9
$TREEDEPTH
 70
  3020
  9
$CMLSTYLE
  2
Standard
  9
$CMLJUST
 70
     0
  9
$CMLSCALE
 40
1.0
  9
$PROXYGRAPHICS
 70
     1
  9
$MEASUREMENT
 70
     0
  9
$CELWEIGHT
370
    -1
  9
$ENDCAPS
280
     0
  9
$JOINSTYLE
280
     0
  9
$LWDISPLAY
290
     1
  9
$INSUNITS
 70
     4
  9
$HYPERLINKBASE
  1

  9
$STYLESHEET
  1

  9
$XEDIT
290
     1
  9
$CEPSNTYPE
380
     0
  9
$PSTYLEMODE
290
     1
  9
$FINGERPRINTGUID
  2
{B67F3CE1-D076-4A53-90B5-350C92F9ED4A}
  9
$VERSIONGUID
  2
{FAEB1C32-E019-11D5-929B-00C0DF256EC4}
  9
$EXTNAMES
290
     1
  9
$PSVPSCALE
 40
0.0
  9
$OLESTARTUP
290
     0
  9
$SORTENTS
280
   127
  9
$INDEXCTL
280
     0
  9
$HIDETEXT
280
     1
  9
$XCLIPFRAME
290
     0
  9
$HALOGAP
280
     0
  9
$OBSCOLOR
 70
   257
  9
$OBSLTYPE
280
     0
  9
$INTERSECTIONDISPLAY
280
     0
  9
$INTERSECTIONCOLOR
 70
   257
  9
$DIMASSOC
280
     2
  9
$PROJECTNAME
  1

  9
$CAMERADISPLAY
290
     0
  9
$LENSLENGTH
 40
50.0
  9
$CAMERAHEIGHT
 40
0.0
  9
$STEPSPERSEC
 40
2.0
  9
$STEPSIZE
 40
6.0
  9
$3DDWFPREC
 40
2.0
  9
$PSOLWIDTH
 40
0.25
  9
$PSOLHEIGHT
 40
4.0
  9
$LOFTANG1
 40
1.570796326794897
  9
$LOFTANG2
 40
1.570796326794897
  9
$LOFTMAG1
 40
0.0
  9
$LOFTMAG2
 40
0.0
  9
$LOFTPARAM
 70
     7
  9
$LOFTNORMALS
280
     1
  9
$LATITUDE
 40
37.795
  9
$LONGITUDE
 40
-122.394
  9
$NORTHDIRECTION
 40
0.0
  9
$TIMEZONE
 70
 -8000
  9
$LIGHTGLYPHDISPLAY
280
     1
  9
$TILEMODELIGHTSYNCH
280
     1
  9
$SOLIDHIST
280
     0
  9
$SHOWHIST
280
     1
  9
$DWFFRAME
280
     2
  9
$DGNFRAME
280
     2
  9
$REALWORLDSCALE
290
     1
  9
$INTERFERECOLOR
 62
   256
  9
$CSHADOW
280
     0
  9
$SHADOWPLANELOCATION
 40
0.0
  0
ENDSEC
  0
SECTION
  2
CLASSES
  0
CLASS
  1
ACDBDICTIONARYWDFLT
  2
AcDbDictionaryWithDefault
  3
ObjectDBX Classes
 90
        0
 91
        4
280
     0
281
     0
  0
CLASS
  1
VISUALSTYLE
  2
AcDbVisualStyle
  3
ObjectDBX Classes
 90
     4095
 91
        4
280
     0
281
     0
  0
CLASS
  1
MATERIAL
  2
AcDbMaterial
  3
ObjectDBX Classes
 90
     1153
 91
        4
280
     0
281
     0
  0
CLASS
  1
SCALE
  2
AcDbScale
  3
ObjectDBX Classes
 90
     1153
 91
        4
280
     0
281
     0
  0
CLASS
  1
SUN
  2
AcDbSun
  3
SCENEOE
 90
     1153
 91
        4
280
     0
281
     0
  0
CLASS
  1
ACDBPLACEHOLDER
  2
AcDbPlaceHolder
  3
ObjectDBX Classes
 90
        0
 91
        1
280
     0
281
     0
  0
CLASS
  1
LAYOUT
  2
AcDbLayout
  3
ObjectDBX Classes
 90
        0
 91
        1
280
     0
281
     0
  0
CLASS
  1
TABLESTYLE
  2
AcDbTableStyle
  3
ObjectDBX Classes
 90
     4095
 91
        4
280
     0
281
     0
  0
CLASS
  1
MLEADERSTYLE
  2
AcDbMLeaderStyle
  3
ACDB_MLEADERSTYLE_CLASS
 90
     4095
 91
        4
280
     0
281
     0
  0
CLASS
  1
RASTERVARIABLES
  2
AcDbRasterVariables
  3
ISM
 90
        0
 91
        4
280
     0
281
     0
  0
CLASS
  1
DIMASSOC
  2
AcDbDimAssoc
  3
"AcDbDimAssoc|Product Desc:     AcDim ARX App For Dimension|Company:          Autodesk, Inc.|WEB Address:      www.autodesk.com"
 90
        0
 91
        4
280
     0
281
     0
  0
CLASS
  1
DICTIONARYVAR
  2
AcDbDictionaryVar
  3
ObjectDBX Classes
 90
        0
 91
        4
280
     0
281
     0
  0
CLASS
  1
CELLSTYLEMAP
  2
AcDbCellStyleMap
  3
ObjectDBX Classes
 90
     1152
 91
        4
280
     0
281
     0
  0
ENDSEC
  0
SECTION
  2
TABLES
  0
TABLE
  2
VPORT
  5
8
330
0
100
AcDbSymbolTable
 70
     1
  0
VPORT
  5
29
330
8
100
AcDbSymbolTableRecord
100
AcDbViewportTableRecord
  2
*Active
 70
     0
 10
0.0
 20
0.0
 11
1.0
 21
1.0
 12
-0.6361649662859268
 22
2.064517998126105
 13
0.0
 23
0.0
 14
0.5
 24
0.5
 15
0.5
 25
0.5
 16
0.0
 26
0.0
 36
1.0
 17
0.0
 27
0.0
 37
0.0
 40
22.44311277913726
 41
1.822429906542056
 42
50.0
 43
0.0
 44
0.0
 50
0.0
 51
0.0
 71
    16
 72
   100
 73
     1
 74
     3
 75
     0
 76
     0
 77
     0
 78
     0
281
     0
 65
     1
110
0.0
120
0.0
130
0.0
111
1.0
121
0.0
131
0.0
112
0.0
122
1.0
132
0.0
 79
     0
146
0.0
348
C4
 60
     3
 61
     5
292
     1
282
     1
141
0.0
142
0.0
 63
   250
361
E1
  0
ENDTAB
  0
TABLE
  2
LTYPE
  5
5
330
0
100
AcDbSymbolTable
 70
     6
  0
LTYPE
  5
14
330
5
100
AcDbSymbolTableRecord
100
AcDbLinetypeTableRecord
  2
ByBlock
 70
     0
  3

 72
    65
 73
     0
 40
0.0
  0
LTYPE
  5
15
330
5
100
AcDbSymbolTableRecord
100
AcDbLinetypeTableRecord
  2
ByLayer
 70
     0
  3

 72
    65
 73
     0
 40
0.0
  0
LTYPE
  5
16
330
5
100
AcDbSymbolTableRecord
100
AcDbLinetypeTableRecord
  2
Continuous
 70
     0
  3
Solid line
 72
    65
 73
     0
 40
0.0
  0
LTYPE
  5
6A
330
5
100
AcDbSymbolTableRecord
100
AcDbLinetypeTableRecord
  2
HIDDEN
 70
     0
  3
Hidden __ __ __ __ __ __ __ __ __ __ __ __ __ __
 72
    65
 73
     2
 40
0.075
 49
0.05
 74
     0
 49
-0.025
 74
     0
  0
LTYPE
  5
6B
330
5
100
AcDbSymbolTableRecord
100
AcDbLinetypeTableRecord
  2
PHANTOM
 70
     0
  3
Phantom ______  __  __  ______  __  __  ______
 72
    65
 73
     6
 40
0.5
 49
0.25
 74
     0
 49
-0.05
 74
     0
 49
0.05
 74
     0
 49
-0.05
 74
     0
 49
0.05
 74
     0
 49
-0.05
 74
     0
  0
LTYPE
  5
6C
330
5
100
AcDbSymbolTableRecord
100
AcDbLinetypeTableRecord
  2
CENTER
 70
     0
  3
Center ____ _ ____ _ ____ _ ____ _ ____ _ ____
 72
    65
 73
     4
 40
0.4
 49
0.25
 74
     0
 49
-0.05
 74
     0
 49
0.05
 74
     0
 49
-0.05
 74
     0
  0
LTYPE
  5
6D
330
5
100
AcDbSymbolTableRecord
100
AcDbLinetypeTableRecord
  2
CENTERX2
 70
     0
  3
Center (2x) ________  __  ________  __  _____
 72
    65
 73
     4
 40
0.8
 49
0.5
 74
     0
 49
-0.1
 74
     0
 49
0.1
 74
     0
 49
-0.1
 74
     0
  0
LTYPE
  5
6E
330
5
100
AcDbSymbolTableRecord
100
AcDbLinetypeTableRecord
  2
DOT2
 70
     0
  3
Dot (.5x) ........................................
 72
    65
 73
     2
 40
0.025
 49
0.0
 74
     0
 49
-0.025
 74
     0
  0
ENDTAB
  0
TABLE
  2
LAYER
  5
2
330
0
100
AcDbSymbolTable
 70
     2
  0
LAYER
  5
10
330
2
100
AcDbSymbolTableRecord
100
AcDbLayerTableRecord
  2
0
 70
     0
 62
     7
  6
Continuous
370
    -3
390
F
347
DB
  0
LAYER
  5
E3
330
2
100
AcDbSymbolTableRecord
100
AcDbLayerTableRecord
  2
Defpoints
 70
     0
 62
     7
  6
Continuous
290
     0
370
    -3
390
F
347
DB
  0
ENDTAB
  0
TABLE
  2
STYLE
  5
3
330
0
100
AcDbSymbolTable
 70
     1
  0
STYLE
  5
11
330
3
100
AcDbSymbolTableRecord
100
AcDbTextStyleTableRecord
  2
Standard
 70
     0
 40
0.0
 41
1.0
 50
0.0
 71
     0
 42
0.1377952756
  3
txt
  4

  0
ENDTAB
  0
TABLE
  2
VIEW
  5
6
330
0
100
AcDbSymbolTable
 70
     0
  0
ENDTAB
  0
TABLE
  2
UCS
  5
7
330
0
100
AcDbSymbolTable
 70
     0
  0
ENDTAB
  0
TABLE
  2
APPID
  5
9
330
0
100
AcDbSymbolTable
 70
     3
  0
APPID
  5
12
330
9
100
AcDbSymbolTableRecord
100
AcDbRegAppTableRecord
  2
ACAD
 70
     0
  0
APPID
  5
185
330
9
100
AcDbSymbolTableRecord
100
AcDbRegAppTableRecord
  2
ACAD_DSTYLE_DIMRADIAL_EXTENSION
 70
     0
  0
APPID
  5
1E6
330
9
100
AcDbSymbolTableRecord
100
AcDbRegAppTableRecord
  2
ACAD_MLEADERVER
 70
     0
  0
ENDTAB
  0
TABLE
  2
DIMSTYLE
  5
A
330
0
100
AcDbSymbolTable
 70
     1
100
AcDbDimStyleTable
  0
DIMSTYLE
105
27
102
{ACAD_REACTORS
330
F4
330
122
330
132
330
141
330
154
330
164
330
174
330
186
330
194
330
1A3
330
1B6
330
1C4
330
1D3
102
}
330
A
100
AcDbSymbolTableRecord
100
AcDbDimStyleTableRecord
  2
Standard
 70
     0
178
     0
340
11
  0
ENDTAB
  0
TABLE
  2
BLOCK_RECORD
  5
1
330
0
100
AcDbSymbolTable
 70
    17
  0
BLOCK_RECORD
  5
1F
330
1
100
AcDbSymbolTableRecord
100
AcDbBlockTableRecord
  2
*Model_Space
340
22
 70
     0
280
     1
281
     0
  0
BLOCK_RECORD
  5
1B
330
1
100
AcDbSymbolTableRecord
100
AcDbBlockTableRecord
  2
*Paper_Space
340
1E
 70
     0
280
     1
281
     0
  0
BLOCK_RECORD
  5
23
330
1
100
AcDbSymbolTableRecord
100
AcDbBlockTableRecord
  2
*Paper_Space0
340
26
 70
     0
280
     1
281
     0
  0
BLOCK_RECORD
  5
E7
330
1
100
AcDbSymbolTableRecord
100
AcDbBlockTableRecord
  2
*D1
340
0
 70
     0
280
     1
281
     0
  0
BLOCK_RECORD
  5
F7
330
1
100
AcDbSymbolTableRecord
100
AcDbBlockTableRecord
  2
*D2
340
0
 70
     0
280
     1
281
     0
  0
BLOCK_RECORD
  5
107
330
1
100
AcDbSymbolTableRecord
100
AcDbBlockTableRecord
  2
*D3
340
0
 70
     0
280
     1
281
     0
  0
BLOCK_RECORD
  5
116
330
1
100
AcDbSymbolTableRecord
100
AcDbBlockTableRecord
  2
*D4
340
0
 70
     0
280
     1
281
     0
  0
BLOCK_RECORD
  5
125
330
1
100
AcDbSymbolTableRecord
100
AcDbBlockTableRecord
  2
*D5
340
0
 70
     0
280
     1
281
     0
  0
BLOCK_RECORD
  5
135
330
1
100
AcDbSymbolTableRecord
100
AcDbBlockTableRecord
  2
*D6
340
0
 70
     0
280
     1
281
     0
  0
BLOCK_RECORD
  5
144
330
1
100
AcDbSymbolTableRecord
100
AcDbBlockTableRecord
  2
*D7
340
0
 70
     0
280
     1
281
     0
  0
BLOCK_RECORD
  5
157
330
1
100
AcDbSymbolTableRecord
100
AcDbBlockTableRecord
  2
*D8
340
0
 70
     0
280
     1
281
     0
  0
BLOCK_RECORD
  5
167
330
1
100
AcDbSymbolTableRecord
100
AcDbBlockTableRecord
  2
*D9
340
0
 70
     0
280
     1
281
     0
  0
BLOCK_RECORD
  5
177
330
1
100
AcDbSymbolTableRecord
100
AcDbBlockTableRecord
  2
*D10
340
0
 70
     0
280
     1
281
     0
  0
BLOCK_RECORD
  5
189
330
1
100
AcDbSymbolTableRecord
100
AcDbBlockTableRecord
  2
*D11
340
0
 70
     0
280
     1
281
     0
  0
BLOCK_RECORD
  5
197
330
1
100
AcDbSymbolTableRecord
100
AcDbBlockTableRecord
  2
*D12
340
0
 70
     0
280
     1
281
     0
  0
BLOCK_RECORD
  5
1A6
330
1
100
AcDbSymbolTableRecord
100
AcDbBlockTableRecord
  2
*D13
340
0
 70
     0
280
     1
281
     0
  0
BLOCK_RECORD
  5
1B9
330
1
100
AcDbSymbolTableRecord
100
AcDbBlockTableRecord
  2
*D14
340
0
 70
     0
280
     1
281
     0
  0
BLOCK_RECORD
  5
1C7
330
1
100
AcDbSymbolTableRecord
100
AcDbBlockTableRecord
  2
*D15
340
0
 70
     0
280
     1
281
     0
  0
BLOCK_RECORD
  5
1D6
330
1
100
AcDbSymbolTableRecord
100
AcDbBlockTableRecord
  2
*D16
340
0
 70
     0
280
     1
281
     0
  0
ENDTAB
  0
ENDSEC
  0
SECTION
  2
BLOCKS
  0
BLOCK
  5
20
330
1F
100
AcDbEntity
  8
0
100
AcDbBlockBegin
  2
*Model_Space
 70
     0
 10
0.0
 20
0.0
 30
0.0
  3
*Model_Space
  1
*Model_Space
  0
ENDBLK
  5
21
330
1F
100
AcDbEntity
  8
0
100
AcDbBlockEnd
  0
BLOCK
  5
1C
330
1B
100
AcDbEntity
 67
     1
  8
0
100
AcDbBlockBegin
  2
*Paper_Space
 70
     0
 10
0.0
 20
0.0
 30
0.0
  3
*Paper_Space
  1
*Paper_Space
  0
ENDBLK
  5
1D
330
1B
100
AcDbEntity
 67
     1
  8
0
100
AcDbBlockEnd
  0
BLOCK
  5
24
330
23
100
AcDbEntity
  8
0
100
AcDbBlockBegin
  2
*Paper_Space0
 70
     0
 10
0.0
 20
0.0
 30
0.0
  3
*Paper_Space0
  1
*Paper_Space0
  0
ENDBLK
  5
25
330
23
100
AcDbEntity
  8
0
100
AcDbBlockEnd
  0
BLOCK
  5
E8
330
E7
100
AcDbEntity
  8
0
100
AcDbBlockBegin
  2
*D1
 70
     1
 10
0.0
 20
0.0
 30
0.0
  3
*D1
  1
*D1
  0
LINE
  5
EA
330
E7
100
AcDbEntity
  8
0
 62
     0
370
    -2
100
AcDbLine
 10
9.0482283464
 20
8.937007874000004
 30
0.0
 11
13.31143454435256
 21
8.937007874000003
 31
0.0
  0
LINE
  5
EB
330
E7
100
AcDbEntity
  8
0
 62
     0
370
    -2
100
AcDbLine
 10
9.0482283464
 20
-8.937007874000003
 30
0.0
 11
13.31143454435256
 21
-8.937007874000003
 31
0.0
  0
LINE
  5
EC
330
E7
100
AcDbEntity
  8
0
 62
     0
370
    -2
100
AcDbLine
 10
13.27206446565256
 20
8.807007874000002
 30
0.0
 11
13.27206446565256
 21
0.3100000000000005
 31
0.0
  0
LINE
  5
ED
330
E7
100
AcDbEntity
  8
0
 62
     0
370
    -2
100
AcDbLine
 10
13.27206446565256
 20
-8.807007874000002
 30
0.0
 11
13.27206446565256
 21
-0.3100000000000005
 31
0.0
  0
SOLID
  5
EE
330
E7
100
AcDbEntity
  8
0
 62
     0
100
AcDbTrace
 10
13.29373113231923
 20
8.807007874000002
 30
0.0
 11
13.2503977989859
 21
8.807007874000002
 31
0.0
 12
13.27206446565256
 22
8.937007874000003
 32
0.0
 13
13.27206446565256
 23
8.937007874000003
 33
0.0
  0
SOLID
  5
EF
330
E7
100
AcDbEntity
  8
0
 62
     0
100
AcDbTrace
 10
13.2503977989859
 20
-8.807007874000002
 30
0.0
 11
13.29373113231923
 21
-8.807007874000002
 31
0.0
 12
13.27206446565256
 22
-8.937007874000003
 32
0.0
 13
13.27206446565256
 23
-8.937007874000003
 33
0.0
  0
MTEXT
  5
F0
330
E7
100
AcDbEntity
  8
0
 62
     0
100
AcDbMText
 10
13.27206446565256
 20
0.0
 30
0.0
 40
0.5
 41
0.0
 46
0.0
 71
     5
 72
     1
  1
\A1;17.87 [454.00]
 73
     1
 44
1.0
  0
POINT
  5
F1
330
E7
100
AcDbEntity
  8
Defpoints
 62
     0
100
AcDbPoint
 10
9.0088582677
 20
8.937007874000004
 30
0.0
  0
POINT
  5
F2
330
E7
100
AcDbEntity
  8
Defpoints
 62
     0
100
AcDbPoint
 10
9.0088582677
 20
-8.937007874000003
 30
0.0
  0
POINT
  5
F3
330
E7
100
AcDbEntity
  8
Defpoints
 62
     0
100
AcDbPoint
 10
13.27206446565256
 20
-8.937007874000003
 30
0.0
  0
ENDBLK
  5
E9
330
E7
100
AcDbEntity
  8
0
100
AcDbBlockEnd
  0
BLOCK
  5
F8
330
F7
100
AcDbEntity
  8
0
100
AcDbBlockBegin
  2
*D2
 70
     1
 10
0.0
 20
0.0
 30
0.0
  3
*D2
  1
*D2
  0
LINE
  5
FA
330
F7
100
AcDbEntity
  8
0
 62
     0
370
    -2
100
AcDbLine
 10
9.0482283464
 20
8.937007874
 30
0.0
 11
12.8629063253882
 21
8.937007874
 31
0.0
  0
LINE
  5
FB
330
F7
100
AcDbEntity
  8
0
 62
     0
370
    -2
100
AcDbLine
 10
9.0482283464
 20
-8.937007874
 30
0.0
 11
12.8629063253882
 21
-8.937007874
 31
0.0
  0
LINE
  5
FC
330
F7
100
AcDbEntity
  8
0
 62
     0
370
    -2
100
AcDbLine
 10
12.8235362466882
 20
8.637007874
 30
0.0
 11
12.8235362466882
 21
6.203721727259563
 31
0.0
  0
LINE
  5
FD
330
F7
100
AcDbEntity
  8
0
 62
     0
370
    -2
100
AcDbLine
 10
12.8235362466882
 20
-8.637007874
 30
0.0
 11
12.8235362466882
 21
0.3503883939262273
 31
0.0
  0
SOLID
  5
FE
330
F7
100
AcDbEntity
  8
0
 62
     0
100
AcDbTrace
 10
12.8735362466882
 20
8.637007874
 30
0.0
 11
12.7735362466882
 21
8.637007874
 31
0.0
 12
12.8235362466882
 22
8.937007874
 32
0.0
 13
12.8235362466882
 23
8.937007874
 33
0.0
  0
SOLID
  5
FF
330
F7
100
AcDbEntity
  8
0
 62
     0
100
AcDbTrace
 10
12.7735362466882
 20
-8.637007874
 30
0.0
 11
12.8735362466882
 21
-8.637007874
 31
0.0
 12
12.8235362466882
 22
-8.937007874
 32
0.0
 13
12.8235362466882
 23
-8.937007874
 33
0.0
  0
MTEXT
  5
100
330
F7
100
AcDbEntity
  8
0
  6
ByBlock
 62
     0
100
AcDbMText
 10
12.8235362466882
 20
3.277055060592895
 30
0.0
 40
0.4
 41
0.0
 46
0.0
 71
     5
 72
     1
  1
\A1;17.87in [454.00mm]
 11
6.123233995736766E-17
 21
1.0
 31
0.0
 73
     1
 44
1.0
  0
POINT
  5
101
330
F7
100
AcDbEntity
  8
Defpoints
 62
     0
100
AcDbPoint
 10
9.0088582677
 20
8.937007874
 30
0.0
  0
POINT
  5
102
330
F7
100
AcDbEntity
  8
Defpoints
 62
     0
100
AcDbPoint
 10
9.0088582677
 20
-8.937007874
 30
0.0
  0
POINT
  5
1B4
330
F7
100
AcDbEntity
  8
Defpoints
 62
     0
100
AcDbPoint
 10
12.8235362466882
 20
-8.937007874
 30
0.0
  0
ENDBLK
  5
F9
330
F7
100
AcDbEntity
  8
0
100
AcDbBlockEnd
  0
BLOCK
  5
108
330
107
100
AcDbEntity
  8
0
100
AcDbBlockBegin
  2
*D3
 70
     1
 10
0.0
 20
0.0
 30
0.0
  3
*D3
  1
*D3
  0
LINE
  5
10A
330
107
100
AcDbEntity
  8
0
 62
     0
370
    -2
100
AcDbLine
 10
9.1338582677
 20
-8.8513779527
 30
0.0
 11
9.1338582677
 21
-11.46558477239253
 31
0.0
  0
LINE
  5
10B
330
107
100
AcDbEntity
  8
0
 62
     0
370
    -2
100
AcDbLine
 10
-9.133858267700004
 20
-8.8513779527
 30
0.0
 11
-9.133858267700004
 21
-11.46558477239253
 31
0.0
  0
LINE
  5
10C
330
107
100
AcDbEntity
  8
0
 62
     0
370
    -2
100
AcDbLine
 10
8.8338582677
 20
-11.42621469369253
 30
0.0
 11
-8.833858267700004
 21
-11.42621469369253
 31
0.0
  0
SOLID
  5
10D
330
107
100
AcDbEntity
  8
0
 62
     0
100
AcDbTrace
 10
8.8338582677
 20
-11.47621469369253
 30
0.0
 11
8.8338582677
 21
-11.37621469369253
 31
0.0
 12
9.1338582677
 22
-11.42621469369253
 32
0.0
 13
9.1338582677
 23
-11.42621469369253
 33
0.0
  0
SOLID
  5
10E
330
107
100
AcDbEntity
  8
0
 62
     0
100
AcDbTrace
 10
-8.833858267700004
 20
-11.37621469369253
 30
0.0
 11
-8.833858267700004
 21
-11.47621469369253
 31
0.0
 12
-9.133858267700004
 22
-11.42621469369253
 32
0.0
 13
-9.133858267700004
 23
-11.42621469369253
 33
0.0
  0
MTEXT
  5
10F
330
107
100
AcDbEntity
  8
0
 62
     0
100
AcDbMText
 10
-0.0000000000000018
 20
-11.16621469369253
 30
0.0
 40
0.4
 41
0.0
 46
0.0
 71
     5
 72
     1
  1
\A1;18.27in [464.00mm]
 73
     1
 44
1.0
  0
POINT
  5
110
330
107
100
AcDbEntity
  8
Defpoints
 62
     0
100
AcDbPoint
 10
9.1338582677
 20
-8.812007874
 30
0.0
  0
POINT
  5
111
330
107
100
AcDbEntity
  8
Defpoints
 62
     0
100
AcDbPoint
 10
-9.133858267700004
 20
-8.812007874
 30
0.0
  0
POINT
  5
112
330
107
100
AcDbEntity
  8
Defpoints
 62
     0
100
AcDbPoint
 10
-9.133858267700004
 20
-11.42621469369253
 30
0.0
  0
ENDBLK
  5
109
330
107
100
AcDbEntity
  8
0
100
AcDbBlockEnd
  0
BLOCK
  5
117
330
116
100
AcDbEntity
  8
0
100
AcDbBlockBegin
  2
*D4
 70
     1
 10
0.0
 20
0.0
 30
0.0
  3
*D4
  1
*D4
  0
LINE
  5
119
330
116
100
AcDbEntity
  8
0
 62
     0
370
    -2
100
AcDbLine
 10
-8.5039370079
 20
-8.346456692899999
 30
0.0
 11
-8.5039370079
 21
-10.00118500390268
 31
0.0
  0
LINE
  5
11A
330
116
100
AcDbEntity
  8
0
 62
     0
370
    -2
100
AcDbLine
 10
8.5039370079
 20
-8.346456692899999
 30
0.0
 11
8.5039370079
 21
-10.00118500390268
 31
0.0
  0
LINE
  5
11B
330
116
100
AcDbEntity
  8
0
 62
     0
370
    -2
100
AcDbLine
 10
-8.203937007899999
 20
-9.961814925202681
 30
0.0
 11
8.203937007899999
 21
-9.961814925202681
 31
0.0
  0
SOLID
  5
11C
330
116
100
AcDbEntity
  8
0
 62
     0
100
AcDbTrace
 10
-8.203937007899999
 20
-9.91181492520268
 30
0.0
 11
-8.203937007899999
 21
-10.01181492520268
 31
0.0
 12
-8.5039370079
 22
-9.961814925202681
 32
0.0
 13
-8.5039370079
 23
-9.961814925202681
 33
0.0
  0
SOLID
  5
11D
330
116
100
AcDbEntity
  8
0
 62
     0
100
AcDbTrace
 10
8.203937007899999
 20
-10.01181492520268
 30
0.0
 11
8.203937007899999
 21
-9.91181492520268
 31
0.0
 12
8.5039370079
 22
-9.961814925202681
 32
0.0
 13
8.5039370079
 23
-9.961814925202681
 33
0.0
  0
MTEXT
  5
11E
330
116
100
AcDbEntity
  8
0
 62
     0
100
AcDbMText
 10
0.0
 20
-9.701814925202681
 30
0.0
 40
0.4
 41
0.0
 46
0.0
 71
     5
 72
     1
  1
\A1;17.01in [432.00mm]
 73
     1
 44
1.0
  0
POINT
  5
11F
330
116
100
AcDbEntity
  8
Defpoints
 62
     0
100
AcDbPoint
 10
-8.5039370079
 20
-8.3070866142
 30
0.0
  0
POINT
  5
120
330
116
100
AcDbEntity
  8
Defpoints
 62
     0
100
AcDbPoint
 10
8.5039370079
 20
-8.3070866142
 30
0.0
  0
POINT
  5
121
330
116
100
AcDbEntity
  8
Defpoints
 62
     0
100
AcDbPoint
 10
8.5039370079
 20
-9.961814925202681
 30
0.0
  0
ENDBLK
  5
118
330
116
100
AcDbEntity
  8
0
100
AcDbBlockEnd
  0
BLOCK
  5
126
330
125
100
AcDbEntity
  8
0
100
AcDbBlockBegin
  2
*D5
 70
     1
 10
0.0
 20
0.0
 30
0.0
  3
*D5
  1
*D5
  0
LINE
  5
128
330
125
100
AcDbEntity
  8
0
 62
     0
370
    -2
100
AcDbLine
 10
8.543307086599999
 20
-8.3070866142
 30
0.0
 11
11.45188224340952
 21
-8.3070866142
 31
0.0
  0
LINE
  5
129
330
125
100
AcDbEntity
  8
0
 62
     0
370
    -2
100
AcDbLine
 10
8.543307086599999
 20
8.3070866142
 30
0.0
 11
11.45188224340952
 21
8.3070866142
 31
0.0
  0
LINE
  5
12A
330
125
100
AcDbEntity
  8
0
 62
     0
370
    -2
100
AcDbLine
 10
11.41251216470952
 20
-8.007086614199999
 30
0.0
 11
11.41251216470952
 21
-0.5242438966523428
 31
0.0
  0
LINE
  5
12B
330
125
100
AcDbEntity
  8
0
 62
     0
370
    -2
100
AcDbLine
 10
11.41251216470953
 20
8.007086614199999
 30
0.0
 11
11.41251216470953
 21
5.195756103347662
 31
0.0
  0
SOLID
  5
12C
330
125
100
AcDbEntity
  8
0
 62
     0
100
AcDbTrace
 10
11.36251216470952
 20
-8.007086614199999
 30
0.0
 11
11.46251216470952
 21
-8.007086614199999
 31
0.0
 12
11.41251216470952
 22
-8.3070866142
 32
0.0
 13
11.41251216470952
 23
-8.3070866142
 33
0.0
  0
SOLID
  5
12D
330
125
100
AcDbEntity
  8
0
 62
     0
100
AcDbTrace
 10
11.46251216470953
 20
8.007086614199999
 30
0.0
 11
11.36251216470952
 21
8.007086614199999
 31
0.0
 12
11.41251216470953
 22
8.3070866142
 32
0.0
 13
11.41251216470953
 23
8.3070866142
 33
0.0
  0
MTEXT
  5
12E
330
125
100
AcDbEntity
  8
0
  6
ByBlock
 62
     0
100
AcDbMText
 10
11.41251216470953
 20
2.335756103347659
 30
0.0
 40
0.4
 41
0.0
 46
0.0
 71
     5
 72
     1
  1
\A1;16.61in [422.00mm]
 11
6.123233995736766E-17
 21
1.0
 31
0.0
 73
     1
 44
1.0
  0
POINT
  5
12F
330
125
100
AcDbEntity
  8
Defpoints
 62
     0
100
AcDbPoint
 10
8.5039370079
 20
-8.3070866142
 30
0.0
  0
POINT
  5
130
330
125
100
AcDbEntity
  8
Defpoints
 62
     0
100
AcDbPoint
 10
8.5039370079
 20
8.3070866142
 30
0.0
  0
POINT
  5
1B3
330
125
100
AcDbEntity
  8
Defpoints
 62
     0
100
AcDbPoint
 10
11.41251216470953
 20
8.3070866142
 30
0.0
  0
ENDBLK
  5
127
330
125
100
AcDbEntity
  8
0
100
AcDbBlockEnd
  0
BLOCK
  5
136
330
135
100
AcDbEntity
  8
0
100
AcDbBlockBegin
  2
*D6
 70
     1
 10
0.0
 20
0.0
 30
0.0
  3
*D6
  1
*D6
  0
LINE
  5
138
330
135
100
AcDbEntity
  8
0
 62
     0
370
    -2
100
AcDbLine
 10
-7.6771653543
 20
7.637795275599999
 30
0.0
 11
-7.6771653543
 21
4.748695853959064
 31
0.0
  0
LINE
  5
139
330
135
100
AcDbEntity
  8
0
 62
     0
370
    -2
100
AcDbLine
 10
7.6771653543
 20
7.637795275599999
 30
0.0
 11
7.6771653543
 21
4.748695853959064
 31
0.0
  0
LINE
  5
13A
330
135
100
AcDbEntity
  8
0
 62
     0
370
    -2
100
AcDbLine
 10
-7.377165354300001
 20
4.788065932659064
 30
0.0
 11
7.3771653543
 21
4.788065932659064
 31
0.0
  0
SOLID
  5
13B
330
135
100
AcDbEntity
  8
0
 62
     0
100
AcDbTrace
 10
-7.377165354300001
 20
4.838065932659064
 30
0.0
 11
-7.377165354300001
 21
4.738065932659064
 31
0.0
 12
-7.6771653543
 22
4.788065932659064
 32
0.0
 13
-7.6771653543
 23
4.788065932659064
 33
0.0
  0
SOLID
  5
13C
330
135
100
AcDbEntity
  8
0
 62
     0
100
AcDbTrace
 10
7.3771653543
 20
4.738065932659064
 30
0.0
 11
7.3771653543
 21
4.838065932659064
 31
0.0
 12
7.6771653543
 22
4.788065932659064
 32
0.0
 13
7.6771653543
 23
4.788065932659064
 33
0.0
  0
MTEXT
  5
13D
330
135
100
AcDbEntity
  8
0
  6
ByBlock
 62
     0
100
AcDbMText
 10
1.537911457572698
 20
5.048065932659065
 30
0.0
 40
0.4
 41
0.0
 46
0.0
 71
     5
 72
     1
  1
\A1;15.35in [390.00mm]
 73
     1
 44
1.0
  0
POINT
  5
13E
330
135
100
AcDbEntity
  8
Defpoints
 62
     0
100
AcDbPoint
 10
-7.6771653543
 20
7.6771653543
 30
0.0
  0
POINT
  5
13F
330
135
100
AcDbEntity
  8
Defpoints
 62
     0
100
AcDbPoint
 10
7.6771653543
 20
7.6771653543
 30
0.0
  0
POINT
  5
140
330
135
100
AcDbEntity
  8
Defpoints
 62
     0
100
AcDbPoint
 10
7.6771653543
 20
4.788065932659064
 30
0.0
  0
ENDBLK
  5
137
330
135
100
AcDbEntity
  8
0
100
AcDbBlockEnd
  0
BLOCK
  5
145
330
144
100
AcDbEntity
  8
0
100
AcDbBlockBegin
  2
*D7
 70
     1
 10
0.0
 20
0.0
 30
0.0
  3
*D7
  1
*D7
  0
LINE
  5
147
330
144
100
AcDbEntity
  8
0
 62
     0
370
    -2
100
AcDbLine
 10
7.637795275599999
 20
7.6771653543
 30
0.0
 11
6.501115538800124
 21
7.6771653543
 31
0.0
  0
LINE
  5
148
330
144
100
AcDbEntity
  8
0
 62
     0
370
    -2
100
AcDbLine
 10
7.637795275599999
 20
-7.6771653543
 30
0.0
 11
6.501115538800123
 21
-7.677165354299999
 31
0.0
  0
LINE
  5
149
330
144
100
AcDbEntity
  8
0
 62
     0
370
    -2
100
AcDbLine
 10
6.540485617500124
 20
7.3771653543
 30
0.0
 11
6.540485617500124
 21
4.213797514174858
 31
0.0
  0
LINE
  5
14A
330
144
100
AcDbEntity
  8
0
 62
     0
370
    -2
100
AcDbLine
 10
6.540485617500123
 20
-7.377165354299999
 30
0.0
 11
6.540485617500123
 21
-1.572869152491807
 31
0.0
  0
SOLID
  5
14B
330
144
100
AcDbEntity
  8
0
 62
     0
100
AcDbTrace
 10
6.590485617500124
 20
7.3771653543
 30
0.0
 11
6.490485617500124
 21
7.3771653543
 31
0.0
 12
6.540485617500124
 22
7.6771653543
 32
0.0
 13
6.540485617500124
 23
7.6771653543
 33
0.0
  0
SOLID
  5
14C
330
144
100
AcDbEntity
  8
0
 62
     0
100
AcDbTrace
 10
6.490485617500124
 20
-7.377165354299999
 30
0.0
 11
6.590485617500123
 21
-7.377165354299999
 31
0.0
 12
6.540485617500123
 22
-7.677165354299999
 32
0.0
 13
6.540485617500123
 23
-7.677165354299999
 33
0.0
  0
MTEXT
  5
14D
330
144
100
AcDbEntity
  8
0
  6
ByBlock
 62
     0
100
AcDbMText
 10
6.540485617500124
 20
1.320464180841525
 30
0.0
 40
0.4
 41
0.0
 46
0.0
 71
     5
 72
     1
  1
\A1;15.35in [390.00mm]
 11
6.123233995736766E-17
 21
1.0
 31
0.0
 73
     1
 44
1.0
  0
POINT
  5
14E
330
144
100
AcDbEntity
  8
Defpoints
 62
     0
100
AcDbPoint
 10
7.6771653543
 20
7.6771653543
 30
0.0
  0
POINT
  5
14F
330
144
100
AcDbEntity
  8
Defpoints
 62
     0
100
AcDbPoint
 10
7.6771653543
 20
-7.6771653543
 30
0.0
  0
POINT
  5
1B5
330
144
100
AcDbEntity
  8
Defpoints
 62
     0
100
AcDbPoint
 10
6.540485617500123
 20
-7.6771653543
 30
0.0
  0
ENDBLK
  5
146
330
144
100
AcDbEntity
  8
0
100
AcDbBlockEnd
  0
BLOCK
  5
158
330
157
100
AcDbEntity
  8
0
100
AcDbBlockBegin
  2
*D8
 70
     1
 10
0.0
 20
0.0
 30
0.0
  3
*D8
  1
*D8
  0
LINE
  5
15A
330
157
100
AcDbEntity
  8
0
  6
ByBlock
 62
     0
370
    -2
100
AcDbLine
 10
-9.1338582677
 20
-1.5354330708
 30
0.0
 11
-9.1338582677
 21
-2.404818747086278
 31
0.0
  0
LINE
  5
15B
330
157
100
AcDbEntity
  8
0
  6
ByBlock
 62
     0
370
    -2
100
AcDbLine
 10
-7.244491745
 20
-1.5354330708
 30
0.0
 11
-7.244491745
 21
-2.404818747086278
 31
0.0
  0
LINE
  5
15C
330
157
100
AcDbEntity
  8
0
  6
ByBlock
 62
     0
370
    -2
100
AcDbLine
 10
-7.244491745
 20
-2.365448668386278
 30
0.0
 11
-1.757825078333334
 21
-2.365448668386278
 31
0.0
  0
LINE
  5
15D
330
157
100
AcDbEntity
  8
0
  6
ByBlock
 62
     0
370
    -2
100
AcDbLine
 10
-8.8338582677
 20
-2.365448668386278
 30
0.0
 11
-7.544491745
 21
-2.365448668386278
 31
0.0
  0
SOLID
  5
15E
330
157
100
AcDbEntity
  8
0
 62
     0
100
AcDbTrace
 10
-8.8338582677
 20
-2.315448668386278
 30
0.0
 11
-8.8338582677
 21
-2.415448668386277
 31
0.0
 12
-9.1338582677
 22
-2.365448668386278
 32
0.0
 13
-9.1338582677
 23
-2.365448668386278
 33
0.0
  0
SOLID
  5
15F
330
157
100
AcDbEntity
  8
0
 62
     0
100
AcDbTrace
 10
-7.544491745
 20
-2.415448668386277
 30
0.0
 11
-7.544491745
 21
-2.315448668386278
 31
0.0
 12
-7.244491745
 22
-2.365448668386278
 32
0.0
 13
-7.244491745
 23
-2.365448668386278
 33
0.0
  0
MTEXT
  5
160
330
157
100
AcDbEntity
  8
0
  6
ByBlock
 62
     0
100
AcDbMText
 10
-4.351158411666667
 20
-2.105448668386277
 30
0.0
 40
0.4
 41
0.0
 46
0.0
 71
     5
 72
     1
  1
\A1;1.89in [47.99mm]
 73
     1
 44
1.0
  0
POINT
  5
161
330
157
100
AcDbEntity
  8
Defpoints
 62
     0
100
AcDbPoint
 10
-9.1338582677
 20
-1.4960629921
 30
0.0
  0
POINT
  5
162
330
157
100
AcDbEntity
  8
Defpoints
 62
     0
100
AcDbPoint
 10
-7.244491745
 20
-1.4960629921
 30
0.0
  0
POINT
  5
163
330
157
100
AcDbEntity
  8
Defpoints
 62
     0
100
AcDbPoint
 10
-7.244491745
 20
-2.365448668386278
 30
0.0
  0
ENDBLK
  5
159
330
157
100
AcDbEntity
  8
0
100
AcDbBlockEnd
  0
BLOCK
  5
168
330
167
100
AcDbEntity
  8
0
100
AcDbBlockBegin
  2
*D9
 70
     1
 10
0.0
 20
0.0
 30
0.0
  3
*D9
  1
*D9
  0
LINE
  5
16A
330
167
100
AcDbEntity
  8
0
  6
ByBlock
 62
     0
370
    -2
100
AcDbLine
 10
-9.1732283464
 20
-0.8661417323
 30
0.0
 11
-11.90190292462672
 21
-0.8661417322999998
 31
0.0
  0
LINE
  5
16B
330
167
100
AcDbEntity
  8
0
  6
ByBlock
 62
     0
370
    -2
100
AcDbLine
 10
-9.1732283464
 20
-1.4960629921
 30
0.0
 11
-11.90190292462672
 21
-1.4960629921
 31
0.0
  0
LINE
  5
16C
330
167
100
AcDbEntity
  8
0
  6
ByBlock
 62
     0
370
    -2
100
AcDbLine
 10
-11.86253284592672
 20
-0.5661417322999998
 30
0.0
 11
-11.86253284592672
 21
-0.2661417322999998
 31
0.0
  0
LINE
  5
16D
330
167
100
AcDbEntity
  8
0
  6
ByBlock
 62
     0
370
    -2
100
AcDbLine
 10
-11.86253284592672
 20
-1.7960629921
 30
0.0
 11
-11.86253284592672
 21
-2.0960629921
 31
0.0
  0
SOLID
  5
16E
330
167
100
AcDbEntity
  8
0
 62
     0
100
AcDbTrace
 10
-11.91253284592672
 20
-0.5661417322999998
 30
0.0
 11
-11.81253284592672
 21
-0.5661417322999998
 31
0.0
 12
-11.86253284592672
 22
-0.8661417322999998
 32
0.0
 13
-11.86253284592672
 23
-0.8661417322999998
 33
0.0
  0
SOLID
  5
16F
330
167
100
AcDbEntity
  8
0
 62
     0
100
AcDbTrace
 10
-11.81253284592672
 20
-1.7960629921
 30
0.0
 11
-11.91253284592672
 21
-1.7960629921
 31
0.0
 12
-11.86253284592672
 22
-1.4960629921
 32
0.0
 13
-11.86253284592672
 23
-1.4960629921
 33
0.0
  0
MTEXT
  5
170
330
167
100
AcDbEntity
  8
0
  6
ByBlock
 62
     0
100
AcDbMText
 10
-11.86253284592672
 20
-1.1811023622
 30
0.0
 40
0.4
 41
0.0
 46
0.0
 71
     5
 72
     1
  1
\A1;0.63in [16.00mm]
 73
     1
 44
1.0
  0
POINT
  5
171
330
167
100
AcDbEntity
  8
Defpoints
 62
     0
100
AcDbPoint
 10
-9.1338582677
 20
-0.8661417323
 30
0.0
  0
POINT
  5
172
330
167
100
AcDbEntity
  8
Defpoints
 62
     0
100
AcDbPoint
 10
-9.1338582677
 20
-1.4960629921
 30
0.0
  0
POINT
  5
173
330
167
100
AcDbEntity
  8
Defpoints
 62
     0
100
AcDbPoint
 10
-11.86253284592672
 20
-1.4960629921
 30
0.0
  0
ENDBLK
  5
169
330
167
100
AcDbEntity
  8
0
100
AcDbBlockEnd
  0
BLOCK
  5
178
330
177
100
AcDbEntity
  8
0
100
AcDbBlockBegin
  2
*D10
 70
     1
 10
0.0
 20
0.0
 30
0.0
  3
*D10
  1
*D10
  0
LINE
  5
17A
330
177
100
AcDbEntity
  8
0
  6
ByBlock
 62
     0
370
    -2
100
AcDbLine
 10
-7.2051216663
 20
-1.1811023622
 30
0.0
 11
-6.374578759763002
 21
-1.1811023622
 31
0.0
  0
LINE
  5
17B
330
177
100
AcDbEntity
  8
0
  6
ByBlock
 62
     0
370
    -2
100
AcDbLine
 10
-7.205121666299999
 20
0.0
 30
0.0
 11
-6.374578759763002
 21
-0.0000000000000001
 31
0.0
  0
LINE
  5
17C
330
177
100
AcDbEntity
  8
0
  6
ByBlock
 62
     0
370
    -2
100
AcDbLine
 10
-6.413948838463003
 20
0.2999999999999999
 30
0.0
 11
-1.62061550512967
 21
0.2999999999999999
 31
0.0
  0
LINE
  5
17D
330
177
100
AcDbEntity
  8
0
  6
ByBlock
 62
     0
370
    -2
100
AcDbLine
 10
-6.413948838463003
 20
-0.8811023621999998
 30
0.0
 11
-6.413948838463003
 21
-0.3
 31
0.0
  0
LINE
  5
17E
330
177
100
AcDbEntity
  8
0
  6
ByBlock
 62
     0
370
    -2
100
AcDbLine
 10
-6.413948838463003
 20
-0.0000000000000001
 30
0.0
 11
-6.413948838463003
 21
0.2999999999999999
 31
0.0
  0
SOLID
  5
17F
330
177
100
AcDbEntity
  8
0
 62
     0
100
AcDbTrace
 10
-6.463948838463002
 20
-0.8811023621999998
 30
0.0
 11
-6.363948838463003
 21
-0.8811023621999998
 31
0.0
 12
-6.413948838463003
 22
-1.1811023622
 32
0.0
 13
-6.413948838463003
 23
-1.1811023622
 33
0.0
  0
SOLID
  5
180
330
177
100
AcDbEntity
  8
0
 62
     0
100
AcDbTrace
 10
-6.363948838463003
 20
-0.3
 30
0.0
 11
-6.463948838463002
 21
-0.3
 31
0.0
 12
-6.413948838463003
 22
-0.0000000000000001
 32
0.0
 13
-6.413948838463003
 23
-0.0000000000000001
 33
0.0
  0
MTEXT
  5
181
330
177
100
AcDbEntity
  8
0
  6
ByBlock
 62
     0
100
AcDbMText
 10
-3.987282171796336
 20
0.5599999999999998
 30
0.0
 40
0.4
 41
0.0
 46
0.0
 71
     5
 72
     1
  1
\A1;1.18in [30.00mm]
 73
     1
 44
1.0
  0
POINT
  5
182
330
177
100
AcDbEntity
  8
Defpoints
 62
     0
100
AcDbPoint
 10
-7.244491745
 20
-1.1811023622
 30
0.0
  0
POINT
  5
183
330
177
100
AcDbEntity
  8
Defpoints
 62
     0
100
AcDbPoint
 10
-7.244491744999999
 20
0.0
 30
0.0
  0
POINT
  5
184
330
177
100
AcDbEntity
  8
Defpoints
 62
     0
100
AcDbPoint
 10
-6.413948838463003
 20
-0.0000000000000001
 30
0.0
  0
ENDBLK
  5
179
330
177
100
AcDbEntity
  8
0
100
AcDbBlockEnd
  0
BLOCK
  5
18A
330
189
100
AcDbEntity
  8
0
100
AcDbBlockBegin
  2
*D11
 70
     1
 10
0.0
 20
0.0
 30
0.0
  3
*D11
  1
*D11
  0
LINE
  5
18C
330
189
100
AcDbEntity
  8
0
  6
ByBlock
 62
     0
370
    -2
100
AcDbLine
 10
-0.7890480385550758
 20
9.171379917562808
 30
0.0
 11
-7.049048038555078
 21
9.171379917562808
 31
0.0
  0
LINE
  5
18D
330
189
100
AcDbEntity
  8
0
  6
ByBlock
 62
     0
370
    -2
100
AcDbLine
 10
-7.049048038555078
 20
9.171379917562808
 30
0.0
 11
-7.821907606115703
 21
8.190109074962796
 31
0.0
  0
MTEXT
  5
18E
330
189
100
AcDbEntity
  8
0
  6
ByBlock
 62
     0
100
AcDbMText
 10
-3.889048038555076
 20
9.431379917562808
 30
0.0
 40
0.4
 41
0.0
 46
0.0
 71
     5
 72
     1
  1
\A1;6 x 0.20in [5.20mm]
 73
     1
 44
1.0
  0
SOLID
  5
18F
330
189
100
AcDbEntity
  8
0
 62
     0
100
AcDbTrace
 10
-7.861187305258829
 20
8.221046192398418
 30
0.0
 11
-7.782627906972577
 21
8.159171957527175
 31
0.0
 12
-8.007530310729434
 22
7.954430880104038
 32
0.0
 13
-8.007530310729434
 23
7.954430880104038
 33
0.0
  0
LINE
  5
190
330
189
100
AcDbEntity
  8
0
  6
ByBlock
 62
     0
100
AcDbLine
 10
-8.160866141699998
 20
7.874015748
 30
0.0
 11
-7.980866141699998
 21
7.874015748
 31
0.0
  0
LINE
  5
191
330
189
100
AcDbEntity
  8
0
  6
ByBlock
 62
     0
100
AcDbLine
 10
-8.070866141699998
 20
7.784015748
 30
0.0
 11
-8.070866141699998
 21
7.964015748
 31
0.0
  0
POINT
  5
192
330
189
100
AcDbEntity
  8
Defpoints
 62
     0
100
AcDbPoint
 10
-8.007530310729434
 20
7.954430880104038
 30
0.0
  0
POINT
  5
193
330
189
100
AcDbEntity
  8
Defpoints
 62
     0
100
AcDbPoint
 10
-8.134201972670564
 20
7.793600615895961
 30
0.0
  0
ENDBLK
  5
18B
330
189
100
AcDbEntity
  8
0
100
AcDbBlockEnd
  0
BLOCK
  5
198
330
197
100
AcDbEntity
  8
0
100
AcDbBlockBegin
  2
*D12
 70
     1
 10
0.0
 20
0.0
 30
0.0
  3
*D12
  1
*D12
  0
LINE
  5
19A
330
197
100
AcDbEntity
  8
0
  6
ByBlock
 62
     0
370
    -2
100
AcDbLine
 10
-8.0708661417
 20
7.9133858267
 30
0.0
 11
-8.0708661417
 21
11.21154697907289
 31
0.0
  0
LINE
  5
19B
330
197
100
AcDbEntity
  8
0
  6
ByBlock
 62
     0
370
    -2
100
AcDbLine
 10
8.0708661417
 20
7.9133858267
 30
0.0
 11
8.0708661417
 21
11.21154697907289
 31
0.0
  0
LINE
  5
19C
330
197
100
AcDbEntity
  8
0
  6
ByBlock
 62
     0
370
    -2
100
AcDbLine
 10
-7.7708661417
 20
11.17217690037289
 30
0.0
 11
7.7708661417
 21
11.17217690037289
 31
0.0
  0
SOLID
  5
19D
330
197
100
AcDbEntity
  8
0
 62
     0
100
AcDbTrace
 10
-7.7708661417
 20
11.2221769003729
 30
0.0
 11
-7.7708661417
 21
11.12217690037289
 31
0.0
 12
-8.0708661417
 22
11.17217690037289
 32
0.0
 13
-8.0708661417
 23
11.17217690037289
 33
0.0
  0
SOLID
  5
19E
330
197
100
AcDbEntity
  8
0
 62
     0
100
AcDbTrace
 10
7.7708661417
 20
11.12217690037289
 30
0.0
 11
7.7708661417
 21
11.2221769003729
 31
0.0
 12
8.0708661417
 22
11.17217690037289
 32
0.0
 13
8.0708661417
 23
11.17217690037289
 33
0.0
  0
MTEXT
  5
19F
330
197
100
AcDbEntity
  8
0
  6
ByBlock
 62
     0
100
AcDbMText
 10
0.0
 20
11.43217690037289
 30
0.0
 40
0.4
 41
0.0
 46
0.0
 71
     5
 72
     1
  1
\A1;16.14in [410.00mm]
 73
     1
 44
1.0
  0
POINT
  5
1A0
330
197
100
AcDbEntity
  8
Defpoints
 62
     0
100
AcDbPoint
 10
-8.0708661417
 20
7.874015748
 30
0.0
  0
POINT
  5
1A1
330
197
100
AcDbEntity
  8
Defpoints
 62
     0
100
AcDbPoint
 10
8.0708661417
 20
7.874015748
 30
0.0
  0
POINT
  5
1A2
330
197
100
AcDbEntity
  8
Defpoints
 62
     0
100
AcDbPoint
 10
8.0708661417
 20
11.17217690037289
 30
0.0
  0
ENDBLK
  5
199
330
197
100
AcDbEntity
  8
0
100
AcDbBlockEnd
  0
BLOCK
  5
1A7
330
1A6
100
AcDbEntity
  8
0
100
AcDbBlockBegin
  2
*D13
 70
     1
 10
0.0
 20
0.0
 30
0.0
  3
*D13
  1
*D13
  0
LINE
  5
1A9
330
1A6
100
AcDbEntity
  8
0
  6
ByBlock
 62
     0
370
    -2
100
AcDbLine
 10
8.1102362204
 20
7.874015748
 30
0.0
 11
10.28046602440835
 21
7.874015748
 31
0.0
  0
LINE
  5
1AA
330
1A6
100
AcDbEntity
  8
0
  6
ByBlock
 62
     0
370
    -2
100
AcDbLine
 10
8.1102362204
 20
-7.874015748
 30
0.0
 11
10.28046602440835
 21
-7.874015748
 31
0.0
  0
LINE
  5
1AB
330
1A6
100
AcDbEntity
  8
0
  6
ByBlock
 62
     0
370
    -2
100
AcDbLine
 10
10.24109594570836
 20
7.574015748
 30
0.0
 11
10.24109594570836
 21
2.859999999999999
 31
0.0
  0
LINE
  5
1AC
330
1A6
100
AcDbEntity
  8
0
  6
ByBlock
 62
     0
370
    -2
100
AcDbLine
 10
10.24109594570836
 20
-7.574015748
 30
0.0
 11
10.24109594570836
 21
-2.860000000000001
 31
0.0
  0
SOLID
  5
1AD
330
1A6
100
AcDbEntity
  8
0
 62
     0
100
AcDbTrace
 10
10.29109594570836
 20
7.574015748
 30
0.0
 11
10.19109594570835
 21
7.574015748
 31
0.0
 12
10.24109594570836
 22
7.874015748
 32
0.0
 13
10.24109594570836
 23
7.874015748
 33
0.0
  0
SOLID
  5
1AE
330
1A6
100
AcDbEntity
  8
0
 62
     0
100
AcDbTrace
 10
10.19109594570835
 20
-7.574015748
 30
0.0
 11
10.29109594570836
 21
-7.574015748
 31
0.0
 12
10.24109594570836
 22
-7.874015748
 32
0.0
 13
10.24109594570836
 23
-7.874015748
 33
0.0
  0
MTEXT
  5
1AF
330
1A6
100
AcDbEntity
  8
0
  6
ByBlock
 62
     0
100
AcDbMText
 10
10.24109594570836
 20
0.0
 30
0.0
 40
0.4
 41
0.0
 46
0.0
 71
     5
 72
     1
  1
\A1;15.75in [400.00mm]
 11
6.123233995736766E-17
 21
1.0
 31
0.0
 73
     1
 44
1.0
  0
POINT
  5
1B0
330
1A6
100
AcDbEntity
  8
Defpoints
 62
     0
100
AcDbPoint
 10
8.0708661417
 20
7.874015748
 30
0.0
  0
POINT
  5
1B1
330
1A6
100
AcDbEntity
  8
Defpoints
 62
     0
100
AcDbPoint
 10
8.0708661417
 20
-7.874015748
 30
0.0
  0
POINT
  5
1B2
330
1A6
100
AcDbEntity
  8
Defpoints
 62
     0
100
AcDbPoint
 10
10.24109594570836
 20
-7.874015748
 30
0.0
  0
ENDBLK
  5
1A8
330
1A6
100
AcDbEntity
  8
0
100
AcDbBlockEnd
  0
BLOCK
  5
1BA
330
1B9
100
AcDbEntity
  8
0
100
AcDbBlockBegin
  2
*D14
 70
     1
 10
0.0
 20
0.0
 30
0.0
  3
*D14
  1
*D14
  0
LINE
  5
1BC
330
1B9
100
AcDbEntity
  8
0
  6
ByBlock
 62
     0
370
    -2
100
AcDbLine
 10
-0.8192870063477184
 20
10.06557516371817
 30
0.0
 11
-7.212620339681052
 21
10.06557516371817
 31
0.0
  0
LINE
  5
1BD
330
1B9
100
AcDbEntity
  8
0
  6
ByBlock
 62
     0
370
    -2
100
AcDbLine
 10
-7.212620339681052
 20
10.06557516371817
 30
0.0
 11
-7.882511730134384
 21
8.354985049787004
 31
0.0
  0
MTEXT
  5
1BE
330
1B9
100
AcDbEntity
  8
0
  6
ByBlock
 62
     0
100
AcDbMText
 10
-3.985953673014385
 20
10.32557516371817
 30
0.0
 40
0.4
 41
0.0
 46
0.0
 71
     5
 72
     1
  1
\A1;4 x 0.43in [11.00mm]
 73
     1
 44
1.0
  0
SOLID
  5
1BF
330
1B9
100
AcDbEntity
  8
0
 62
     0
100
AcDbTrace
 10
-7.929068971999437
 20
8.373217527126053
 30
0.0
 11
-7.835954488269331
 21
8.336752572447955
 31
0.0
 12
-7.991906594168682
 22
8.075641598596686
 32
0.0
 13
-7.991906594168682
 23
8.075641598596686
 33
0.0
  0
LINE
  5
1C0
330
1B9
100
AcDbEntity
  8
0
  6
ByBlock
 62
     0
100
AcDbLine
 10
-8.1608661417
 20
7.874015748
 30
0.0
 11
-7.9808661417
 21
7.874015748
 31
0.0
  0
LINE
  5
1C1
330
1B9
100
AcDbEntity
  8
0
  6
ByBlock
 62
     0
100
AcDbLine
 10
-8.0708661417
 20
7.784015748
 30
0.0
 11
-8.0708661417
 21
7.964015748
 31
0.0
  0
POINT
  5
1C2
330
1B9
100
AcDbEntity
  8
Defpoints
 62
     0
100
AcDbPoint
 10
-7.991906594168682
 20
8.075641598596686
 30
0.0
  0
POINT
  5
1C3
330
1B9
100
AcDbEntity
  8
Defpoints
 62
     0
100
AcDbPoint
 10
-8.149825689231317
 20
7.672389897403314
 30
0.0
  0
ENDBLK
  5
1BB
330
1B9
100
AcDbEntity
  8
0
100
AcDbBlockEnd
  0
BLOCK
  5
1C8
330
1C7
100
AcDbEntity
  8
0
100
AcDbBlockBegin
  2
*D15
 70
     1
 10
0.0
 20
0.0
 30
0.0
  3
*D15
  1
*D15
  0
LINE
  5
1CA
330
1C7
100
AcDbEntity
  8
0
  6
ByBlock
 62
     0
370
    -2
100
AcDbLine
 10
-8.5039370079
 20
8.2677165355
 30
0.0
 11
-8.5039370079
 21
5.90705011654097
 31
0.0
  0
LINE
  5
1CB
330
1C7
100
AcDbEntity
  8
0
  6
ByBlock
 62
     0
370
    -2
100
AcDbLine
 10
8.5039370079
 20
8.2677165355
 30
0.0
 11
8.5039370079
 21
5.90705011654097
 31
0.0
  0
LINE
  5
1CC
330
1C7
100
AcDbEntity
  8
0
  6
ByBlock
 62
     0
370
    -2
100
AcDbLine
 10
-8.203937007899999
 20
5.94642019524097
 30
0.0
 11
8.203937007899999
 21
5.94642019524097
 31
0.0
  0
SOLID
  5
1CD
330
1C7
100
AcDbEntity
  8
0
 62
     0
100
AcDbTrace
 10
-8.203937007899999
 20
5.99642019524097
 30
0.0
 11
-8.203937007899999
 21
5.89642019524097
 31
0.0
 12
-8.5039370079
 22
5.94642019524097
 32
0.0
 13
-8.5039370079
 23
5.94642019524097
 33
0.0
  0
SOLID
  5
1CE
330
1C7
100
AcDbEntity
  8
0
 62
     0
100
AcDbTrace
 10
8.203937007899999
 20
5.89642019524097
 30
0.0
 11
8.203937007899999
 21
5.99642019524097
 31
0.0
 12
8.5039370079
 22
5.94642019524097
 32
0.0
 13
8.5039370079
 23
5.94642019524097
 33
0.0
  0
MTEXT
  5
1CF
330
1C7
100
AcDbEntity
  8
0
  6
ByBlock
 62
     0
100
AcDbMText
 10
0.0
 20
6.20642019524097
 30
0.0
 40
0.4
 41
0.0
 46
0.0
 71
     5
 72
     1
  1
\A1;17.01in [432.00mm]
 73
     1
 44
1.0
  0
POINT
  5
1D0
330
1C7
100
AcDbEntity
  8
Defpoints
 62
     0
100
AcDbPoint
 10
-8.5039370079
 20
8.3070866142
 30
0.0
  0
POINT
  5
1D1
330
1C7
100
AcDbEntity
  8
Defpoints
 62
     0
100
AcDbPoint
 10
8.5039370079
 20
8.3070866142
 30
0.0
  0
POINT
  5
1D2
330
1C7
100
AcDbEntity
  8
Defpoints
 62
     0
100
AcDbPoint
 10
8.5039370079
 20
5.94642019524097
 30
0.0
  0
ENDBLK
  5
1C9
330
1C7
100
AcDbEntity
  8
0
100
AcDbBlockEnd
  0
BLOCK
  5
1D7
330
1D6
100
AcDbEntity
  8
0
100
AcDbBlockBegin
  2
*D16
 70
     1
 10
0.0
 20
0.0
 30
0.0
  3
*D16
  1
*D16
  0
LINE
  5
1D9
330
1D6
100
AcDbEntity
  8
0
  6
ByBlock
 62
     0
370
    -2
100
AcDbLine
 10
-9.133858267700003
 20
8.8513779527
 30
0.0
 11
-9.133858267700004
 21
12.64541394895222
 31
0.0
  0
LINE
  5
1DA
330
1D6
100
AcDbEntity
  8
0
  6
ByBlock
 62
     0
370
    -2
100
AcDbLine
 10
9.1338582677
 20
8.8513779527
 30
0.0
 11
9.1338582677
 21
12.64541394895222
 31
0.0
  0
LINE
  5
1DB
330
1D6
100
AcDbEntity
  8
0
  6
ByBlock
 62
     0
370
    -2
100
AcDbLine
 10
-8.833858267700004
 20
12.60604387025222
 30
0.0
 11
8.8338582677
 21
12.60604387025222
 31
0.0
  0
SOLID
  5
1DC
330
1D6
100
AcDbEntity
  8
0
 62
     0
100
AcDbTrace
 10
-8.833858267700004
 20
12.65604387025222
 30
0.0
 11
-8.833858267700004
 21
12.55604387025222
 31
0.0
 12
-9.133858267700004
 22
12.60604387025222
 32
0.0
 13
-9.133858267700004
 23
12.60604387025222
 33
0.0
  0
SOLID
  5
1DD
330
1D6
100
AcDbEntity
  8
0
 62
     0
100
AcDbTrace
 10
8.8338582677
 20
12.55604387025222
 30
0.0
 11
8.8338582677
 21
12.65604387025222
 31
0.0
 12
9.1338582677
 22
12.60604387025222
 32
0.0
 13
9.1338582677
 23
12.60604387025222
 33
0.0
  0
MTEXT
  5
1DE
330
1D6
100
AcDbEntity
  8
0
  6
ByBlock
 62
     0
100
AcDbMText
 10
-0.0000000000000018
 20
12.86604387025222
 30
0.0
 40
0.4
 41
0.0
 46
0.0
 71
     5
 72
     1
  1
\A1;18.27in [464.00mm]
 73
     1
 44
1.0
  0
POINT
  5
1DF
330
1D6
100
AcDbEntity
  8
Defpoints
 62
     0
100
AcDbPoint
 10
-9.133858267700003
 20
8.812007874
 30
0.0
  0
POINT
  5
1E0
330
1D6
100
AcDbEntity
  8
Defpoints
 62
     0
100
AcDbPoint
 10
9.1338582677
 20
8.812007874
 30
0.0
  0
POINT
  5
1E1
330
1D6
100
AcDbEntity
  8
Defpoints
 62
     0
100
AcDbPoint
 10
9.1338582677
 20
12.60604387025222
 30
0.0
  0
ENDBLK
  5
1D8
330
1D6
100
AcDbEntity
  8
0
100
AcDbBlockEnd
  0
ENDSEC
  0
SECTION
  2
ENTITIES
  0
CIRCLE
  5
8E
330
1F
100
AcDbEntity
  8
0
  6
Continuous
 62
     7
370
    15
100
AcDbCircle
 10
-8.0708661417
 20
0.0
 30
0.0
 40
0.1023622047244102
  0
CIRCLE
  5
8F
330
1F
100
AcDbEntity
  8
0
  6
Continuous
 62
     7
370
    15
100
AcDbCircle
 10
8.0708661417
 20
0.0
 30
0.0
 40
0.1023622047244091
  0
CIRCLE
  5
90
330
1F
100
AcDbEntity
  8
0
  6
Continuous
 62
     7
370
    15
100
AcDbCircle
 10
8.0708661417
 20
7.874015748
 30
0.0
 40
0.2165354330708684
  0
CIRCLE
  5
91
330
1F
100
AcDbEntity
  8
0
  6
Continuous
 62
     7
370
    15
100
AcDbCircle
 10
8.0708661417
 20
-7.874015748
 30
0.0
 40
0.2165354330708693
  0
CIRCLE
  5
92
330
1F
100
AcDbEntity
  8
0
  6
Continuous
 62
     7
370
    15
100
AcDbCircle
 10
-8.0708661417
 20
-7.874015748
 30
0.0
 40
0.2165354330708658
  0
CIRCLE
  5
95
102
{ACAD_REACTORS
330
1B8
102
}
330
1F
100
AcDbEntity
  8
0
  6
Continuous
 62
     7
370
    15
100
AcDbCircle
 10
-8.0708661417
 20
7.874015748
 30
0.0
 40
0.2165354330708658
  0
CIRCLE
  5
9B
102
{ACAD_REACTORS
330
1A5
102
}
330
1F
100
AcDbEntity
  8
0
  6
Continuous
 62
     7
370
    15
100
AcDbCircle
 10
8.0708661417
 20
-7.874015748
 30
0.0
 40
0.1023622047244093
  0
CIRCLE
  5
9C
330
1F
100
AcDbEntity
  8
0
  6
Continuous
 62
     7
370
    15
100
AcDbCircle
 10
-8.0708661417
 20
-7.874015748
 30
0.0
 40
0.1023622047244102
  0
CIRCLE
  5
9D
102
{ACAD_REACTORS
330
188
102
}
330
1F
100
AcDbEntity
  8
0
  6
Continuous
 62
     7
370
    15
100
AcDbCircle
 10
-8.0708661417
 20
7.874015748
 30
0.0
 40
0.1023622047244102
  0
CIRCLE
  5
9E
102
{ACAD_REACTORS
330
196
330
1A5
102
}
330
1F
100
AcDbEntity
  8
0
  6
Continuous
 62
     7
370
    15
100
AcDbCircle
 10
8.0708661417
 20
7.874015748
 30
0.0
 40
0.1023622047244084
  0
LINE
  5
A4
330
1F
100
AcDbEntity
  8
0
  6
Continuous
 62
     7
370
    15
100
AcDbLine
 10
-9.0088582677
 20
8.937007874
 30
0.0
 11
-9.0088582677
 21
-0.8661417323
 31
0.0
  0
LINE
  5
A5
330
1F
100
AcDbEntity
  8
0
  6
Continuous
 62
     7
370
    15
100
AcDbLine
 10
9.1338582677
 20
8.812007874
 30
0.0
 11
-9.1338582677
 21
8.812007874
 31
0.0
  0
LINE
  5
A6
330
1F
100
AcDbEntity
  8
0
  6
Continuous
 62
     7
370
    15
100
AcDbLine
 10
9.0088582677
 20
-8.937007874
 30
0.0
 11
9.0088582677
 21
8.937007874
 31
0.0
  0
LINE
  5
A7
330
1F
100
AcDbEntity
  8
0
  6
Continuous
 62
     7
370
    15
100
AcDbLine
 10
-9.1338582677
 20
-8.812007874
 30
0.0
 11
9.1338582677
 21
-8.812007874
 31
0.0
  0
LINE
  5
A8
330
1F
100
AcDbEntity
  8
0
  6
Continuous
 62
     7
370
    15
100
AcDbLine
 10
-9.0088582677
 20
-1.4960629921
 30
0.0
 11
-9.0088582677
 21
-8.937007874
 31
0.0
  0
LINE
  5
A9
330
1F
100
AcDbEntity
  8
0
  6
Continuous
 62
     7
370
    15
100
AcDbLine
 10
8.5039370079
 20
-8.3070866142
 30
0.0
 11
-8.5039370079
 21
-8.3070866142
 31
0.0
  0
LINE
  5
AA
102
{ACAD_REACTORS
330
115
330
124
330
1C6
102
}
330
1F
100
AcDbEntity
  8
0
  6
Continuous
 62
     7
370
    15
100
AcDbLine
 10
8.5039370079
 20
8.3070866142
 30
0.0
 11
8.5039370079
 21
-8.3070866142
 31
0.0
  0
LINE
  5
AB
330
1F
100
AcDbEntity
  8
0
  6
Continuous
 62
     7
370
    15
100
AcDbLine
 10
-8.5039370079
 20
8.3070866142
 30
0.0
 11
8.5039370079
 21
8.3070866142
 31
0.0
  0
LINE
  5
AC
102
{ACAD_REACTORS
330
1C6
102
}
330
1F
100
AcDbEntity
  8
0
  6
Continuous
 62
     7
370
    15
100
AcDbLine
 10
-8.5039370079
 20
-0.8661417323
 30
0.0
 11
-8.5039370079
 21
8.3070866142
 31
0.0
  0
LINE
  5
AD
102
{ACAD_REACTORS
330
166
102
}
330
1F
100
AcDbEntity
  8
0
  6
Continuous
 62
     7
370
    15
100
AcDbLine
 10
-7.244491745
 20
-0.8661417323
 30
0.0
 11
-9.1338582677
 21
-0.8661417323
 31
0.0
  0
LINE
  5
AE
102
{ACAD_REACTORS
330
115
102
}
330
1F
100
AcDbEntity
  8
0
  6
Continuous
 62
     7
370
    15
100
AcDbLine
 10
-8.5039370079
 20
-8.3070866142
 30
0.0
 11
-8.5039370079
 21
-1.4960629921
 31
0.0
  0
LINE
  5
AF
102
{ACAD_REACTORS
330
156
330
166
102
}
330
1F
100
AcDbEntity
  8
0
  6
Continuous
 62
     7
370
    15
100
AcDbLine
 10
-9.1338582677
 20
-1.4960629921
 30
0.0
 11
-7.244491745
 21
-1.4960629921
 31
0.0
  0
LINE
  5
B0
102
{ACAD_REACTORS
330
106
330
1D5
102
}
330
1F
100
AcDbEntity
  8
0
  6
Continuous
 62
     7
370
    15
100
AcDbLine
 10
9.1338582677
 20
8.812007874
 30
0.0
 11
9.1338582677
 21
-8.812007874
 31
0.0
  0
LINE
  5
B1
330
1F
100
AcDbEntity
  8
0
  6
Continuous
 62
     7
370
    15
100
AcDbLine
 10
-9.1338582677
 20
-8.812007874
 30
0.0
 11
-9.1338582677
 21
8.812007874
 31
0.0
  0
LINE
  5
B2
102
{ACAD_REACTORS
330
F6
102
}
330
1F
100
AcDbEntity
  8
0
  6
Continuous
 62
     7
370
    15
100
AcDbLine
 10
9.0088582677
 20
-8.937007874
 30
0.0
 11
-9.0088582677
 21
-8.937007874
 31
0.0
  0
LINE
  5
B3
102
{ACAD_REACTORS
330
F6
102
}
330
1F
100
AcDbEntity
  8
0
  6
Continuous
 62
     7
370
    15
100
AcDbLine
 10
-9.0088582677
 20
8.937007874
 30
0.0
 11
9.0088582677
 21
8.937007874
 31
0.0
  0
LINE
  5
B4
102
{ACAD_REACTORS
330
134
330
143
102
}
330
1F
100
AcDbEntity
  8
0
  6
Continuous
 62
     7
370
    15
100
AcDbLine
 10
7.6771653543
 20
7.6771653543
 30
0.0
 11
-7.6771653543
 21
7.6771653543
 31
0.0
  0
LINE
  5
B5
330
1F
100
AcDbEntity
  8
0
  6
Continuous
 62
     7
370
    15
100
AcDbLine
 10
-7.6771653543
 20
7.6771653543
 30
0.0
 11
-7.6771653543
 21
-0.8661417323
 31
0.0
  0
LINE
  5
B6
330
1F
100
AcDbEntity
  8
0
  6
Continuous
 62
     7
370
    15
100
AcDbLine
 10
7.6771653543
 20
-7.6771653543
 30
0.0
 11
7.6771653543
 21
7.6771653543
 31
0.0
  0
LINE
  5
B7
330
1F
100
AcDbEntity
  8
0
  6
Continuous
 62
     7
370
    15
100
AcDbLine
 10
-7.6771653543
 20
-1.4960629921
 30
0.0
 11
-7.6771653543
 21
-7.6771653543
 31
0.0
  0
LINE
  5
B8
102
{ACAD_REACTORS
330
143
102
}
330
1F
100
AcDbEntity
  8
0
  6
Continuous
 62
     7
370
    15
100
AcDbLine
 10
-7.6771653543
 20
-7.6771653543
 30
0.0
 11
7.6771653543
 21
-7.6771653543
 31
0.0
  0
LINE
  5
B9
102
{ACAD_REACTORS
330
156
330
176
102
}
330
1F
100
AcDbEntity
  8
0
  6
Continuous
 62
     7
370
    15
100
AcDbLine
 10
-7.244491745
 20
-0.8661417323
 30
0.0
 11
-7.244491745
 21
-1.4960629921
 31
0.0
  0
LINE
  5
BA
330
1F
100
AcDbEntity
  8
0
  6
Continuous
 62
     7
370
    15
100
AcDbLine
 10
-7.6306529413
 20
-1.4960629921
 30
0.0
 11
-7.6306529413
 21
-0.8661417323
 31
0.0
  0
ARC
  5
BB
102
{ACAD_REACTORS
330
1D5
102
}
330
1F
100
AcDbEntity
  8
0
  6
Continuous
 62
     7
370
    15
100
AcDbCircle
 10
-9.0088582677
 20
8.812007874
 30
0.0
 40
0.1250000000000018
100
AcDbArc
 50
90.0
 51
180.0
  0
ARC
  5
BC
102
{ACAD_REACTORS
330
E6
102
}
330
1F
100
AcDbEntity
  8
0
  6
Continuous
 62
     7
370
    15
100
AcDbCircle
 10
9.0088582677
 20
-8.812007874
 30
0.0
 40
0.1250000000000018
100
AcDbArc
 50
270.0
 51
0.0
  0
ARC
  5
BD
102
{ACAD_REACTORS
330
106
102
}
330
1F
100
AcDbEntity
  8
0
  6
Continuous
 62
     7
370
    15
100
AcDbCircle
 10
-9.0088582677
 20
-8.812007874
 30
0.0
 40
0.1250000000000036
100
AcDbArc
 50
180.0
 51
270.0
  0
ARC
  5
BE
102
{ACAD_REACTORS
330
E6
102
}
330
1F
100
AcDbEntity
  8
0
  6
Continuous
 62
     7
370
    15
100
AcDbCircle
 10
9.0088582677
 20
8.812007874
 30
0.0
 40
0.1250000000000036
100
AcDbArc
 50
0.0
 51
90.0
  0
DIMENSION
  5
F4
102
{ACAD_REACTORS
330
F6
102
}
102
{ACAD_XDICTIONARY
360
F5
102
}
330
1F
100
AcDbEntity
  8
0
 62
     1
100
AcDbDimension
  2
*D2
 10
12.8235362466882
 20
-8.937007874
 30
0.0
 11
12.8235362466882
 21
3.277055060592895
 31
0.0
 70
   160
 71
     5
 42
17.874015748
 73
     0
 74
     0
 75
     0
 53
90.0
  3
Standard
100
AcDbAlignedDimension
 13
9.0088582677
 23
8.937007874
 33
0.0
 14
9.0088582677
 24
-8.937007874
 34
0.0
 50
90.0
100
AcDbRotatedDimension
1001
ACAD
1000
DSTYLE
1002
{
1070
   179
1070
     2
1070
   170
1070
     1
1070
     4
1000
<>mm
1070
    41
1040
0.3
1070
   271
1070
     2
1070
    44
1040
0.0393700787
1070
    42
1040
0.0393700787
1070
   147
1040
0.06
1070
     3
1000
in
1070
    77
1070
     1
1070
   272
1070
     2
1070
   140
1040
0.4
1002
}
  0
DIMENSION
  5
122
102
{ACAD_REACTORS
330
124
102
}
102
{ACAD_XDICTIONARY
360
123
102
}
330
1F
100
AcDbEntity
  8
0
 62
     1
100
AcDbDimension
  2
*D5
 10
11.41251216470953
 20
8.3070866142
 30
0.0
 11
11.41251216470953
 21
2.335756103347659
 31
0.0
 70
   160
 71
     5
 42
16.6141732284
 73
     0
 74
     0
 75
     0
 53
90.0
  3
Standard
100
AcDbAlignedDimension
 13
8.5039370079
 23
-8.3070866142
 33
0.0
 14
8.5039370079
 24
8.3070866142
 34
0.0
 50
90.0
100
AcDbRotatedDimension
1001
ACAD
1000
DSTYLE
1002
{
1070
   179
1070
     2
1070
   170
1070
     1
1070
     4
1000
<>mm
1070
    41
1040
0.3
1070
   271
1070
     2
1070
    44
1040
0.0393700787
1070
    42
1040
0.0393700787
1070
   147
1040
0.06
1070
     3
1000
in
1070
    77
1070
     1
1070
   272
1070
     2
1070
   140
1040
0.4
1002
}
  0
DIMENSION
  5
132
102
{ACAD_REACTORS
330
134
102
}
102
{ACAD_XDICTIONARY
360
133
102
}
330
1F
100
AcDbEntity
  8
0
 62
     1
100
AcDbDimension
  2
*D6
 10
7.6771653543
 20
4.788065932659064
 30
0.0
 11
1.537911457572698
 21
4.788065932659064
 31
0.0
 70
   160
 71
     5
 42
15.3543307086
 73
     0
 74
     0
 75
     0
  3
Standard
100
AcDbAlignedDimension
 13
-7.6771653543
 23
7.6771653543
 33
0.0
 14
7.6771653543
 24
7.6771653543
 34
0.0
100
AcDbRotatedDimension
1001
ACAD
1000
DSTYLE
1002
{
1070
   179
1070
     2
1070
   170
1070
     1
1070
     4
1000
<>mm
1070
    41
1040
0.3
1070
   271
1070
     2
1070
    44
1040
0.0393700787
1070
    42
1040
0.0393700787
1070
   147
1040
0.06
1070
     3
1000
in
1070
    77
1070
     1
1070
   272
1070
     2
1070
   140
1040
0.4
1002
}
  0
DIMENSION
  5
141
102
{ACAD_REACTORS
330
143
102
}
102
{ACAD_XDICTIONARY
360
142
102
}
330
1F
100
AcDbEntity
  8
0
 62
     1
100
AcDbDimension
  2
*D7
 10
6.540485617500123
 20
-7.677165354299999
 30
0.0
 11
6.540485617500124
 21
1.320464180841525
 31
0.0
 70
   160
 71
     5
 42
15.3543307086
 73
     0
 74
     0
 75
     0
 53
90.0
  3
Standard
100
AcDbAlignedDimension
 13
7.6771653543
 23
7.6771653543
 33
0.0
 14
7.6771653543
 24
-7.6771653543
 34
0.0
 50
90.0
100
AcDbRotatedDimension
1001
ACAD
1000
DSTYLE
1002
{
1070
   179
1070
     2
1070
   170
1070
     1
1070
     4
1000
<>mm
1070
    41
1040
0.3
1070
   271
1070
     2
1070
    44
1040
0.0393700787
1070
    42
1040
0.0393700787
1070
   147
1040
0.06
1070
     3
1000
in
1070
    77
1070
     1
1070
   272
1070
     2
1070
   140
1040
0.4
1002
}
  0
LINE
  5
151
330
1F
100
AcDbEntity
  8
0
  6
CENTER
 62
     2
100
AcDbLine
 10
0.0
 20
8.937007874
 30
0.0
 11
0.0
 21
-8.937007874
 31
0.0
  0
LINE
  5
153
102
{ACAD_REACTORS
330
176
102
}
330
1F
100
AcDbEntity
  8
0
  6
CENTER
 62
     2
100
AcDbLine
 10
9.1338582677
 20
0.0
 30
0.0
 11
-9.1338582677
 21
0.0
 31
0.0
  0
DIMENSION
  5
154
102
{ACAD_REACTORS
330
156
102
}
102
{ACAD_XDICTIONARY
360
155
102
}
330
1F
100
AcDbEntity
  8
0
  6
ByBlock
 62
     1
100
AcDbDimension
  2
*D8
 10
-7.244491745
 20
-2.365448668386278
 30
0.0
 11
-4.351158411666667
 21
-2.105448668386277
 31
0.0
 70
    32
 71
     5
 42
1.8893665227
 73
     0
 74
     0
 75
     0
  3
Standard
100
AcDbAlignedDimension
 13
-9.1338582677
 23
-1.4960629921
 33
0.0
 14
-7.244491745
 24
-1.4960629921
 34
0.0
100
AcDbRotatedDimension
1001
ACAD
1000
DSTYLE
1002
{
1070
   179
1070
     2
1070
   170
1070
     1
1070
     4
1000
<>mm
1070
    41
1040
0.3
1070
   271
1070
     2
1070
    44
1040
0.0393700787
1070
    42
1040
0.0393700787
1070
   147
1040
0.06
1070
     3
1000
in
1070
    77
1070
     1
1070
   272
1070
     2
1070
   140
1040
0.4
1002
}
  0
DIMENSION
  5
164
102
{ACAD_REACTORS
330
166
102
}
102
{ACAD_XDICTIONARY
360
165
102
}
330
1F
100
AcDbEntity
  8
0
  6
ByBlock
 62
     1
100
AcDbDimension
  2
*D9
 10
-11.86253284592672
 20
-1.4960629921
 30
0.0
 11
-11.86253284592672
 21
-1.1811023622
 31
0.0
 70
    32
 71
     5
 42
0.6299212597999999
 73
     0
 74
     0
 75
     0
  3
Standard
100
AcDbAlignedDimension
 13
-9.1338582677
 23
-0.8661417323
 33
0.0
 14
-9.1338582677
 24
-1.4960629921
 34
0.0
 50
90.0
100
AcDbRotatedDimension
1001
ACAD
1000
DSTYLE
1002
{
1070
   179
1070
     2
1070
   170
1070
     1
1070
     4
1000
<>mm
1070
    41
1040
0.3
1070
   271
1070
     2
1070
    44
1040
0.0393700787
1070
    42
1040
0.0393700787
1070
   147
1040
0.06
1070
     3
1000
in
1070
    77
1070
     1
1070
   272
1070
     2
1070
   140
1040
0.4
1002
}
  0
DIMENSION
  5
174
102
{ACAD_REACTORS
330
176
102
}
102
{ACAD_XDICTIONARY
360
175
102
}
330
1F
100
AcDbEntity
  8
0
  6
ByBlock
 62
     1
100
AcDbDimension
  2
*D10
 10
-6.413948838463003
 20
-0.0000000000000001
 30
0.0
 11
-3.987282171796336
 21
0.5599999999999998
 31
0.0
 70
    32
 71
     5
 42
1.1811023622
 73
     0
 74
     0
 75
     0
  3
Standard
100
AcDbAlignedDimension
 13
-7.244491745
 23
-1.1811023622
 33
0.0
 14
-7.244491744999999
 24
0.0
 34
0.0
 50
90.0
100
AcDbRotatedDimension
1001
ACAD
1000
DSTYLE
1002
{
1070
   179
1070
     2
1070
   170
1070
     1
1070
     4
1000
<>mm
1070
    41
1040
0.3
1070
   271
1070
     2
1070
    44
1040
0.0393700787
1070
    42
1040
0.0393700787
1070
   147
1040
0.06
1070
     3
1000
in
1070
    77
1070
     1
1070
   272
1070
     2
1070
   140
1040
0.4
1002
}
  0
DIMENSION
  5
186
102
{ACAD_REACTORS
330
188
102
}
102
{ACAD_XDICTIONARY
360
187
102
}
330
1F
100
AcDbEntity
  8
0
  6
ByBlock
 62
     1
100
AcDbDimension
  2
*D11
 10
-8.134201972670564
 20
7.793600615895961
 30
0.0
 11
-3.889048038555076
 21
9.171379917562808
 31
0.0
 70
   163
  1
<>
 71
     5
 42
0.2047244094488192
 73
     0
 74
     0
 75
     0
  3
Standard
100
AcDbDiametricDimension
 15
-8.007530310729434
 25
7.954430880104038
 35
0.0
 40
0.0
1001
ACAD
1000
DSTYLE
1002
{
1070
   179
1070
     2
1070
   170
1070
     1
1070
     4
1000
<>mm
1070
    41
1040
0.3
1070
   271
1070
     2
1070
    44
1040
0.0393700787
1070
    42
1040
0.0393700787
1070
   147
1040
0.06
1070
     3
1000
6 x <>in
1070
    77
1070
     1
1070
   272
1070
     2
1070
   140
1040
0.4
1002
}
1001
ACAD_DSTYLE_DIMRADIAL_EXTENSION
1070
   387
1070
     1
1070
   388
1040
0.0
1070
   390
1040
6.283185307179586
  0
DIMENSION
  5
194
102
{ACAD_REACTORS
330
196
102
}
102
{ACAD_XDICTIONARY
360
195
102
}
330
1F
100
AcDbEntity
  8
0
  6
ByBlock
 62
     1
100
AcDbDimension
  2
*D12
 10
8.0708661417
 20
11.17217690037289
 30
0.0
 11
0.0
 21
11.43217690037289
 31
0.0
 70
    33
 71
     5
 42
16.1417322834
 73
     0
 74
     0
 75
     0
  3
Standard
100
AcDbAlignedDimension
 13
-8.0708661417
 23
7.874015748
 33
0.0
 14
8.0708661417
 24
7.874015748
 34
0.0
1001
ACAD
1000
DSTYLE
1002
{
1070
   179
1070
     2
1070
   170
1070
     1
1070
     4
1000
<>mm
1070
    41
1040
0.3
1070
   271
1070
     2
1070
    44
1040
0.0393700787
1070
    42
1040
0.0393700787
1070
   147
1040
0.06
1070
     3
1000
in
1070
    77
1070
     1
1070
   272
1070
     2
1070
   140
1040
0.4
1002
}
  0
DIMENSION
  5
1A3
102
{ACAD_REACTORS
330
1A5
102
}
102
{ACAD_XDICTIONARY
360
1A4
102
}
330
1F
100
AcDbEntity
  8
0
  6
ByBlock
 62
     1
100
AcDbDimension
  2
*D13
 10
10.24109594570836
 20
-7.874015748
 30
0.0
 11
10.24109594570836
 21
0.0
 31
0.0
 70
   160
 71
     5
 42
15.748031496
 73
     0
 74
     0
 75
     0
 53
90.0
  3
Standard
100
AcDbAlignedDimension
 13
8.0708661417
 23
7.874015748
 33
0.0
 14
8.0708661417
 24
-7.874015748
 34
0.0
 50
90.0
100
AcDbRotatedDimension
1001
ACAD
1000
DSTYLE
1002
{
1070
   179
1070
     2
1070
   170
1070
     1
1070
     4
1000
<>mm
1070
    41
1040
0.3
1070
   271
1070
     2
1070
    44
1040
0.0393700787
1070
    42
1040
0.0393700787
1070
   147
1040
0.06
1070
     3
1000
in
1070
    77
1070
     1
1070
   272
1070
     2
1070
   140
1040
0.4
1002
}
  0
DIMENSION
  5
1B6
102
{ACAD_REACTORS
330
1B8
102
}
102
{ACAD_XDICTIONARY
360
1B7
102
}
330
1F
100
AcDbEntity
  8
0
  6
ByBlock
 62
     1
100
AcDbDimension
  2
*D14
 10
-8.149825689231317
 20
7.672389897403314
 30
0.0
 11
-3.985953673014385
 21
10.06557516371817
 31
0.0
 70
   163
  1
<>
 71
     5
 42
0.433070866141732
 73
     0
 74
     0
 75
     0
  3
Standard
100
AcDbDiametricDimension
 15
-7.991906594168682
 25
8.075641598596686
 35
0.0
 40
0.0
1001
ACAD
1000
DSTYLE
1002
{
1070
   179
1070
     2
1070
   170
1070
     1
1070
     4
1000
<>mm
1070
    41
1040
0.3
1070
   271
1070
     2
1070
    44
1040
0.0393700787
1070
    42
1040
0.0393700787
1070
   147
1040
0.06
1070
     3
1000
4 x <>in
1070
    77
1070
     1
1070
   272
1070
     2
1070
   140
1040
0.4
1002
}
1001
ACAD_DSTYLE_DIMRADIAL_EXTENSION
1070
   387
1070
     1
1070
   388
1040
0.0
1070
   390
1040
6.283185307179586
  0
DIMENSION
  5
1C4
102
{ACAD_REACTORS
330
1C6
102
}
102
{ACAD_XDICTIONARY
360
1C5
102
}
330
1F
100
AcDbEntity
  8
0
  6
ByBlock
 62
     1
100
AcDbDimension
  2
*D15
 10
8.5039370079
 20
5.94642019524097
 30
0.0
 11
0.0
 21
6.20642019524097
 31
0.0
 70
    33
 71
     5
 42
17.0078740158
 73
     0
 74
     0
 75
     0
  3
Standard
100
AcDbAlignedDimension
 13
-8.5039370079
 23
8.3070866142
 33
0.0
 14
8.5039370079
 24
8.3070866142
 34
0.0
1001
ACAD
1000
DSTYLE
1002
{
1070
   179
1070
     2
1070
   170
1070
     1
1070
     4
1000
<>mm
1070
    41
1040
0.3
1070
   271
1070
     2
1070
    44
1040
0.0393700787
1070
    42
1040
0.0393700787
1070
   147
1040
0.06
1070
     3
1000
in
1070
    77
1070
     1
1070
   272
1070
     2
1070
   140
1040
0.4
1002
}
  0
DIMENSION
  5
1D3
102
{ACAD_REACTORS
330
1D5
102
}
102
{ACAD_XDICTIONARY
360
1D4
102
}
330
1F
100
AcDbEntity
  8
0
  6
ByBlock
 62
     1
100
AcDbDimension
  2
*D16
 10
9.1338582677
 20
12.60604387025222
 30
0.0
 11
-0.0000000000000018
 21
12.86604387025222
 31
0.0
 70
    32
 71
     5
 42
18.26771653540001
 73
     0
 74
     0
 75
     0
  3
Standard
100
AcDbAlignedDimension
 13
-9.133858267700003
 23
8.812007874
 33
0.0
 14
9.1338582677
 24
8.812007874
 34
0.0
100
AcDbRotatedDimension
1001
ACAD
1000
DSTYLE
1002
{
1070
   179
1070
     2
1070
   170
1070
     1
1070
     4
1000
<>mm
1070
    41
1040
0.3
1070
   271
1070
     2
1070
    44
1040
0.0393700787
1070
    42
1040
0.0393700787
1070
   147
1040
0.06
1070
     3
1000
in
1070
    77
1070
     1
1070
   272
1070
     2
1070
   140
1040
0.4
1002
}
  0
ENDSEC
  0
SECTION
  2
OBJECTS
  0
DICTIONARY
  5
C
330
0
100
AcDbDictionary
281
     1
  3
ACAD_DETAILVIEWSTYLE
350
1EB
  3
ACAD_GROUP
350
D
  3
ACAD_IMAGE_VARS
350
E2
  3
ACAD_LAYOUT
350
1A
  3
ACAD_MATERIAL
350
D8
  3
ACAD_MLEADERSTYLE
350
DE
  3
ACAD_MLINESTYLE
350
17
  3
ACAD_PLOTSETTINGS
350
19
  3
ACAD_PLOTSTYLENAME
350
E
  3
ACAD_SCALELIST
350
47
  3
ACAD_SECTIONVIEWSTYLE
350
1EC
  3
ACAD_TABLESTYLE
350
DC
  3
ACAD_VISUALSTYLE
350
BF
  3
ACDB_RECOMPOSE_DATA
350
1E7
  3
AcDbVariableDictionary
350
1E2
  3
APPDATA
350
E0
  0
SUN
  5
E1
330
29
100
AcDbSun
 90
        1
290
     0
 63
     7
421
 16777215
 40
1.0
291
     1
 91
  2455826
 92
 54000000
292
     0
 70
     2
 71
   256
280
     1
  0
DICTIONARY
  5
F5
330
F4
100
AcDbDictionary
280
     1
281
     1
  3
ACAD_DIMASSOC
360
F6
  0
DICTIONARY
  5
123
330
122
100
AcDbDictionary
280
     1
281
     1
  3
ACAD_DIMASSOC
360
124
  0
DICTIONARY
  5
133
330
132
100
AcDbDictionary
280
     1
281
     1
  3
ACAD_DIMASSOC
360
134
  0
DICTIONARY
  5
142
330
141
100
AcDbDictionary
280
     1
281
     1
  3
ACAD_DIMASSOC
360
143
  0
DICTIONARY
  5
155
330
154
100
AcDbDictionary
280
     1
281
     1
  3
ACAD_DIMASSOC
360
156
  0
DICTIONARY
  5
165
330
164
100
AcDbDictionary
280
     1
281
     1
  3
ACAD_DIMASSOC
360
166
  0
DICTIONARY
  5
175
330
174
100
AcDbDictionary
280
     1
281
     1
  3
ACAD_DIMASSOC
360
176
  0
DICTIONARY
  5
187
330
186
100
AcDbDictionary
280
     1
281
     1
  3
ACAD_DIMASSOC
360
188
  0
DICTIONARY
  5
195
330
194
100
AcDbDictionary
280
     1
281
     1
  3
ACAD_DIMASSOC
360
196
  0
DICTIONARY
  5
1A4
330
1A3
100
AcDbDictionary
280
     1
281
     1
  3
ACAD_DIMASSOC
360
1A5
  0
DICTIONARY
  5
1B7
330
1B6
100
AcDbDictionary
280
     1
281
     1
  3
ACAD_DIMASSOC
360
1B8
  0
DICTIONARY
  5
1C5
330
1C4
100
AcDbDictionary
280
     1
281
     1
  3
ACAD_DIMASSOC
360
1C6
  0
DICTIONARY
  5
1D4
330
1D3
100
AcDbDictionary
280
     1
281
     1
  3
ACAD_DIMASSOC
360
1D5
  0
DICTIONARY
  5
1EB
102
{ACAD_REACTORS
330
C
102
}
330
C
100
AcDbDictionary
281
     1
  0
DICTIONARY
  5
D
102
{ACAD_REACTORS
330
C
102
}
330
C
100
AcDbDictionary
281
     1
  0
RASTERVARIABLES
  5
E2
102
{ACAD_REACTORS
330
C
102
}
330
C
100
AcDbRasterVariables
 90
        0
 70
     1
 71
     1
 72
     5
  0
DICTIONARY
  5
1A
102
{ACAD_REACTORS
330
C
102
}
330
C
100
AcDbDictionary
281
     1
  3
Layout1
350
1E
  3
Layout2
350
26
  3
Model
350
22
  0
DICTIONARY
  5
D8
102
{ACAD_REACTORS
330
C
102
}
330
C
100
AcDbDictionary
281
     1
  3
ByBlock
350
DA
  3
ByLayer
350
D9
  3
Global
350
DB
  0
DICTIONARY
  5
DE
102
{ACAD_REACTORS
330
C
102
}
330
C
100
AcDbDictionary
281
     1
  3
Standard
350
DF
  0
DICTIONARY
  5
17
102
{ACAD_REACTORS
330
C
102
}
330
C
100
AcDbDictionary
281
     1
  3
Standard
350
18
  0
DICTIONARY
  5
19
102
{ACAD_REACTORS
330
C
102
}
330
C
100
AcDbDictionary
281
     1
  0
ACDBDICTIONARYWDFLT
  5
E
102
{ACAD_REACTORS
330
C
102
}
330
C
100
AcDbDictionary
281
     1
  3
Normal
350
F
100
AcDbDictionaryWithDefault
340
F
  0
DICTIONARY
  5
47
102
{ACAD_REACTORS
330
C
102
}
330
C
100
AcDbDictionary
281
     1
  3
A0
350
48
  3
A1
350
49
  3
A2
350
4A
  3
A3
350
4B
  3
A4
350
4C
  3
A5
350
4D
  3
A6
350
4E
  3
A7
350
4F
  3
A8
350
50
  3
A9
350
51
  3
B0
350
52
  3
B1
350
53
  3
B2
350
54
  3
B3
350
55
  3
B4
350
56
  3
B5
350
57
  3
B6
350
58
  3
B7
350
59
  3
B8
350
5A
  3
B9
350
5B
  3
C0
350
5C
  3
C1
350
5D
  3
C2
350
5E
  3
C3
350
5F
  3
C4
350
60
  3
C5
350
61
  3
C6
350
62
  3
C7
350
63
  3
C8
350
64
  3
C9
350
65
  3
D0
350
66
  3
D1
350
67
  3
D2
350
68
  0
DICTIONARY
  5
1EC
102
{ACAD_REACTORS
330
C
102
}
330
C
100
AcDbDictionary
281
     1
  0
DICTIONARY
  5
DC
102
{ACAD_REACTORS
330
C
102
}
330
C
100
AcDbDictionary
281
     1
  3
Standard
350
DD
  0
DICTIONARY
  5
BF
102
{ACAD_REACTORS
330
C
102
}
330
C
100
AcDbDictionary
281
     1
  3
2dWireframe
350
C4
  3
Basic
350
C7
  3
Brighten
350
CB
  3
ColorChange
350
CF
  3
Conceptual
350
C9
  3
Dim
350
CA
  3
EdgeColorOff
350
D2
  3
Facepattern
350
CE
  3
Flat
350
C0
  3
FlatWithEdges
350
C1
  3
Gouraud
350
C2
  3
GouraudWithEdges
350
C3
  3
Hidden
350
C6
  3
JitterOff
350
D0
  3
Linepattern
350
CD
  3
OverhangOff
350
D1
  3
Realistic
350
C8
  3
Shaded
350
D7
  3
Shaded with edges
350
D6
  3
Shades of Gray
350
D3
  3
Sketchy
350
D4
  3
Thicken
350
CC
  3
Wireframe
350
C5
  3
X-Ray
350
D5
  0
XRECORD
  5
1E7
102
{ACAD_REACTORS
330
C
102
}
330
C
100
AcDbXrecord
280
     1
 90
        1
330
DD
  0
DICTIONARY
  5
1E2
102
{ACAD_REACTORS
330
C
102
}
330
C
100
AcDbDictionary
281
     1
  3
CANNOSCALE
350
1E3
  3
CMLEADERSTYLE
350
1E9
  3
CTABLESTYLE
350
1E8
  3
MSLTSCALE
350
1EA
  0
DICTIONARY
  5
E0
102
{ACAD_REACTORS
330
C
102
}
330
C
100
AcDbDictionary
281
     1
  0
DIMASSOC
  5
F6
102
{ACAD_REACTORS
330
F5
102
}
330
F5
100
AcDbDimAssoc
330
F4
 90
        3
 70
     0
 71
     1
  1
AcDbOsnapPointRef
 72
     1
331
B3
 73
     0
 91
        0
 40
0.0
 10
0.0
 20
0.0
 30
0.0
 75
     0
  1
AcDbOsnapPointRef
 72
    13
331
B2
 73
     0
 91
        0
 40
0.0
 10
0.0
 20
0.0
 30
0.0
 75
     0
  0
DIMASSOC
  5
124
102
{ACAD_REACTORS
330
123
102
}
330
123
100
AcDbDimAssoc
330
122
 90
        3
 70
     0
 71
     1
  1
AcDbOsnapPointRef
 72
     1
331
AA
 73
     0
 91
        0
 40
0.0
 10
0.0
 20
0.0
 30
0.0
 75
     0
  1
AcDbOsnapPointRef
 72
    13
331
AA
 73
     0
 91
        0
 40
0.0
 10
0.0
 20
0.0
 30
0.0
 75
     0
  0
DIMASSOC
  5
134
102
{ACAD_REACTORS
330
133
102
}
330
133
100
AcDbDimAssoc
330
132
 90
        3
 70
     0
 71
     1
  1
AcDbOsnapPointRef
 72
     1
331
B4
 73
     0
 91
        0
 40
0.0
 10
0.0
 20
0.0
 30
0.0
 75
     0
  1
AcDbOsnapPointRef
 72
    13
331
B4
 73
     0
 91
        0
 40
0.0
 10
0.0
 20
0.0
 30
0.0
 75
     0
  0
DIMASSOC
  5
143
102
{ACAD_REACTORS
330
142
102
}
330
142
100
AcDbDimAssoc
330
141
 90
        3
 70
     0
 71
     1
  1
AcDbOsnapPointRef
 72
    13
331
B4
 73
     0
 91
        0
 40
0.0
 10
0.0
 20
0.0
 30
0.0
 75
     0
  1
AcDbOsnapPointRef
 72
     1
331
B8
 73
     0
 91
        0
 40
0.0
 10
0.0
 20
0.0
 30
0.0
 75
     0
  0
DIMASSOC
  5
156
102
{ACAD_REACTORS
330
155
102
}
330
155
100
AcDbDimAssoc
330
154
 90
        3
 70
     0
 71
     1
  1
AcDbOsnapPointRef
 72
    13
331
AF
 73
     0
 91
        0
 40
0.0
 10
0.0
 20
0.0
 30
0.0
 75
     0
  1
AcDbOsnapPointRef
 72
     1
331
B9
 73
     0
 91
        0
 40
0.0
 10
0.0
 20
0.0
 30
0.0
 75
     0
  0
DIMASSOC
  5
166
102
{ACAD_REACTORS
330
165
102
}
330
165
100
AcDbDimAssoc
330
164
 90
        3
 70
     0
 71
     1
  1
AcDbOsnapPointRef
 72
     1
331
AD
 73
     0
 91
        0
 40
0.0
 10
0.0
 20
0.0
 30
0.0
 75
     0
  1
AcDbOsnapPointRef
 72
    13
331
AF
 73
     0
 91
        0
 40
0.0
 10
0.0
 20
0.0
 30
0.0
 75
     0
  0
DIMASSOC
  5
176
102
{ACAD_REACTORS
330
175
102
}
330
175
100
AcDbDimAssoc
330
174
 90
        3
 70
     0
 71
     1
  1
AcDbOsnapPointRef
 72
     2
331
B9
 73
     0
 91
        0
 40
0.4999999999999998
 10
0.0
 20
0.0
 30
0.0
 75
     0
  1
AcDbOsnapPointRef
 72
     8
331
153
 73
     0
 91
        0
 40
0.8965734705244247
 10
0.0
 20
0.0
 30
0.0
 75
     1
  1
AcDbOsnapPointRef
 72
     2
331
B9
 73
     0
 91
        0
 40
0.4999999999999998
 10
0.0
 20
0.0
 30
0.0
 75
     0
  0
DIMASSOC
  5
188
102
{ACAD_REACTORS
330
187
102
}
330
187
100
AcDbDimAssoc
330
186
 90
        2
 70
     0
 71
     1
  1
AcDbOsnapPointRef
 72
     3
331
9D
 73
     0
 91
        0
 40
0.0
 10
0.0
 20
0.0
 30
0.0
 75
     0
  0
DIMASSOC
  5
196
102
{ACAD_REACTORS
330
195
102
}
330
195
100
AcDbDimAssoc
330
194
 90
        2
 70
     0
 71
     1
  1
AcDbOsnapPointRef
 72
     3
331
9E
 73
     0
 91
        0
 40
0.0
 10
0.0
 20
0.0
 30
0.0
 75
     0
  0
DIMASSOC
  5
1A5
102
{ACAD_REACTORS
330
1A4
102
}
330
1A4
100
AcDbDimAssoc
330
1A3
 90
        3
 70
     0
 71
     1
  1
AcDbOsnapPointRef
 72
     3
331
9E
 73
     0
 91
        0
 40
0.0
 10
0.0
 20
0.0
 30
0.0
 75
     0
  1
AcDbOsnapPointRef
 72
     3
331
9B
 73
     0
 91
        0
 40
0.0
 10
0.0
 20
0.0
 30
0.0
 75
     0
  0
DIMASSOC
  5
1B8
102
{ACAD_REACTORS
330
1B7
102
}
330
1B7
100
AcDbDimAssoc
330
1B6
 90
        2
 70
     0
 71
     1
  1
AcDbOsnapPointRef
 72
     3
331
95
 73
     0
 91
        0
 40
0.0
 10
0.0
 20
0.0
 30
0.0
 75
     0
  0
DIMASSOC
  5
1C6
102
{ACAD_REACTORS
330
1C5
102
}
330
1C5
100
AcDbDimAssoc
330
1C4
 90
        3
 70
     0
 71
     1
  1
AcDbOsnapPointRef
 72
     1
331
AC
 73
     0
 91
        0
 40
0.0
 10
0.0
 20
0.0
 30
0.0
 75
     0
  1
AcDbOsnapPointRef
 72
    13
331
AA
 73
     0
 91
        0
 40
0.0
 10
0.0
 20
0.0
 30
0.0
 75
     0
  0
DIMASSOC
  5
1D5
102
{ACAD_REACTORS
330
1D4
102
}
330
1D4
100
AcDbDimAssoc
330
1D3
 90
        3
 70
     0
 71
     1
  1
AcDbOsnapPointRef
 72
     1
331
BB
 73
     0
 91
        0
 40
0.0
 10
0.0
 20
0.0
 30
0.0
 75
     0
  1
AcDbOsnapPointRef
 72
    13
331
B0
 73
     0
 91
        0
 40
0.0
 10
0.0
 20
0.0
 30
0.0
 75
     0
  0
LAYOUT
  5
1E
102
{ACAD_REACTORS
330
1A
102
}
330
1A
100
AcDbPlotSettings
  1

  2
none_device
  4

  6

 40
0.0
 41
0.0
 42
0.0
 43
0.0
 44
0.0
 45
0.0
 46
0.0
 47
0.0
 48
0.0
 49
0.0
140
0.0
141
0.0
142
1.0
143
1.0
 70
   688
 72
     0
 73
     0
 74
     5
  7

 75
    16
 76
     0
 77
     2
 78
   300
147
1.0
148
0.0
149
0.0
100
AcDbLayout
  1
Layout1
 70
     1
 71
     1
 10
0.0
 20
0.0
 11
12.0
 21
9.0
 12
0.0
 22
0.0
 32
0.0
 14
1.000000000000000E+20
 24
1.000000000000000E+20
 34
1.000000000000000E+20
 15
-1.000000000000000E+20
 25
-1.000000000000000E+20
 35
-1.000000000000000E+20
146
0.0
 13
0.0
 23
0.0
 33
0.0
 16
1.0
 26
0.0
 36
0.0
 17
0.0
 27
1.0
 37
0.0
 76
     0
330
1B
  0
LAYOUT
  5
26
102
{ACAD_REACTORS
330
1A
102
}
330
1A
100
AcDbPlotSettings
  1

  2
none_device
  4

  6

 40
0.0
 41
0.0
 42
0.0
 43
0.0
 44
0.0
 45
0.0
 46
0.0
 47
0.0
 48
0.0
 49
0.0
140
0.0
141
0.0
142
1.0
143
1.0
 70
   688
 72
     0
 73
     0
 74
     5
  7

 75
    16
 76
     0
 77
     2
 78
   300
147
1.0
148
0.0
149
0.0
100
AcDbLayout
  1
Layout2
 70
     1
 71
     2
 10
0.0
 20
0.0
 11
0.0
 21
0.0
 12
0.0
 22
0.0
 32
0.0
 14
0.0
 24
0.0
 34
0.0
 15
0.0
 25
0.0
 35
0.0
146
0.0
 13
0.0
 23
0.0
 33
0.0
 16
1.0
 26
0.0
 36
0.0
 17
0.0
 27
1.0
 37
0.0
 76
     0
330
23
  0
LAYOUT
  5
22
102
{ACAD_REACTORS
330
1A
102
}
330
1A
100
AcDbPlotSettings
  1

  2
none_device
  4
ANSI_A_(11.00_x_8.50_Inches)
  6

 40
6.35
 41
19.05
 42
6.35000508
 43
19.05000254
 44
279.4
 45
215.9
 46
133.34999746
 47
88.89999873
 48
0.0
 49
0.0
140
0.0
141
0.0
142
0.4707951542
143
1.0
 70
  1696
 72
     0
 73
     0
 74
     0
  7

 75
     0
 76
     0
 77
     2
 78
   300
147
0.5913241897
148
-39.4088153714
149
0.0
100
AcDbLayout
  1
Model
 70
     1
 71
     0
 10
0.0
 20
0.0
 11
12.0
 21
9.0
 12
0.0
 22
0.0
 32
0.0
 14
-14.29586617926006
 24
-8.937007874000004
 34
0.0
 15
13.0235362466882
 25
13.06604387025222
 35
0.0
146
0.0
 13
0.0
 23
0.0
 33
0.0
 16
1.0
 26
0.0
 36
0.0
 17
0.0
 27
1.0
 37
0.0
 76
     0
330
1F
331
29
  0
MATERIAL
  5
DA
102
{ACAD_REACTORS
330
D8
102
}
330
D8
100
AcDbMaterial
  1
ByBlock
 72
     1
 94
      127
  0
MATERIAL
  5
D9
102
{ACAD_REACTORS
330
D8
102
}
330
D8
100
AcDbMaterial
  1
ByLayer
 72
     1
 94
      127
  0
MATERIAL
  5
DB
102
{ACAD_REACTORS
330
D8
102
}
330
D8
100
AcDbMaterial
  1
Global
 72
     1
 94
      127
  0
MLEADERSTYLE
  5
DF
102
{ACAD_REACTORS
330
DE
102
}
330
DE
100
AcDbMLeaderStyle
170
     2
171
     1
172
     0
 90
        2
 40
0.0
 41
0.0
173
     1
 91
-1056964608
340
14
 92
       -2
290
     1
 42
0.09
291
     1
 43
0.36
  3
Standard
341
0
 44
0.18
300

342
11
174
     1
178
     6
175
     1
176
     0
 93
-1056964608
 45
0.18
292
     0
297
     0
 46
0.18
343
0
 94
-1056964608
 47
1.0
 49
1.0
140
1.0
293
     1
141
0.0
294
     1
177
     0
142
1.0
295
     0
296
     0
143
0.125
1001
ACAD_MLEADERVER
1070
     2
  0
MLINESTYLE
  5
18
102
{ACAD_REACTORS
330
17
102
}
330
17
100
AcDbMlineStyle
  2
Standard
 70
     0
  3

 62
   256
 51
90.0
 52
90.0
 71
     2
 49
0.5
 62
   256
  6
BYLAYER
 49
-0.5
 62
   256
  6
BYLAYER
  0
ACDBPLACEHOLDER
  5
F
102
{ACAD_REACTORS
330
E
102
}
330
E
  0
SCALE
  5
48
102
{ACAD_REACTORS
330
47
102
}
330
47
100
AcDbScale
 70
     0
300
1:1
140
1.0
141
1.0
290
     1
  0
SCALE
  5
49
102
{ACAD_REACTORS
330
47
102
}
330
47
100
AcDbScale
 70
     0
300
1:2
140
1.0
141
2.0
290
     0
  0
SCALE
  5
4A
102
{ACAD_REACTORS
330
47
102
}
330
47
100
AcDbScale
 70
     0
300
1:4
140
1.0
141
4.0
290
     0
  0
SCALE
  5
4B
102
{ACAD_REACTORS
330
47
102
}
330
47
100
AcDbScale
 70
     0
300
1:5
140
1.0
141
5.0
290
     0
  0
SCALE
  5
4C
102
{ACAD_REACTORS
330
47
102
}
330
47
100
AcDbScale
 70
     0
300
1:8
140
1.0
141
8.0
290
     0
  0
SCALE
  5
4D
102
{ACAD_REACTORS
330
47
102
}
330
47
100
AcDbScale
 70
     0
300
1:10
140
1.0
141
10.0
290
     0
  0
SCALE
  5
4E
102
{ACAD_REACTORS
330
47
102
}
330
47
100
AcDbScale
 70
     0
300
1:16
140
1.0
141
16.0
290
     0
  0
SCALE
  5
4F
102
{ACAD_REACTORS
330
47
102
}
330
47
100
AcDbScale
 70
     0
300
1:20
140
1.0
141
20.0
290
     0
  0
SCALE
  5
50
102
{ACAD_REACTORS
330
47
102
}
330
47
100
AcDbScale
 70
     0
300
1:30
140
1.0
141
30.0
290
     0
  0
SCALE
  5
51
102
{ACAD_REACTORS
330
47
102
}
330
47
100
AcDbScale
 70
     0
300
1:40
140
1.0
141
40.0
290
     0
  0
SCALE
  5
52
102
{ACAD_REACTORS
330
47
102
}
330
47
100
AcDbScale
 70
     0
300
1:50
140
1.0
141
50.0
290
     0
  0
SCALE
  5
53
102
{ACAD_REACTORS
330
47
102
}
330
47
100
AcDbScale
 70
     0
300
1:100
140
1.0
141
100.0
290
     0
  0
SCALE
  5
54
102
{ACAD_REACTORS
330
47
102
}
330
47
100
AcDbScale
 70
     0
300
2:1
140
2.0
141
1.0
290
     0
  0
SCALE
  5
55
102
{ACAD_REACTORS
330
47
102
}
330
47
100
AcDbScale
 70
     0
300
4:1
140
4.0
141
1.0
290
     0
  0
SCALE
  5
56
102
{ACAD_REACTORS
330
47
102
}
330
47
100
AcDbScale
 70
     0
300
8:1
140
8.0
141
1.0
290
     0
  0
SCALE
  5
57
102
{ACAD_REACTORS
330
47
102
}
330
47
100
AcDbScale
 70
     0
300
10:1
140
10.0
141
1.0
290
     0
  0
SCALE
  5
58
102
{ACAD_REACTORS
330
47
102
}
330
47
100
AcDbScale
 70
     0
300
100:1
140
100.0
141
1.0
290
     0
  0
SCALE
  5
59
102
{ACAD_REACTORS
330
47
102
}
330
47
100
AcDbScale
 70
     0
300
1/128" = 1'-0"
140
0.0078125
141
12.0
290
     0
  0
SCALE
  5
5A
102
{ACAD_REACTORS
330
47
102
}
330
47
100
AcDbScale
 70
     0
300
1/64" = 1'-0"
140
0.015625
141
12.0
290
     0
  0
SCALE
  5
5B
102
{ACAD_REACTORS
330
47
102
}
330
47
100
AcDbScale
 70
     0
300
1/32" = 1'-0"
140
0.03125
141
12.0
290
     0
  0
SCALE
  5
5C
102
{ACAD_REACTORS
330
47
102
}
330
47
100
AcDbScale
 70
     0
300
1/16" = 1'-0"
140
0.0625
141
12.0
290
     0
  0
SCALE
  5
5D
102
{ACAD_REACTORS
330
47
102
}
330
47
100
AcDbScale
 70
     0
300
3/32" = 1'-0"
140
0.09375
141
12.0
290
     0
  0
SCALE
  5
5E
102
{ACAD_REACTORS
330
47
102
}
330
47
100
AcDbScale
 70
     0
300
1/8" = 1'-0"
140
0.125
141
12.0
290
     0
  0
SCALE
  5
5F
102
{ACAD_REACTORS
330
47
102
}
330
47
100
AcDbScale
 70
     0
300
3/16" = 1'-0"
140
0.1875
141
12.0
290
     0
  0
SCALE
  5
60
102
{ACAD_REACTORS
330
47
102
}
330
47
100
AcDbScale
 70
     0
300
1/4" = 1'-0"
140
0.25
141
12.0
290
     0
  0
SCALE
  5
61
102
{ACAD_REACTORS
330
47
102
}
330
47
100
AcDbScale
 70
     0
300
3/8" = 1'-0"
140
0.375
141
12.0
290
     0
  0
SCALE
  5
62
102
{ACAD_REACTORS
330
47
102
}
330
47
100
AcDbScale
 70
     0
300
1/2" = 1'-0"
140
0.5
141
12.0
290
     0
  0
SCALE
  5
63
102
{ACAD_REACTORS
330
47
102
}
330
47
100
AcDbScale
 70
     0
300
3/4" = 1'-0"
140
0.75
141
12.0
290
     0
  0
SCALE
  5
64
102
{ACAD_REACTORS
330
47
102
}
330
47
100
AcDbScale
 70
     0
300
1" = 1'-0"
140
1.0
141
12.0
290
     0
  0
SCALE
  5
65
102
{ACAD_REACTORS
330
47
102
}
330
47
100
AcDbScale
 70
     0
300
1-1/2" = 1'-0"
140
1.5
141
12.0
290
     0
  0
SCALE
  5
66
102
{ACAD_REACTORS
330
47
102
}
330
47
100
AcDbScale
 70
     0
300
3" = 1'-0"
140
3.0
141
12.0
290
     0
  0
SCALE
  5
67
102
{ACAD_REACTORS
330
47
102
}
330
47
100
AcDbScale
 70
     0
300
6" = 1'-0"
140
6.0
141
12.0
290
     0
  0
SCALE
  5
68
102
{ACAD_REACTORS
330
47
102
}
330
47
100
AcDbScale
 70
     0
300
1'-0" = 1'-0"
140
12.0
141
12.0
290
     0
  0
TABLESTYLE
  5
DD
102
{ACAD_REACTORS
330
DC
102
}
102
{ACAD_XDICTIONARY
360
1E4
102
}
330
DC
100
AcDbTableStyle
  3
Standard
 70
     0
 71
     0
 40
0.06
 41
0.06
280
     0
281
     0
  7
Standard
140
0.18
170
     2
 62
     0
 63
   257
283
     0
 90
        4
 91
        0
  1

274
    -2
284
     1
 64
     0
275
    -2
285
     1
 65
     0
276
    -2
286
     1
 66
     0
277
    -2
287
     1
 67
     0
278
    -2
288
     1
 68
     0
279
    -2
289
     1
 69
     0
  7
Standard
140
0.25
170
     5
 62
     0
 63
   257
283
     0
 90
        4
 91
        0
  1

274
    -2
284
     1
 64
     0
275
    -2
285
     1
 65
     0
276
    -2
286
     1
 66
     0
277
    -2
287
     1
 67
     0
278
    -2
288
     1
 68
     0
279
    -2
289
     1
 69
     0
  7
Standard
140
0.18
170
     5
 62
     0
 63
   257
283
     0
 90
        4
 91
        0
  1

274
    -2
284
     1
 64
     0
275
    -2
285
     1
 65
     0
276
    -2
286
     1
 66
     0
277
    -2
287
     1
 67
     0
278
    -2
288
     1
 68
     0
279
    -2
289
     1
 69
     0
  0
VISUALSTYLE
  5
C4
102
{ACAD_REACTORS
330
BF
102
}
330
BF
100
AcDbVisualStyle
  2
2dWireframe
 70
     4
 71
     0
 72
     2
 73
     0
 90
        0
 40
0.6
 41
30.0
 62
     5
 63
     7
421
 16777215
 74
     1
 91
        4
 64
     7
 65
   257
 75
     1
175
     1
 42
1.0
 92
        0
 66
   257
 43
1.0
 76
     1
 77
     6
 78
     2
 67
     7
 79
     5
170
     0
171
     0
290
     0
174
     0
 93
        1
 44
0.0
173
     0
291
     0
 45
0.0
  0
VISUALSTYLE
  5
C7
102
{ACAD_REACTORS
330
BF
102
}
330
BF
100
AcDbVisualStyle
  2
Basic
 70
     7
 71
     1
 72
     0
 73
     1
 90
        0
 40
0.6
 41
30.0
 62
     5
 63
     7
421
 16777215
 74
     0
 91
        4
 64
     7
 65
   257
 75
     1
175
     1
 42
1.0
 92
        8
 66
     7
 43
1.0
 76
     1
 77
     6
 78
     2
 67
     7
 79
     5
170
     0
171
     0
290
     0
174
     0
 93
        1
 44
0.0
173
     0
291
     1
 45
0.0
  0
VISUALSTYLE
  5
CB
102
{ACAD_REACTORS
330
BF
102
}
330
BF
100
AcDbVisualStyle
  2
Brighten
 70
    12
 71
     2
 72
     2
 73
     0
 90
        0
 40
0.6
 41
30.0
 62
     5
 63
     7
421
 16777215
 74
     1
 91
        4
 64
     7
 65
   257
 75
     1
175
     1
 42
1.0
 92
        8
 66
     7
 43
1.0
 76
     1
 77
     6
 78
     2
 67
     7
 79
     5
170
     0
171
     0
290
     0
174
     0
 93
        1
 44
50.0
173
     0
291
     1
 45
0.0
  0
VISUALSTYLE
  5
CF
102
{ACAD_REACTORS
330
BF
102
}
330
BF
100
AcDbVisualStyle
  2
ColorChange
 70
    16
 71
     2
 72
     2
 73
     3
 90
        0
 40
0.6
 41
30.0
 62
     5
 63
     8
421
  8421504
 74
     1
 91
        4
 64
     7
 65
   257
 75
     1
175
     1
 42
1.0
 92
        8
 66
     8
424
  8421504
 43
1.0
 76
     1
 77
     6
 78
     2
 67
     7
 79
     5
170
     0
171
     0
290
     0
174
     0
 93
        1
 44
0.0
173
     0
291
     1
 45
0.0
  0
VISUALSTYLE
  5
C9
102
{ACAD_REACTORS
330
BF
102
}
330
BF
100
AcDbVisualStyle
  2
Conceptual
 70
     9
 71
     3
 72
     2
 73
     0
 90
        0
 40
0.6
 41
30.0
 62
     5
 63
     7
421
 16777215
 74
     2
 91
        2
 64
     7
 65
   257
 75
     1
175
     1
 42
179.0
 92
        8
 66
     7
 43
1.0
 76
     1
 77
     6
 78
     2
 67
     7
 79
     3
170
     0
171
     0
290
     0
174
     0
 93
        1
 44
0.0
173
     0
291
     0
 45
0.0
  0
VISUALSTYLE
  5
CA
102
{ACAD_REACTORS
330
BF
102
}
330
BF
100
AcDbVisualStyle
  2
Dim
 70
    11
 71
     2
 72
     2
 73
     0
 90
        0
 40
0.6
 41
30.0
 62
     5
 63
     7
421
 16777215
 74
     1
 91
        4
 64
     7
 65
   257
 75
     1
175
     1
 42
1.0
 92
        8
 66
     7
 43
1.0
 76
     1
 77
     6
 78
     2
 67
     7
 79
     5
170
     0
171
     0
290
     0
174
     0
 93
        1
 44
-50.0
173
     0
291
     1
 45
0.0
  0
VISUALSTYLE
  5
D2
102
{ACAD_REACTORS
330
BF
102
}
330
BF
100
AcDbVisualStyle
  2
EdgeColorOff
 70
    22
 71
     2
 72
     2
 73
     0
 90
        0
 40
0.6
 41
30.0
 62
     5
 63
     7
421
 16777215
 74
     1
 91
        4
 64
     7
 65
   257
 75
     1
175
     1
 42
1.0
 92
        8
 66
     7
 43
1.0
 76
     1
 77
     6
 78
     2
 67
     7
 79
     5
170
     0
171
     0
290
     0
174
     0
 93
        1
 44
0.0
173
     0
291
     1
 45
0.0
  0
VISUALSTYLE
  5
CE
102
{ACAD_REACTORS
330
BF
102
}
330
BF
100
AcDbVisualStyle
  2
Facepattern
 70
    15
 71
     2
 72
     2
 73
     0
 90
        0
 40
0.6
 41
30.0
 62
     5
 63
     7
421
 16777215
 74
     1
 91
        4
 64
     7
 65
   257
 75
     1
175
     1
 42
1.0
 92
        8
 66
     7
 43
1.0
 76
     1
 77
     6
 78
     2
 67
     7
 79
     5
170
     0
171
     0
290
     0
174
     0
 93
        1
 44
0.0
173
     0
291
     1
 45
0.0
  0
VISUALSTYLE
  5
C0
102
{ACAD_REACTORS
330
BF
102
}
330
BF
100
AcDbVisualStyle
  2
Flat
 70
     0
 71
     2
 72
     1
 73
     1
 90
        2
 40
0.6
 41
30.0
 62
     5
 63
     7
421
 16777215
 74
     0
 91
        0
 64
     7
 65
   257
 75
     1
175
     1
 42
1.0
 92
        8
 66
     7
 43
1.0
 76
     1
 77
     6
 78
     2
 67
     7
 79
     5
170
     0
171
     0
290
     0
174
     0
 93
       13
 44
0.0
173
     0
291
     1
 45
0.0
  0
VISUALSTYLE
  5
C1
102
{ACAD_REACTORS
330
BF
102
}
330
BF
100
AcDbVisualStyle
  2
FlatWithEdges
 70
     1
 71
     2
 72
     1
 73
     1
 90
        2
 40
0.6
 41
30.0
 62
     5
 63
     7
421
 16777215
 74
     1
 91
        0
 64
     7
 65
   257
 75
     1
175
     1
 42
1.0
 92
        0
 66
   257
 43
1.0
 76
     1
 77
     6
 78
     2
 67
     7
 79
     5
170
     0
171
     0
290
     0
174
     0
 93
       13
 44
0.0
173
     0
291
     1
 45
0.0
  0
VISUALSTYLE
  5
C2
102
{ACAD_REACTORS
330
BF
102
}
330
BF
100
AcDbVisualStyle
  2
Gouraud
 70
     2
 71
     2
 72
     2
 73
     1
 90
        2
 40
0.6
 41
30.0
 62
     5
 63
     7
421
 16777215
 74
     0
 91
        0
 64
     7
 65
   257
 75
     1
175
     1
 42
1.0
 92
        0
 66
     7
 43
1.0
 76
     1
 77
     6
 78
     2
 67
     7
 79
     5
170
     0
171
     0
290
     0
174
     0
 93
       13
 44
0.0
173
     0
291
     1
 45
0.0
  0
VISUALSTYLE
  5
C3
102
{ACAD_REACTORS
330
BF
102
}
330
BF
100
AcDbVisualStyle
  2
GouraudWithEdges
 70
     3
 71
     2
 72
     2
 73
     1
 90
        2
 40
0.6
 41
30.0
 62
     5
 63
     7
421
 16777215
 74
     1
 91
        0
 64
     7
 65
   257
 75
     1
175
     1
 42
1.0
 92
        0
 66
   257
 43
1.0
 76
     1
 77
     6
 78
     2
 67
     7
 79
     5
170
     0
171
     0
290
     0
174
     0
 93
       13
 44
0.0
173
     0
291
     1
 45
0.0
  0
VISUALSTYLE
  5
C6
102
{ACAD_REACTORS
330
BF
102
}
330
BF
100
AcDbVisualStyle
  2
Hidden
 70
     6
 71
     1
 72
     2
 73
     2
 90
        0
 40
0.6
 41
30.0
 62
     5
 63
     7
421
 16777215
 74
     2
 91
        2
 64
     7
 65
   257
 75
     2
175
     1
 42
40.0
 92
        0
 66
   257
 43
1.0
 76
     1
 77
     6
 78
     2
 67
     7
 79
     3
170
     0
171
     0
290
     0
174
     0
 93
        1
 44
0.0
173
     0
291
     0
 45
0.0
  0
VISUALSTYLE
  5
D0
102
{ACAD_REACTORS
330
BF
102
}
330
BF
100
AcDbVisualStyle
  2
JitterOff
 70
    20
 71
     2
 72
     2
 73
     0
 90
        0
 40
0.6
 41
30.0
 62
     5
 63
     7
421
 16777215
 74
     1
 91
        4
 64
     7
 65
   257
 75
     1
175
     1
 42
1.0
 92
       10
 66
     7
 43
1.0
 76
     1
 77
     6
 78
     2
 67
     7
 79
     5
170
     0
171
     0
290
     0
174
     0
 93
        1
 44
0.0
173
     0
291
     1
 45
0.0
  0
VISUALSTYLE
  5
CD
102
{ACAD_REACTORS
330
BF
102
}
330
BF
100
AcDbVisualStyle
  2
Linepattern
 70
    14
 71
     2
 72
     2
 73
     0
 90
        0
 40
0.6
 41
30.0
 62
     5
 63
     7
421
 16777215
 74
     1
 91
        4
 64
     7
 65
   257
 75
     7
175
     7
 42
1.0
 92
        8
 66
     7
 43
1.0
 76
     1
 77
     6
 78
     2
 67
     7
 79
     5
170
     0
171
     0
290
     0
174
     0
 93
        1
 44
0.0
173
     0
291
     1
 45
0.0
  0
VISUALSTYLE
  5
D1
102
{ACAD_REACTORS
330
BF
102
}
330
BF
100
AcDbVisualStyle
  2
OverhangOff
 70
    21
 71
     2
 72
     2
 73
     0
 90
        0
 40
0.6
 41
30.0
 62
     5
 63
     7
421
 16777215
 74
     1
 91
        4
 64
     7
 65
   257
 75
     1
175
     1
 42
1.0
 92
        9
 66
     7
 43
1.0
 76
     1
 77
     6
 78
     2
 67
     7
 79
     5
170
     0
171
     0
290
     0
174
     0
 93
        1
 44
0.0
173
     0
291
     1
 45
0.0
  0
VISUALSTYLE
  5
C8
102
{ACAD_REACTORS
330
BF
102
}
330
BF
100
AcDbVisualStyle
  2
Realistic
 70
     8
 71
     2
 72
     3
 73
     0
 90
        2
 40
0.6
 41
30.0
 62
     5
 63
     7
421
 16777215
 74
     0
 91
        0
 64
     7
 65
   257
 75
     1
175
     1
 42
1.0
 92
        8
 66
   257
 43
1.0
 76
     1
 77
     6
 78
     2
 67
     7
 79
     3
170
     0
171
     0
290
     0
174
     0
 93
       13
 44
0.0
173
     0
291
     0
 45
0.0
  0
VISUALSTYLE
  5
D7
102
{ACAD_REACTORS
330
BF
102
}
330
BF
100
AcDbVisualStyle
  2
Shaded
 70
    27
 71
     2
 72
     2
 73
     1
 90
        2
 40
0.6
 41
30.0
 62
     5
 63
     7
421
 16777215
 74
     0
 91
        4
 64
     7
 65
   257
 75
     1
175
     1
 42
1.0
 92
        8
 66
   257
 43
1.0
 76
     1
 77
     6
 78
     2
 67
     8
425
  7895160
 79
     3
170
     0
171
     0
290
     0
174
     0
 93
        5
 44
0.0
173
     0
291
     0
 45
0.0
  0
VISUALSTYLE
  5
D6
102
{ACAD_REACTORS
330
BF
102
}
330
BF
100
AcDbVisualStyle
  2
Shaded with edges
 70
    26
 71
     2
 72
     2
 73
     1
 90
        2
 40
0.6
 41
30.0
 62
     5
 63
     7
421
 16777215
 74
     1
 91
       10
 64
     7
 65
   257
 75
     2
175
     1
 42
1.0
 92
        8
 66
   257
 43
1.0
 76
     1
 77
     6
 78
     2
 67
     7
 79
     3
170
     0
171
     0
290
     0
174
     0
 93
        5
 44
0.0
173
     0
291
     0
 45
0.0
  0
VISUALSTYLE
  5
D3
102
{ACAD_REACTORS
330
BF
102
}
330
BF
100
AcDbVisualStyle
  2
Shades of Gray
 70
    23
 71
     2
 72
     2
 73
     3
 90
        0
 40
0.6
 41
30.0
 62
     5
 63
     7
421
 16777215
 74
     2
 91
        2
 64
     7
 65
     7
 75
     1
175
     1
 42
40.0
 92
        8
 66
     7
 43
1.0
 76
     1
 77
     6
 78
     2
 67
     7
 79
     3
170
     0
171
     0
290
     0
174
     0
 93
        1
 44
0.0
173
     0
291
     0
 45
0.0
  0
VISUALSTYLE
  5
D4
102
{ACAD_REACTORS
330
BF
102
}
330
BF
100
AcDbVisualStyle
  2
Sketchy
 70
    24
 71
     1
 72
     2
 73
     2
 90
        0
 40
0.6
 41
30.0
 62
     5
 63
     7
421
 16777215
 74
     2
 91
        2
 64
     7
 65
     7
 75
     1
175
     1
 42
40.0
 92
       11
 66
     7
 43
1.0
 76
     1
 77
     6
 78
     2
 67
     7
 79
     6
170
     0
171
     0
290
     0
174
     0
 93
        1
 44
0.0
173
     0
291
     0
 45
0.0
  0
VISUALSTYLE
  5
CC
102
{ACAD_REACTORS
330
BF
102
}
330
BF
100
AcDbVisualStyle
  2
Thicken
 70
    13
 71
     2
 72
     2
 73
     0
 90
        0
 40
0.6
 41
30.0
 62
     5
 63
     7
421
 16777215
 74
     1
 91
        4
 64
     7
 65
   257
 75
     1
175
     1
 42
1.0
 92
       12
 66
     7
 43
1.0
 76
     1
 77
     6
 78
     2
 67
     7
 79
     5
170
     0
171
     0
290
     0
174
     0
 93
        1
 44
0.0
173
     0
291
     1
 45
0.0
  0
VISUALSTYLE
  5
C5
102
{ACAD_REACTORS
330
BF
102
}
330
BF
100
AcDbVisualStyle
  2
Wireframe
 70
     5
 71
     0
 72
     2
 73
     0
 90
        0
 40
0.6
 41
30.0
 62
     5
 63
     7
421
 16777215
 74
     1
 91
        4
 64
     7
 65
   257
 75
     1
175
     1
 42
1.0
 92
        0
 66
   257
 43
1.0
 76
     1
 77
     6
 78
     2
 67
     7
 79
     3
170
     0
171
     0
290
     0
174
     0
 93
        1
 44
0.0
173
     0
291
     0
 45
0.0
  0
VISUALSTYLE
  5
D5
102
{ACAD_REACTORS
330
BF
102
}
330
BF
100
AcDbVisualStyle
  2
X-Ray
 70
    25
 71
     2
 72
     2
 73
     1
 90
        1
 40
0.5
 41
30.0
 62
     5
 63
     7
421
 16777215
 74
     1
 91
        0
 64
     7
 65
   257
 75
     1
175
     1
 42
1.0
 92
        8
 66
     7
 43
1.0
 76
     1
 77
     6
 78
     2
 67
     7
 79
     3
170
     0
171
     0
290
     0
174
     0
 93
       13
 44
0.0
173
     0
291
     0
 45
0.0
  0
DICTIONARYVAR
  5
1E3
102
{ACAD_REACTORS
330
1E2
102
}
330
1E2
100
DictionaryVariables
280
     0
  1
1:1
  0
DICTIONARYVAR
  5
1E9
102
{ACAD_REACTORS
330
1E2
102
}
330
1E2
100
DictionaryVariables
280
     0
  1
Standard
  0
DICTIONARYVAR
  5
1E8
102
{ACAD_REACTORS
330
1E2
102
}
330
1E2
100
DictionaryVariables
280
     0
  1
Standard
  0
DICTIONARYVAR
  5
1EA
102
{ACAD_REACTORS
330
1E2
102
}
330
1E2
100
DictionaryVariables
280
     0
  1
0
  0
DICTIONARY
  5
1E4
330
DD
100
AcDbDictionary
280
     1
281
     1
  3
ACAD_ROUNDTRIP_2008_TABLESTYLE_CELLSTYLEMAP
360
1E5
  0
CELLSTYLEMAP
  5
1E5
102
{ACAD_REACTORS
330
1E4
102
}
330
1E4
100
AcDbCellStyleMap
 90
        3
300
CELLSTYLE
  1
TABLEFORMAT_BEGIN
 90
        5
170
     1
 91
        0
 92
    32768
 62
   257
 93
        1
300
CONTENTFORMAT
  1
CONTENTFORMAT_BEGIN
 90
        0
 91
        0
 92
        4
 93
        0
300

 40
0.0
140
1.0
 94
        5
 62
     0
340
11
144
0.25
309
CONTENTFORMAT_END
171
     1
301
MARGIN
  1
CELLMARGIN_BEGIN
 40
0.06
 40
0.06
 40
0.06
 40
0.06
 40
0.06
 40
0.06
309
CELLMARGIN_END
 94
        6
 95
        1
302
GRIDFORMAT
  1
GRIDFORMAT_BEGIN
 90
        0
 91
        1
 62
     0
 92
       -2
340
14
 93
        0
 40
0.045
309
GRIDFORMAT_END
 95
        2
302
GRIDFORMAT
  1
GRIDFORMAT_BEGIN
 90
        0
 91
        1
 62
     0
 92
       -2
340
14
 93
        0
 40
0.045
309
GRIDFORMAT_END
 95
        4
302
GRIDFORMAT
  1
GRIDFORMAT_BEGIN
 90
        0
 91
        1
 62
     0
 92
       -2
340
14
 93
        0
 40
0.045
309
GRIDFORMAT_END
 95
        8
302
GRIDFORMAT
  1
GRIDFORMAT_BEGIN
 90
        0
 91
        1
 62
     0
 92
       -2
340
14
 93
        0
 40
0.045
309
GRIDFORMAT_END
 95
       16
302
GRIDFORMAT
  1
GRIDFORMAT_BEGIN
 90
        0
 91
        1
 62
     0
 92
       -2
340
14
 93
        0
 40
0.045
309
GRIDFORMAT_END
 95
       32
302
GRIDFORMAT
  1
GRIDFORMAT_BEGIN
 90
        0
 91
        1
 62
     0
 92
       -2
340
14
 93
        0
 40
0.045
309
GRIDFORMAT_END
309
TABLEFORMAT_END
  1
CELLSTYLE_BEGIN
 90
        1
 91
        1
300
_TITLE
309
CELLSTYLE_END
300
CELLSTYLE
  1
TABLEFORMAT_BEGIN
 90
        5
170
     1
 91
        0
 92
        0
 62
   257
 93
        1
300
CONTENTFORMAT
  1
CONTENTFORMAT_BEGIN
 90
        0
 91
        0
 92
        4
 93
        0
300

 40
0.0
140
1.0
 94
        5
 62
     0
340
11
144
0.18
309
CONTENTFORMAT_END
171
     1
301
MARGIN
  1
CELLMARGIN_BEGIN
 40
0.06
 40
0.06
 40
0.06
 40
0.06
 40
0.06
 40
0.06
309
CELLMARGIN_END
 94
        6
 95
        1
302
GRIDFORMAT
  1
GRIDFORMAT_BEGIN
 90
        0
 91
        1
 62
     0
 92
       -2
340
14
 93
        0
 40
0.045
309
GRIDFORMAT_END
 95
        2
302
GRIDFORMAT
  1
GRIDFORMAT_BEGIN
 90
        0
 91
        1
 62
     0
 92
       -2
340
14
 93
        0
 40
0.045
309
GRIDFORMAT_END
 95
        4
302
GRIDFORMAT
  1
GRIDFORMAT_BEGIN
 90
        0
 91
        1
 62
     0
 92
       -2
340
14
 93
        0
 40
0.045
309
GRIDFORMAT_END
 95
        8
302
GRIDFORMAT
  1
GRIDFORMAT_BEGIN
 90
        0
 91
        1
 62
     0
 92
       -2
340
14
 93
        0
 40
0.045
309
GRIDFORMAT_END
 95
       16
302
GRIDFORMAT
  1
GRIDFORMAT_BEGIN
 90
        0
 91
        1
 62
     0
 92
       -2
340
14
 93
        0
 40
0.045
309
GRIDFORMAT_END
 95
       32
302
GRIDFORMAT
  1
GRIDFORMAT_BEGIN
 90
        0
 91
        1
 62
     0
 92
       -2
340
14
 93
        0
 40
0.045
309
GRIDFORMAT_END
309
TABLEFORMAT_END
  1
CELLSTYLE_BEGIN
 90
        2
 91
        1
300
_HEADER
309
CELLSTYLE_END
300
CELLSTYLE
  1
TABLEFORMAT_BEGIN
 90
        5
170
     1
 91
        0
 92
        0
 62
   257
 93
        1
300
CONTENTFORMAT
  1
CONTENTFORMAT_BEGIN
 90
        0
 91
        0
 92
        4
 93
        0
300

 40
0.0
140
1.0
 94
        2
 62
     0
340
11
144
0.18
309
CONTENTFORMAT_END
171
     1
301
MARGIN
  1
CELLMARGIN_BEGIN
 40
0.06
 40
0.06
 40
0.06
 40
0.06
 40
0.06
 40
0.06
309
CELLMARGIN_END
 94
        6
 95
        1
302
GRIDFORMAT
  1
GRIDFORMAT_BEGIN
 90
        0
 91
        1
 62
     0
 92
       -2
340
14
 93
        0
 40
0.045
309
GRIDFORMAT_END
 95
        2
302
GRIDFORMAT
  1
GRIDFORMAT_BEGIN
 90
        0
 91
        1
 62
     0
 92
       -2
340
14
 93
        0
 40
0.045
309
GRIDFORMAT_END
 95
        4
302
GRIDFORMAT
  1
GRIDFORMAT_BEGIN
 90
        0
 91
        1
 62
     0
 92
       -2
340
14
 93
        0
 40
0.045
309
GRIDFORMAT_END
 95
        8
302
GRIDFORMAT
  1
GRIDFORMAT_BEGIN
 90
        0
 91
        1
 62
     0
 92
       -2
340
14
 93
        0
 40
0.045
309
GRIDFORMAT_END
 95
       16
302
GRIDFORMAT
  1
GRIDFORMAT_BEGIN
 90
        0
 91
        1
 62
     0
 92
       -2
340
14
 93
        0
 40
0.045
309
GRIDFORMAT_END
 95
       32
302
GRIDFORMAT
  1
GRIDFORMAT_BEGIN
 90
        0
 91
        1
 62
     0
 92
       -2
340
14
 93
        0
 40
0.045
309
GRIDFORMAT_END
309
TABLEFORMAT_END
  1
CELLSTYLE_BEGIN
 90
        3
 91
        2
300
_DATA
309
CELLSTYLE_END
  0
ENDSEC
  0
EOF
